<svg width="88" height="54" viewBox="0 0 88 54" fill="none" xmlns="http://www.w3.org/2000/svg">
<path d="M40.7312 0.255578C34.0837 1.08619 28.2529 3.85472 23.8479 8.26901C22.5985 9.53022 20.6924 11.945 19.8274 13.3755C19.0585 14.652 18.2256 16.2978 18.2256 16.5592C18.2256 16.713 20.0997 16.7592 27.0676 16.7592H35.8936L36.4383 16.3593C37.3033 15.7286 39.5459 14.7905 40.8273 14.5136C42.349 14.1906 45.1683 14.1906 46.6259 14.5136C48.0035 14.8212 49.7174 15.5133 50.8067 16.2208L51.6557 16.7592H60.4977C65.3513 16.7592 69.3239 16.7284 69.3239 16.6822C69.3239 16.6362 68.9553 15.8979 68.5068 15.0211C64.4382 7.23844 57.3422 2.11664 48.3879 0.532488C46.6259 0.209426 45.793 0.147929 43.7266 0.163274C42.349 0.178736 41.0035 0.224771 40.7312 0.255578ZM47.619 4.05467C53.6099 5.08512 58.6717 7.91526 62.3398 12.3295C63.2689 13.4523 64.7746 15.6826 64.8708 16.1132C64.9188 16.3285 63.8776 16.4977 63.5893 16.3131C63.5252 16.267 63.1247 15.7286 62.7243 15.1442C62.0515 14.1291 60.0813 11.6835 59.9371 11.6835C59.9051 11.6835 59.7288 11.9603 59.5527 12.2834C59.3765 12.6218 58.96 13.0832 58.6237 13.3139L57.9988 13.7446L58.8159 14.7597C59.2644 15.3134 59.6808 15.7902 59.7288 15.8364C59.7929 15.8825 59.873 16.0055 59.9051 16.1285C59.9371 16.267 59.7449 16.3439 59.2644 16.3746C58.6237 16.4054 58.5435 16.3593 57.9028 15.621C56.9738 14.5444 56.2529 13.8522 55.3079 13.1447C54.8753 12.8063 54.4749 12.4987 54.4268 12.4525C54.2186 12.2372 52.6328 11.3451 51.6236 10.8684C49.0447 9.65321 46.738 9.16112 43.6946 9.16112C40.5389 9.16112 38.2965 9.66868 35.6054 10.9606C33.5871 11.9296 32.5298 12.6833 30.6076 14.5444C29.0218 16.0824 28.7336 16.2978 28.1569 16.3593C27.7885 16.4054 27.5162 16.3746 27.5162 16.2823C27.5162 16.0978 28.1569 15.2365 28.9258 14.4059L29.4703 13.8061L28.9578 13.4523C28.6855 13.2524 28.221 12.8063 27.9486 12.4372L27.4521 11.7912L26.6672 12.6063C26.2507 13.0524 25.4338 14.083 24.8731 14.8981L23.864 16.3901L23.1752 16.3593C22.7908 16.3439 22.4704 16.3131 22.4864 16.2823C22.5665 16.0209 23.3514 14.6674 23.88 13.9137C27.2759 9.05336 32.9944 5.34669 38.8731 4.22381C41.7884 3.65477 44.944 3.59327 47.619 4.05467ZM27.436 14.2368C27.7244 14.5136 27.6443 15.2057 27.3079 15.4057C26.7793 15.7286 25.9143 15.3749 25.9143 14.8366C25.9143 14.0522 26.8594 13.6831 27.436 14.2368ZM61.0904 14.1137C61.7151 14.529 61.3146 15.5287 60.5138 15.5287C59.825 15.5287 59.4245 14.6367 59.9051 14.1752C60.1133 13.9753 60.8181 13.9292 61.0904 14.1137Z" fill="#333333"/>
<path d="M40.9589 4.25574C40.5263 4.36339 40.126 5.43999 40.126 6.47056C40.1419 7.20887 40.2381 7.53181 40.6065 8.11633L41.055 8.82383L43.6981 8.77768C46.325 8.74687 46.341 8.74687 46.6774 8.34697C47.0778 7.90091 47.3822 7.00892 47.3822 6.34745C47.3822 5.53229 46.9016 4.44023 46.4692 4.28643C46.0847 4.14809 41.4714 4.11728 40.9589 4.25574ZM42.1923 6.37825C42.1923 8.16248 42.0962 8.31628 41.3754 7.60877C40.7026 6.97811 40.8308 5.53229 41.5996 4.96324C42.1121 4.59415 42.1762 4.74795 42.1923 6.37825Z" fill="#333333"/>
<path d="M38.1711 5.68718C37.0498 5.96409 34.6952 6.79459 34.2627 7.05604C34.0705 7.17915 34.1024 7.2868 34.4389 7.67136C34.6631 7.91747 34.9834 8.45571 35.1276 8.84027C35.2879 9.22483 35.448 9.53243 35.496 9.53243C35.5281 9.53243 36.0887 9.34782 36.7134 9.13252C37.3381 8.90176 38.3153 8.60951 38.8919 8.45571C39.6287 8.27122 39.9171 8.13276 39.8691 7.97896C39.8209 7.85585 39.7729 7.22531 39.7249 6.56395C39.6769 5.8103 39.5967 5.37958 39.4686 5.39493C39.3724 5.39493 38.7798 5.53338 38.1711 5.68718ZM37.9308 7.05604C38.1711 7.5021 38.123 7.85585 37.8187 8.08661C37.4343 8.36341 36.9697 8.34806 36.6174 8.04046C36.0407 7.53291 36.3931 6.7639 37.21 6.7639C37.5944 6.7639 37.8187 6.85609 37.9308 7.05604Z" fill="#333333"/>
<path d="M47.8295 5.94577C47.8775 6.49948 47.7174 7.43774 47.4771 8.00679C47.381 8.20674 47.5091 8.26824 48.1018 8.3452C48.9027 8.45285 51.2093 9.1757 51.4656 9.39111C51.738 9.63721 51.8501 9.52945 52.3307 8.63745C52.587 8.14524 52.9073 7.65304 53.0514 7.54539C53.4519 7.22233 53.3718 7.11468 52.5549 6.76093C51.77 6.42263 49.0949 5.62283 48.2619 5.45356C47.7815 5.36126 47.7654 5.37672 47.8295 5.94577ZM50.8088 7.00703C51.3535 7.53004 50.937 8.29905 50.0881 8.29905C49.4793 8.29905 49.159 7.73 49.4313 7.14549C49.6556 6.69943 50.4085 6.60713 50.8088 7.00703Z" fill="#333333"/>
<path d="M30.8673 7.80813C28.8971 9.06934 27.6797 10.0999 27.6797 10.546C27.6797 11.5303 28.5767 12.7761 29.6499 13.299C30.0984 13.5144 30.547 13.6836 30.643 13.6836C30.7392 13.6836 31.2037 13.376 31.6521 12.9914C32.1167 12.6223 33.0298 11.9763 33.6866 11.5764L34.8879 10.8381V9.99226C34.8879 9.31545 34.7918 9.00785 34.4394 8.50029C33.7987 7.57737 32.9016 6.88533 32.3569 6.91602C32.2929 6.93148 31.6202 7.31592 30.8673 7.80813ZM29.6178 10.546C29.81 10.9304 30.2426 11.4534 30.5789 11.7149C31.0595 12.084 31.1556 12.2378 31.0274 12.407C30.5309 12.9761 29.1693 12.2686 28.817 11.2688C28.6247 10.7613 28.6247 10.546 28.7689 10.2382C29.0412 9.6692 29.2334 9.74616 29.6178 10.546Z" fill="#333333"/>
<path d="M54.1888 7.26879C53.8363 7.4534 53.3077 7.94561 53.0355 8.36086C52.6029 8.96071 52.5068 9.25297 52.5068 9.92967C52.5068 10.7141 52.5229 10.7603 53.1956 11.1755C53.564 11.4216 54.0766 11.7139 54.3169 11.8369C54.5572 11.9445 55.1979 12.4214 55.7105 12.8828C56.6235 13.6673 56.6876 13.698 57.2002 13.5442C58.4816 13.1289 59.5548 11.7754 59.5548 10.5757C59.5389 9.96047 59.4748 9.86817 58.6578 9.23762C57.5526 8.39166 55.2299 6.91504 55.0057 6.91504C54.9095 6.91504 54.5411 7.06884 54.1888 7.26879ZM55.7105 7.99176C55.9027 8.11475 55.8387 8.25321 55.2779 8.79157C54.9095 9.16066 54.4931 9.71437 54.365 10.022C54.0607 10.7141 53.8844 10.8218 53.6281 10.5295C53.3237 10.1758 53.516 8.96071 53.9645 8.49931C54.5572 7.89946 55.2299 7.6995 55.7105 7.99176Z" fill="#333333"/>
<path d="M6.53493 19.1305C5.14136 19.4227 3.34729 20.3455 2.41828 21.2376C1.95372 21.6837 1.56928 22.0989 1.56928 22.1604C1.56928 22.2219 1.47323 22.3757 1.36101 22.4835C0.656315 23.1602 -0.144664 26.344 0.0315093 27.7283C0.544099 31.3889 2.38619 33.4807 5.8942 34.3882C7.39999 34.7726 10.3153 34.7266 11.4847 34.3112C12.4777 33.9575 12.6539 33.773 12.4617 33.2961C12.3976 33.127 12.2855 32.4963 12.2214 31.9273C12.1093 30.9582 12.0773 30.8967 11.7569 30.989C11.5807 31.0352 10.6196 31.112 9.64245 31.1736C7.43196 31.2813 6.53493 31.0505 5.49382 30.0662C4.56469 29.1741 4.22828 28.1282 4.32445 26.3901C4.43655 24.3291 5.18938 23.2525 6.9995 22.5911C8.00863 22.2374 9.85072 22.1912 10.9239 22.5142C11.3565 22.6526 11.789 22.7603 11.9011 22.7603C12.1253 22.7603 12.8142 19.8225 12.6219 19.638C12.5579 19.5611 11.9652 19.3766 11.3244 19.2073C9.99491 18.8689 7.91258 18.8382 6.53493 19.1305Z" fill="#333333"/>
<path d="M65.819 19.1573C62.3911 20.0341 60.1646 23.064 60.1485 26.8323C60.1325 31.0467 62.5353 33.9844 66.4917 34.5996C69.1667 34.9995 72.5307 33.646 73.8922 31.6004C74.9975 29.9392 75.3178 28.7703 75.3018 26.6478C75.2698 23.5101 73.8441 20.9415 71.4575 19.788C69.7275 18.942 67.5809 18.6959 65.819 19.1573ZM69.2469 22.5103C70.4803 23.2178 71.2492 24.8789 71.2492 26.8631C71.2492 29.6625 69.8235 31.5081 67.7091 31.4312C67.2286 31.4159 66.6039 31.2928 66.3316 31.1543C65.5307 30.7699 64.6978 29.647 64.3933 28.6012C64.3613 28.4781 64.3292 27.6783 64.3133 26.8323C64.2973 25.0174 64.6657 23.91 65.5787 23.0179C66.5077 22.0797 68.0935 21.8643 69.2469 22.5103Z" fill="#333333"/>
<path d="M16.8656 19.16C16.6893 19.1908 16.1287 19.2523 15.6321 19.2985L14.7031 19.3908V26.835V34.2794L15.6321 34.4024C16.1287 34.4639 17.7785 34.5254 19.2683 34.5254C23.449 34.5254 25.3232 34.064 26.7648 32.7105C27.3895 32.1106 27.6779 31.6954 27.8861 31.0494C28.2385 29.9573 28.2224 29.7113 27.838 28.65C27.4536 27.5887 27.005 27.112 25.8197 26.5428L24.9227 26.1122L25.4192 25.8199C25.7076 25.6508 25.9639 25.5277 25.9959 25.5277C26.1401 25.5277 26.7328 24.8971 27.1332 24.3434C27.6458 23.6051 27.6779 22.1593 27.1813 21.3748C26.1081 19.6369 24.2018 19.0524 19.7969 19.0832C18.3552 19.0985 17.0418 19.1293 16.8656 19.16ZM21.8953 22.0823C23.4651 22.3901 23.6573 24.128 22.1836 24.7279C21.9433 24.8355 21.1264 24.9125 20.3895 24.9125H19.028V23.5436C19.028 22.59 19.0921 22.144 19.2362 22.0978C19.5246 21.9747 21.3026 21.9747 21.8953 22.0823ZM22.4399 28.1886C23.1286 28.4808 23.5131 28.9884 23.5131 29.6497C23.5131 30.9417 22.52 31.5263 20.3415 31.5263H19.028V29.7882C19.028 28.8192 19.0761 27.9886 19.1562 27.9271C19.3324 27.7425 21.7991 27.9425 22.4399 28.1886Z" fill="#333333"/>
<path d="M47.7513 19.2217C47.1267 19.2832 46.5339 19.3909 46.4379 19.437C46.3097 19.5139 46.2617 21.8056 46.2617 26.9121V34.2949L46.6301 34.3718C46.8223 34.418 47.8154 34.4333 48.8246 34.418L50.6666 34.3718L50.6987 31.8648L50.7307 29.373L52.4607 29.2961C55.5523 29.1884 57.6667 28.2195 58.5477 26.5275C59.9092 23.9128 58.9641 20.9443 56.4172 19.8216C54.7995 19.1141 51.2433 18.868 47.7513 19.2217ZM53.4859 22.2979C54.2869 22.5132 54.7674 23.0669 54.8635 23.8821C54.9435 24.4665 54.8795 24.6665 54.5111 25.1433C53.8864 25.9277 53.566 26.0508 52.0763 26.1431L50.7628 26.2199L50.7148 24.2512C50.6827 23.1592 50.6987 22.2364 50.7307 22.2055C50.8589 22.0826 52.9253 22.1441 53.4859 22.2979Z" fill="#333333"/>
<path d="M33.0612 21.0222C32.7248 22.022 32.3564 23.1139 32.2443 23.4523C32.1321 23.7907 31.8758 24.5444 31.6835 25.1443C31.139 26.8822 29.6172 31.4965 29.1207 32.9116C28.576 34.4804 28.4959 34.4189 30.8827 34.4342C33.1253 34.4496 33.1893 34.4189 33.4135 33.5576C33.5256 33.1577 33.7339 32.3579 33.8941 31.7887L34.1824 30.7428H36.5531C37.8507 30.7275 38.9398 30.7583 38.9719 30.789C38.9879 30.8044 39.2442 31.5581 39.5325 32.4501C39.8209 33.3422 40.1252 34.1573 40.2213 34.2651C40.3494 34.4189 40.9261 34.4651 42.56 34.4342C43.7614 34.4189 44.7866 34.3881 44.8346 34.3573C44.8826 34.3266 44.4341 32.8961 43.8254 31.1889C43.2167 29.4663 42.5759 27.6513 42.4158 27.1438C42.2556 26.6362 41.5668 24.6521 40.8781 22.714L39.6287 19.2227H36.6492H33.6538L33.0612 21.0222ZM37.2099 24.1445C37.5303 25.2058 37.8987 26.3285 38.0268 26.6516C38.4433 27.6975 38.4433 27.6975 36.6172 27.6513C34.9673 27.6052 34.9673 27.6052 34.9834 27.2206C35.0314 26.5285 36.377 21.9758 36.5051 22.0988C36.5692 22.1603 36.8896 23.0832 37.2099 24.1445Z" fill="#333333"/>
<path d="M76.8545 26.7583V34.2948L77.2389 34.3871C77.9437 34.5563 81.0994 34.3871 81.1153 34.1717C81.1314 34.0795 81.1474 31.4186 81.1635 28.2963L81.1794 22.6054H84.4632H87.7469V20.9135V19.2217H82.3008H76.8545V26.7583Z" fill="#333333"/>
<path d="M18.3896 37.0784C18.3896 37.1706 18.694 37.8166 19.0625 38.4934C22.3783 44.7073 27.9206 49.3677 34.6482 51.6132C38.0441 52.7668 40.5429 53.1205 44.4835 53.0129C48.5041 52.9206 50.8587 52.4438 54.5749 50.9519C60.3094 48.6909 65.3713 44.1228 68.3187 38.6011C68.687 37.8783 69.0074 37.2168 69.0074 37.1091C69.0074 36.9553 67.1493 36.9092 60.0852 36.9092H51.1791L49.5612 37.6628C47.3667 38.6934 46.0212 38.9857 43.6184 38.9702C41.2958 38.9549 39.8221 38.6164 37.7237 37.6013L36.3302 36.9092H27.3599C20.9526 36.9092 18.3896 36.9553 18.3896 37.0784ZM29.8587 37.9704C33.3988 42.0464 38.9892 44.3689 44.5795 44.092C45.5567 44.046 46.8541 43.9075 47.4628 43.7691C51.051 43.0307 54.8472 40.9544 57.1379 38.4781C58.099 37.4167 58.1791 37.3706 58.8518 37.3706C59.2362 37.3706 59.5566 37.4322 59.5566 37.509C59.5566 37.586 59.2202 38.032 58.8198 38.4934L58.099 39.3548L58.8839 40.0931C59.3164 40.493 59.7488 40.9697 59.8609 41.139C60.0212 41.4311 60.0852 41.4004 60.758 40.6775C61.5108 39.8777 63.0807 37.7245 63.0807 37.509C63.0807 37.4322 63.4491 37.3706 63.8815 37.3706C64.33 37.3706 64.6825 37.4167 64.6825 37.4783C64.6825 37.9397 62.4399 40.9236 61.0143 42.354C57.5223 45.8454 53.4056 48.0295 48.2637 49.0908C46.1493 49.5215 41.6482 49.5677 39.4537 49.1523C34.3759 48.2141 29.6505 45.7224 26.2065 42.1541C25.2455 41.139 22.7146 37.7705 22.7146 37.4783C22.7146 37.4167 23.067 37.3706 23.4995 37.3706C24.2684 37.3706 24.3004 37.386 24.7329 38.0935C25.4537 39.2933 27.1837 41.3696 27.456 41.3696C27.5361 41.3696 27.7603 41.1082 27.9686 40.7852C28.1769 40.4775 28.5933 40.0315 28.8817 39.8162L29.4263 39.4163L28.6254 38.4781C28.1928 37.9704 27.8405 37.509 27.8405 37.4629C27.8405 37.3552 28.6895 37.2784 29.0579 37.3706C29.2501 37.4167 29.6024 37.6783 29.8587 37.9704ZM27.44 37.8321C27.8084 38.2165 27.6482 38.8625 27.1196 39.0933C26.2866 39.4471 25.5178 38.3858 26.1745 37.7705C26.511 37.4322 27.0876 37.4629 27.44 37.8321ZM61.2866 38.0166C61.5429 38.5549 61.3186 39.0163 60.7419 39.1548C60.2293 39.2778 59.7168 38.8472 59.7168 38.2782C59.7168 37.4475 60.9022 37.2629 61.2866 38.0166Z" fill="#333333"/>
<path d="M29.9863 39.7392C28.7849 40.2467 27.6797 41.6924 27.6797 42.7692C27.6797 42.9076 28.0481 43.3537 28.5126 43.7536C29.5538 44.6456 32.1328 46.2913 32.4851 46.2913C32.8856 46.2913 34.055 45.43 34.4073 44.861C34.8558 44.1842 35.0961 43.2767 34.9679 42.7845C34.8879 42.4769 34.5035 42.1385 33.5584 41.5541C32.8376 41.108 31.9245 40.462 31.54 40.1391C30.7552 39.4623 30.7071 39.4469 29.9863 39.7392ZM33.8947 42.8768C34.1351 43.5228 33.9588 44.1073 33.3341 44.6917C32.9336 45.0763 32.6614 45.2147 32.2448 45.2147C31.9566 45.2147 31.6682 45.1531 31.6202 45.0916C31.5721 45.0148 31.8284 44.6917 32.1647 44.3688C32.5172 44.0304 32.9177 43.4767 33.0618 43.1076C33.3662 42.3384 33.6705 42.2616 33.8947 42.8768Z" fill="#333333"/>
<path d="M55.4702 40.4488C54.8615 40.9563 53.9325 41.587 53.4358 41.8638C52.5388 42.356 52.5229 42.3868 52.5068 43.0328C52.5068 43.3866 52.6029 43.9095 52.731 44.2017C53.0355 44.9246 53.9325 45.8475 54.5732 46.0936C55.0857 46.3089 55.1498 46.2935 56.095 45.7398C57.2322 45.063 58.6419 44.0479 59.2826 43.448C59.9714 42.7712 59.8111 41.7408 58.818 40.618C58.3695 40.1104 57.2963 39.526 56.8318 39.5413C56.7036 39.5413 56.095 39.9566 55.4702 40.4488ZM58.0331 41.1101C58.6578 41.71 58.8661 42.3098 58.6578 42.879C58.4336 43.5095 58.1452 43.448 57.8089 42.7251C57.6487 42.356 57.2483 41.8176 56.9279 41.5408C56.191 40.8487 56.191 40.6026 56.9279 40.6026C57.3604 40.6026 57.6326 40.7257 58.0331 41.1101Z" fill="#333333"/>
<path d="M35.2398 44.2621C35.1437 44.5852 34.8073 45.1234 34.503 45.4618L33.9424 46.0925L35.1918 46.5847C36.3451 47.0461 39.0521 47.8305 39.4687 47.8305C39.5808 47.8305 39.6929 47.3999 39.741 46.7077C39.789 46.1079 39.8531 45.4772 39.8851 45.308C39.9172 45.0773 39.741 44.9851 38.8119 44.739C38.2032 44.5852 37.21 44.2929 36.6014 44.0776C36.0087 43.8469 35.4961 43.6777 35.4641 43.6777C35.4481 43.6777 35.336 43.9392 35.2398 44.2621ZM37.9789 45.2312C38.2032 45.585 37.9789 46.2617 37.5945 46.3693C36.7456 46.6308 36.0888 45.9387 36.4893 45.2004C36.6334 44.9543 36.7936 44.9081 37.2421 44.9389C37.5625 44.9696 37.8829 45.0927 37.9789 45.2312Z" fill="#333333"/>
<path d="M50.346 44.2307C49.5611 44.5075 48.584 44.7845 48.2156 44.8306C47.5909 44.9383 47.5268 44.9844 47.623 45.2767C47.671 45.4458 47.7671 46.1072 47.8152 46.707C47.9112 47.8144 47.9112 47.8299 48.3277 47.7376C49.8815 47.3992 50.8106 47.1223 52.06 46.6455L53.4857 46.1072L53.0691 45.5843C52.8289 45.292 52.5085 44.7383 52.3323 44.3692C52.156 43.9846 51.9638 43.6924 51.8997 43.6924C51.8357 43.7077 51.1469 43.9385 50.346 44.2307ZM50.6504 44.9536C51.0028 45.1997 50.9547 46.1072 50.5703 46.3379C50.2019 46.5532 49.497 46.3379 49.3849 45.9687C49.2247 45.5228 49.4169 44.9382 49.7533 44.8613C50.2339 44.7383 50.3621 44.7536 50.6504 44.9536Z" fill="#333333"/>
<path d="M40.9432 44.6588C40.1424 45.2432 39.9181 47.3042 40.5429 48.3656C40.8952 48.9808 40.9113 48.9808 42.0966 49.0884C43.2338 49.1807 45.6206 49.1192 46.3734 48.9654C47.1904 48.8115 47.6549 46.7505 47.1423 45.5662C46.6458 44.4434 46.6618 44.4434 43.7946 44.4434C41.9043 44.4588 41.1355 44.505 40.9432 44.6588ZM45.989 45.4893C46.886 46.4429 46.6137 48.0118 45.4764 48.3656C45.108 48.4732 45.092 48.4577 45.2201 47.8887C45.3804 47.0889 45.3963 46.489 45.2362 45.7815C45.1241 45.274 45.14 45.2125 45.4123 45.2125C45.5885 45.2125 45.8448 45.3355 45.989 45.4893Z" fill="#333333"/>
</svg>
