<svg width="841" height="839" viewBox="0 0 841 839" fill="none" xmlns="http://www.w3.org/2000/svg">
<path fill-rule="evenodd" clip-rule="evenodd" d="M456.764 20.722C526.165 44.0117 574.332 106.979 643.85 129.922C751.758 165.535 818.922 215.77 836.651 273.371C854.38 330.972 815.912 365.066 757.426 457.806C723.447 511.684 781.934 593.444 757.425 652.21C715.587 752.527 689.834 811.721 586.232 833.321C482.629 854.922 373.28 810.987 282.626 767.412C197.152 726.327 75.2876 810.059 12.4926 719.78C-50.3025 629.502 144.474 561.045 136.363 477.191C128.386 394.721 36.6454 264.795 65.4477 187.079C96.9682 102.029 172.657 85.2184 249.938 37.428C327.349 -10.4422 370.432 -8.24916 456.764 20.722Z" fill="#2CE8F4"/>
</svg>
