<svg width="750" height="803" viewBox="0 0 750 803" fill="none" xmlns="http://www.w3.org/2000/svg">
<path fill-rule="evenodd" clip-rule="evenodd" d="M314 59C396.5 59 398.5 8.04166 500 1.04164C601.5 -5.95838 561.02 82.6231 609.5 172.787C656.363 259.943 723.5 256 746 358C768.5 460 681.497 524.986 659.378 578.038C621.619 668.6 563.745 724.144 486.067 784.29C414.324 839.84 312.314 751.338 230.5 712C153.361 674.91 66.7187 665.683 17.9166 595.5C-25.5385 533.007 25.2365 452.7 17.9167 377C10.7177 302.55 -8.07688 242.946 17.9168 172.787C46.3636 96.0067 18.7546 56.6433 88.5002 13.5001C158.362 -29.7152 231.5 59 314 59Z" fill="#2CE8F4"/>
</svg>
