<svg width="50" height="65" viewBox="0 0 50 65" fill="none" xmlns="http://www.w3.org/2000/svg">
<path d="M49.4 24.7C49.4 38.3414 24.7 65 24.7 65C24.7 65 0 38.3414 0 24.7C0 11.0586 11.0586 0 24.7 0C38.3414 0 49.4 11.0586 49.4 24.7Z" fill="#1D3B4F"/>
<path d="M26.6915 15.5085L24.7646 5.99999L22.8378 15.5083L17.2457 11.4146L17.9949 18.3046L8.79672 15.2191L16.0678 21.642L9.72661 24.438L16.068 27.2341L8.79672 33.6572L17.9949 30.5716L17.2457 37.4615L22.8377 33.3679L24.7646 42.8763L26.6915 33.3676L32.2839 37.4615L31.5347 30.5718L40.7325 33.6572L33.4614 27.2342L39.803 24.438L33.4615 21.6419L40.7325 15.2191L31.5347 18.3045L32.2839 11.4146L26.6915 15.5085Z" fill="url(#paint0_linear_504_3297)"/>
<defs>
<linearGradient id="paint0_linear_504_3297" x1="24.7" y1="0" x2="58.8557" y2="19.6476" gradientUnits="userSpaceOnUse">
<stop stop-color="#CEA115"/>
<stop offset="0.489583" stop-color="#F8CC15"/>
<stop offset="1" stop-color="#CEA115"/>
</linearGradient>
</defs>
</svg>
