<svg width="184" height="73" viewBox="0 0 184 73" fill="none" xmlns="http://www.w3.org/2000/svg">
<g clip-path="url(#clip0_407_3588)">
<path d="M61.4731 50.2172C62.553 50.2172 63.4169 49.9606 63.9784 49.4045C64.5831 48.8484 64.8423 48.0785 64.8423 47.0091C64.8423 46.4102 64.7127 45.8542 64.4536 45.4692C64.2376 45.127 63.9352 44.8703 63.5465 44.6992C63.8488 44.5281 64.1512 44.2715 64.324 43.9293C64.5831 43.5443 64.7127 43.031 64.7127 42.5177C64.7127 41.5339 64.4104 40.8067 63.8056 40.2934C63.2009 39.7801 62.337 39.5234 61.2139 39.5234H57.8447V50.2172H61.4731ZM60.2204 41.5339H61.2571C61.6459 41.5339 61.9482 41.6194 62.121 41.7905C62.2938 41.9616 62.3802 42.3038 62.3802 42.7316C62.3802 43.5443 61.9914 43.9293 61.2139 43.9293H60.2204V41.5339ZM60.2204 45.6831H61.6027C62.2074 45.7258 62.5098 46.1536 62.5098 47.0091C62.5098 47.3941 62.4234 47.7363 62.2506 47.9501C62.0778 48.164 61.8187 48.2496 61.4731 48.2496H60.2204V45.6831Z" fill="#333333"/>
<path d="M69.7667 50.3448C70.9761 50.3448 71.9696 49.9598 72.6175 49.1471C73.3087 48.3343 73.6542 47.2222 73.6542 45.8106V44.0141C73.6542 42.5597 73.3087 41.4048 72.6175 40.592C71.9264 39.7793 70.9761 39.3516 69.7667 39.3516C68.5572 39.3516 67.5637 39.7793 66.8726 40.592C66.1815 41.4048 65.8359 42.5597 65.8359 44.0141V45.8106C65.8359 47.2222 66.1815 48.3343 66.8726 49.1043C67.6069 49.9598 68.5572 50.3448 69.7667 50.3448ZM68.1685 43.9713C68.1685 43.073 68.298 42.4314 68.5572 42.0036C68.8164 41.5759 69.2051 41.4048 69.7235 41.4048C70.2418 41.4048 70.6306 41.6186 70.8898 42.0464C71.1489 42.4741 71.2785 43.1585 71.2785 44.0996V45.8962C71.2785 46.7517 71.1489 47.3933 70.8898 47.821C70.6306 48.206 70.2418 48.4199 69.7235 48.4199C69.1619 48.4199 68.7732 48.206 68.5572 47.821C68.298 47.3933 68.1685 46.7517 68.1685 45.8534V43.9713Z" fill="#333333"/>
<path d="M76.5483 49.7039C76.9803 49.3617 77.3258 48.8056 77.5418 48.0785C77.7578 47.3513 77.8874 46.3675 77.9738 45.127L78.1033 41.5339H79.8311V50.2172H82.2069V39.5234H75.8572L75.7276 44.6564C75.6844 45.9825 75.5548 46.8808 75.3821 47.3941C75.2093 47.8646 74.9069 48.164 74.5182 48.2068L74.1726 48.2496V50.2172H74.8205C75.5117 50.2172 76.1164 50.0461 76.5483 49.7039Z" fill="#333333"/>
<path d="M87.2606 50.3448C88.47 50.3448 89.4635 49.9598 90.1114 49.1471C90.8026 48.3343 91.1481 47.2222 91.1481 45.8106V44.0141C91.1481 42.5597 90.8026 41.4048 90.1114 40.592C89.4203 39.7793 88.47 39.3516 87.2606 39.3516C86.0511 39.3516 85.0576 39.7793 84.3665 40.592C83.6754 41.4048 83.3298 42.5597 83.3298 44.0141V45.8106C83.3298 47.2222 83.6754 48.3343 84.3665 49.1043C85.1008 49.9598 86.0511 50.3448 87.2606 50.3448ZM85.7056 43.9713C85.7056 43.073 85.8351 42.4314 86.0943 42.0036C86.3535 41.5759 86.7422 41.4048 87.2606 41.4048C87.7789 41.4048 88.1677 41.6186 88.4268 42.0464C88.686 42.4741 88.8156 43.1585 88.8156 44.0996V45.8962C88.8156 46.7517 88.686 47.3933 88.4268 47.821C88.1677 48.206 87.7789 48.4199 87.2606 48.4199C86.699 48.4199 86.3103 48.206 86.0943 47.821C85.8351 47.3933 85.7056 46.7517 85.7056 45.8534V43.9713Z" fill="#333333"/>
<path d="M94.6902 41.5339H98.4913V39.5234H92.3577V50.2172H94.6902V41.5339Z" fill="#333333"/>
<path d="M97.6274 48.2496L97.757 52.7837H100.003V50.2172H104.798V52.7837H106.958L107.174 48.2496H106.094V39.5234H99.8304L99.528 44.4853C99.4416 45.4692 99.312 46.3247 99.1393 46.9235C98.9665 47.5224 98.7505 47.9501 98.4481 48.2068H97.6274V48.2496ZM101.817 44.3142L101.99 41.5339H103.675V48.2496H100.91C101.385 47.2657 101.688 45.9397 101.817 44.3142Z" fill="#333333"/>
<path d="M110.284 48.0785H113.005L113.566 50.2172H116.072L112.746 39.609L112.703 39.5234H110.586L107.217 50.2172H109.722L110.284 48.0785ZM111.666 42.9027L112.53 46.1108H110.845L111.666 42.9027Z" fill="#333333"/>
<path d="M135.294 41.3623C134.775 41.3623 134.386 41.5762 134.127 41.9612C133.868 42.3889 133.739 43.0305 133.739 43.9288V45.7681C133.739 46.6664 133.868 47.308 134.127 47.7358C134.386 48.1208 134.775 48.3346 135.294 48.3346C135.812 48.3346 136.201 48.1635 136.46 47.7358C136.719 47.3508 136.849 46.6664 136.849 45.8109V44.0144C136.849 43.0733 136.719 42.3889 136.46 41.9612C136.244 41.5762 135.855 41.3623 135.294 41.3623Z" fill="#333333"/>
<path d="M163.327 46.1105H165.055L164.191 42.9023L163.327 46.1105Z" fill="#333333"/>
<path d="M183.758 36.4006H54.3029C54.3029 35.374 54.2165 34.3902 54.0005 33.4064C53.3526 30.1554 51.5816 27.1184 49.0331 24.9369L48.558 24.5519L48.0396 24.1669C47.6941 23.9103 47.3485 23.6964 47.0029 23.4825L46.0095 22.8837C45.7071 22.6698 45.4047 22.4559 45.1024 22.2421C43.8929 21.301 42.8562 20.2316 41.9491 18.9911C41.042 17.7507 40.3509 16.4246 39.8326 14.9703L39.6598 14.4142L39.487 13.8581C39.3574 13.4732 39.3142 13.131 39.2278 12.746C39.1415 12.361 39.0983 11.976 39.0551 11.5911C39.0119 11.42 39.0119 11.2061 39.0119 11.035L38.9687 10.7355V10.6072V10.5217V10.4789C38.8823 10.4789 39.1847 10.4789 38.7527 10.4789C38.3208 10.4789 38.6231 10.4789 38.5367 10.4789V10.5217V10.6072V10.7355V11.035C38.5367 11.2488 38.5367 11.42 38.5367 11.6338C38.5799 12.0188 38.5367 12.4466 38.6231 12.8315C38.6663 13.2165 38.7095 13.6443 38.7959 14.0292L38.9255 14.6281L39.0983 15.2269C39.5302 16.7668 40.1781 18.3067 41.0852 19.6755C41.9491 21.0443 43.0722 22.2848 44.3248 23.3542C44.6272 23.6109 44.9728 23.8675 45.3183 24.1242L46.3118 24.8086C46.6142 25.0224 46.9165 25.2363 47.2189 25.4502L47.6509 25.7924L48.0828 26.1774C49.2059 27.1612 50.113 28.3589 50.8473 29.6421C51.5816 30.9254 52.1431 32.337 52.4023 33.7913C52.5751 34.6896 52.6615 35.5879 52.6615 36.4862H49.897C49.897 31.952 47.1325 28.0595 43.1586 26.3912V24.8086L38.7095 20.1461V29.7277C42.4243 29.7277 45.4911 32.722 45.4911 36.4434H38.0616V0.640625H37.6296V10.4361C36.593 10.3078 35.5131 10.8639 35.2107 12.0616L35.0379 12.6604C34.1308 16.2963 29.509 17.5368 26.8741 14.842L26.4421 14.4142C24.8439 12.746 22.0795 14.3287 22.6842 16.553L22.857 17.1518C23.8936 20.7449 20.5244 24.0814 16.8961 23.0548L16.3345 22.8837C14.0884 22.2421 12.4902 24.9797 14.1748 26.6051L14.6067 27.0329C17.328 29.6421 16.0754 34.1763 12.4038 35.1174L11.7991 35.2885C11.0647 35.4596 10.5896 35.9301 10.3304 36.4434H0.00683594V36.8711H10.244C9.98487 37.9405 10.5032 39.2238 11.8422 39.566L12.447 39.7371C16.1185 40.6353 17.3712 45.2123 14.6499 47.8216L14.218 48.2493C12.5334 49.832 14.1316 52.5696 16.3777 51.9707L16.9824 51.7996C20.6108 50.773 23.98 54.1095 22.9433 57.7026L22.7706 58.3015C22.1226 60.5258 24.8871 62.1085 26.5285 60.4402L26.9605 60.0125C29.5954 57.3176 34.174 58.5581 35.1243 62.194L35.2971 62.7929C35.5995 63.9906 36.6793 64.5466 37.716 64.4183V72.2889H38.148V54.4945H183.801V36.4006H183.758ZM52.5751 36.8284C52.5319 38.7532 52.0567 40.6353 51.236 42.3891C49.9402 45.084 47.7804 47.3083 45.1024 48.7198C43.7633 49.4042 42.3379 49.9175 40.8261 50.1742L39.703 50.3025L38.5799 50.3453H38.2776H38.0616V47.3938C38.2776 47.3938 38.4935 47.3938 38.7095 47.3938C44.6704 47.3938 49.5514 42.6886 49.7674 36.8284H52.5751ZM45.4479 36.8284C45.2319 40.3359 42.2947 43.1163 38.7095 43.1163C38.4935 43.1163 38.2776 43.1163 38.0616 43.0735V36.8284H45.4479ZM37.6296 43.0308C34.5628 42.5175 32.1871 39.9509 31.9711 36.8284H37.6296V43.0308ZM37.3705 20.7877C37.4569 20.7877 37.5432 20.7877 37.6296 20.7877V36.4006H31.9711H27.6516H20.654C21.1724 27.6745 28.4723 20.7877 37.3705 20.7877ZM37.3705 53.9384C28.1267 53.9384 20.6108 46.4955 20.6108 37.3417C20.6108 37.1706 20.6108 36.9995 20.6108 36.7856H27.6516C27.8676 42.3036 32.1871 46.7522 37.6296 47.2655V50.217H37.4137L36.8521 50.1742L36.2906 50.0886C34.7788 49.8748 33.3101 49.4042 31.9711 48.7198C30.6321 48.0354 29.3794 47.0944 28.2563 46.025C26.0534 43.8863 24.6712 40.9348 24.1528 37.8977L23.9368 37.9405C24.196 41.1059 25.4487 44.2285 27.6516 46.6239C29.8113 49.0193 32.7918 50.773 36.0746 51.3291L36.6793 51.4575L37.2841 51.5002L37.5864 51.543V53.9384C37.5432 53.9384 37.4569 53.9384 37.3705 53.9384ZM119.657 53.9384H38.0616V51.5858H38.2344H38.5367H39.7894L41.042 51.4575C42.6834 51.2436 44.2817 50.7303 45.7935 50.0031C48.7739 48.506 51.2792 46.0678 52.7047 43.0735C53.655 41.1486 54.2165 38.9671 54.2597 36.8284H119.657V53.9384ZM130.931 41.5336H128.339V50.217H125.963V41.5336H123.415V39.566H130.974V41.5336H130.931ZM139.224 45.8111C139.224 47.2227 138.879 48.3776 138.187 49.1476C137.496 49.9603 136.546 50.3453 135.293 50.3453C134.084 50.3453 133.134 49.9603 132.399 49.1476C131.708 48.3776 131.363 47.2655 131.363 45.8539V44.0574C131.363 42.603 131.708 41.4481 132.399 40.6353C133.09 39.8226 134.041 39.3949 135.293 39.3949C136.503 39.3949 137.453 39.8226 138.144 40.6353C138.835 41.4481 139.181 42.603 139.181 44.0574V45.8111H139.224ZM147.95 50.217H145.617V46.2817C145.099 46.3672 144.58 46.4528 144.148 46.4528C142.982 46.4528 142.075 46.1533 141.427 45.5545C140.822 44.9556 140.477 44.1001 140.434 42.988V39.5232H142.809V42.8596C142.809 43.4585 142.896 43.8863 143.112 44.1001C143.284 44.314 143.63 44.4423 144.148 44.4423C144.624 44.4423 145.142 44.3996 145.617 44.2712V39.5232H147.95V50.217ZM159.051 50.217H156.675V47.2655L156.848 43.8007L154.947 50.217H153.349L151.448 43.8007L151.621 47.2655V50.217H149.289V39.5232H152.269L154.17 46.7522L156.07 39.5232H159.051V50.217ZM166.135 50.217L165.573 48.0782H162.852L162.29 50.217H159.785L163.154 39.5232H165.271L165.314 39.6087L168.683 50.217H166.135ZM180.087 50.217H169.201V39.5232H171.577V48.2493H173.521V39.5232H175.853V48.2493H177.754V39.5232H180.087V50.217Z" fill="#333333"/>
<path d="M58.4928 30.0701H59.7886V32.3372H60.1342V29.8135H58.1904V32.3372H58.4928V30.0701Z" fill="#333333"/>
<path d="M60.955 32.1659C61.0845 32.2942 61.2573 32.3798 61.5165 32.3798C61.7325 32.3798 61.9052 32.2942 62.078 32.1231C62.2508 31.952 62.294 31.6954 62.294 31.4387V31.3959C62.294 31.0965 62.2076 30.8399 62.078 30.6688C61.9484 30.4977 61.7757 30.4121 61.5165 30.4121C61.3005 30.4121 61.0845 30.4977 60.955 30.6688V30.4549H60.6526V33.0642H60.9981V32.1659H60.955ZM60.955 30.9682C61.0413 30.7971 61.2141 30.7115 61.3869 30.7115C61.5597 30.7115 61.6893 30.7543 61.7757 30.8826C61.862 31.011 61.9052 31.1821 61.9052 31.3959C61.9052 31.6526 61.862 31.8237 61.7757 31.952C61.6893 32.0803 61.5597 32.1231 61.3869 32.1231C61.1709 32.1231 61.0413 32.0376 60.955 31.8665V30.9682Z" fill="#333333"/>
<path d="M63.4171 32.3796C63.5899 32.3796 63.7627 32.3368 63.8922 32.2512C64.0218 32.1657 64.1082 32.0374 64.1946 31.909C64.281 31.7807 64.281 31.6096 64.281 31.3957V31.353C64.281 31.0535 64.1946 30.8397 64.0218 30.6258C63.8491 30.4119 63.6331 30.3691 63.3739 30.3691C63.2011 30.3691 63.0715 30.4119 62.942 30.4975C62.8124 30.583 62.726 30.7113 62.6396 30.8397C62.5532 30.968 62.51 31.1391 62.51 31.353V31.3957C62.51 31.6952 62.5964 31.909 62.7692 32.1229C62.942 32.3368 63.1579 32.3796 63.4171 32.3796ZM63.0283 30.8824C63.1147 30.7541 63.2443 30.7113 63.4171 30.7113C63.5899 30.7113 63.7195 30.7969 63.8059 30.9252C63.8922 31.0535 63.9354 31.2246 63.9354 31.4385C63.9354 31.6524 63.8922 31.8663 63.8059 31.9946C63.7195 32.1229 63.5899 32.2085 63.4171 32.2085C63.2443 32.2085 63.1147 32.1657 63.0283 32.0374C62.942 31.909 62.8988 31.7379 62.8988 31.5241C62.8556 31.1819 62.942 31.0108 63.0283 30.8824Z" fill="#333333"/>
<path d="M65.8791 30.9684V32.3372H66.2247V30.4551H65.8791L65.0152 31.8239V30.4551H64.6697V32.3372H65.0152L65.8791 30.9684Z" fill="#333333"/>
<path d="M67.391 32.1231C67.2614 32.1231 67.1751 32.0803 67.0887 32.0376C67.0023 31.952 66.9591 31.9092 66.9591 31.7809H66.6135C66.6135 31.952 66.6999 32.1231 66.8295 32.2087C66.9591 32.2942 67.1751 32.3798 67.391 32.3798C67.607 32.3798 67.7798 32.337 67.9526 32.2087C68.1253 32.0803 68.1685 31.952 68.1685 31.7809C68.1685 31.567 68.039 31.3959 67.823 31.3532C67.9094 31.3104 67.9958 31.2676 68.039 31.1821C68.0822 31.0965 68.1253 31.0537 68.1253 30.9682C68.1253 30.7971 68.0822 30.6688 67.9526 30.5404C67.823 30.4121 67.6502 30.4121 67.4342 30.4121C67.2183 30.4121 67.0455 30.4549 66.9159 30.5832C66.7863 30.6688 66.6999 30.8399 66.6999 30.9682H67.0455C67.0455 30.8826 67.0887 30.7971 67.1751 30.7543C67.2614 30.7115 67.3478 30.6688 67.4774 30.6688C67.607 30.6688 67.6934 30.7115 67.7798 30.7543C67.8662 30.7971 67.8662 30.8826 67.8662 30.9682C67.8662 31.1393 67.7366 31.2248 67.5206 31.2248H67.1751V31.4815H67.5206C67.6502 31.4815 67.7366 31.5243 67.823 31.567C67.9094 31.6098 67.9094 31.6954 67.9094 31.7809C67.9094 31.8665 67.8662 31.952 67.7798 31.9948C67.607 32.0803 67.4774 32.1231 67.391 32.1231Z" fill="#333333"/>
<path d="M69.9396 32.2087C70.0692 32.1231 70.1124 31.9948 70.1124 31.8237C70.1124 31.6954 70.0692 31.6098 70.026 31.5243C69.9396 31.4387 69.8532 31.3959 69.7668 31.3532C69.8532 31.3104 69.9396 31.2676 69.9828 31.1821C70.026 31.0965 70.0692 31.0537 70.0692 30.9254C70.0692 30.7543 69.9828 30.626 69.8532 30.5404C69.7236 30.4549 69.5076 30.4121 69.2485 30.4121H68.5142V32.2942H69.3781C69.6372 32.337 69.81 32.2942 69.9396 32.2087ZM68.8597 30.7115H69.2917C69.594 30.7115 69.7236 30.7971 69.7236 30.9682C69.7236 31.1393 69.5508 31.2248 69.2485 31.2248H68.8165V30.7115H68.8597ZM68.8597 31.5243H69.3781C69.6372 31.5243 69.81 31.6098 69.81 31.8237C69.81 31.9092 69.7668 31.9948 69.7236 32.0376C69.6372 32.0803 69.5508 32.1231 69.4213 32.1231H68.8597V31.5243Z" fill="#333333"/>
<path d="M71.3216 32.3796C71.4944 32.3796 71.6672 32.3368 71.7968 32.2512C71.9264 32.1657 72.0128 32.0374 72.0992 31.909C72.1855 31.7807 72.1856 31.6096 72.1856 31.3957V31.353C72.1856 31.0535 72.0992 30.8397 71.9264 30.6258C71.7536 30.4119 71.5376 30.3691 71.2785 30.3691C71.1057 30.3691 70.9761 30.4119 70.8465 30.4975C70.7169 30.583 70.6305 30.7113 70.5441 30.8397C70.4577 30.968 70.4146 31.1391 70.4146 31.353V31.3957C70.4146 31.6952 70.5009 31.909 70.6737 32.1229C70.8465 32.3368 71.0625 32.3796 71.3216 32.3796ZM70.9329 30.8824C71.0193 30.7541 71.1489 30.7113 71.3216 30.7113C71.4944 30.7113 71.624 30.7969 71.7104 30.9252C71.7968 31.0535 71.84 31.2246 71.84 31.4385C71.84 31.6524 71.7968 31.8663 71.7104 31.9946C71.624 32.1229 71.4944 32.2085 71.3216 32.2085C71.1489 32.2085 71.0193 32.1657 70.9329 32.0374C70.8465 31.909 70.8033 31.7379 70.8033 31.5241C70.7601 31.1819 70.8033 31.0108 70.9329 30.8824Z" fill="#333333"/>
<path d="M72.5743 32.3372H73.9134V32.8933H74.2589V32.0805H73.9998V30.4551H72.7471L72.7039 31.225C72.7039 31.5672 72.6175 31.7811 72.4879 31.9522L72.3583 32.0805H72.2288V32.8933H72.5743V32.3372ZM73.0495 31.225V30.7545H73.6542V32.0805H72.7903C72.9631 31.8667 73.0495 31.5672 73.0495 31.225Z" fill="#333333"/>
<path d="M75.3388 32.38C75.4684 32.38 75.5979 32.3372 75.7275 32.2944C75.8571 32.2516 75.9435 32.1661 75.9867 32.0805C76.0299 31.995 76.0731 31.8667 76.1163 31.7811H75.8139C75.8139 31.8667 75.7707 31.995 75.6843 32.0378C75.5979 32.0805 75.5116 32.1233 75.382 32.1233C75.2092 32.1233 75.0796 32.0805 74.9932 31.9522C74.9068 31.8239 74.8636 31.6528 74.8636 31.4389V31.3961C74.8636 31.1823 74.9068 31.0112 74.9932 30.8828C75.0796 30.7545 75.2092 30.7117 75.382 30.7117C75.5116 30.7117 75.5979 30.7545 75.6843 30.8401C75.7707 30.9256 75.8139 31.0112 75.8139 31.1395H76.1163C76.1163 30.9256 76.0299 30.7545 75.9003 30.6262C75.7707 30.4979 75.5979 30.4551 75.382 30.4551C75.2092 30.4551 75.0364 30.4979 74.9068 30.5834C74.7772 30.669 74.6908 30.7545 74.6045 30.9256C74.5181 31.0967 74.5181 31.225 74.5181 31.4389C74.5181 31.7383 74.6045 31.9522 74.734 32.1661C74.8636 32.2944 75.0796 32.38 75.3388 32.38Z" fill="#333333"/>
<path d="M76.8508 32.3372H77.1964V30.7117H77.8443V30.4551H76.2461V30.7117H76.8508V32.3372Z" fill="#333333"/>
<path d="M79.5719 32.2087C79.7015 32.1231 79.7447 31.9948 79.7447 31.8237C79.7447 31.6954 79.7015 31.6098 79.6583 31.5243C79.5719 31.4387 79.4855 31.3959 79.3991 31.3532C79.4855 31.3104 79.5719 31.2676 79.6151 31.1821C79.6583 31.0965 79.7015 31.0537 79.7015 30.9254C79.7015 30.7543 79.6151 30.626 79.4855 30.5404C79.3559 30.4549 79.14 30.4121 78.8808 30.4121H78.1465V32.2942H79.0104C79.2264 32.337 79.4423 32.2942 79.5719 32.2087ZM78.492 30.7115H78.924C79.2264 30.7115 79.3559 30.7971 79.3559 30.9682C79.3559 31.1393 79.1832 31.2248 78.8808 31.2248H78.4489V30.7115H78.492ZM78.492 31.5243H79.0104C79.2696 31.5243 79.4423 31.6098 79.4423 31.8237C79.4423 31.9092 79.3991 31.9948 79.3559 32.0376C79.2696 32.0803 79.1832 32.1231 79.0536 32.1231H78.492V31.5243Z" fill="#333333"/>
<path d="M80.911 32.3796C81.0838 32.3796 81.2566 32.3368 81.3861 32.2512C81.5157 32.1657 81.6021 32.0374 81.6885 31.909C81.7749 31.7807 81.7749 31.6096 81.7749 31.3957V31.353C81.7749 31.0535 81.6885 30.8397 81.5157 30.6258C81.343 30.4119 81.127 30.3691 80.8678 30.3691C80.695 30.3691 80.5654 30.4119 80.4359 30.4975C80.3063 30.583 80.2199 30.7113 80.1335 30.8397C80.0471 30.968 80.0039 31.1391 80.0039 31.353V31.3957C80.0039 31.6952 80.0903 31.909 80.2631 32.1229C80.4359 32.3368 80.6518 32.3796 80.911 32.3796ZM80.5222 30.8824C80.6086 30.7541 80.7382 30.7113 80.911 30.7113C81.0838 30.7113 81.2134 30.7969 81.2998 30.9252C81.3861 31.0535 81.4293 31.2246 81.4293 31.4385C81.4293 31.6524 81.3861 31.8663 81.2998 31.9946C81.2134 32.1229 81.0838 32.2085 80.911 32.2085C80.7382 32.2085 80.6086 32.1657 80.5222 32.0374C80.4359 31.909 80.3927 31.7379 80.3927 31.5241C80.3927 31.1819 80.4359 31.0108 80.5222 30.8824Z" fill="#333333"/>
<path d="M83.3731 30.7117H84.237V32.3372H84.5826V30.4551H83.0276V32.3372H83.3731V30.7117Z" fill="#333333"/>
<path d="M85.8351 32.3796C86.0078 32.3796 86.1806 32.3368 86.3102 32.2512C86.4398 32.1657 86.5262 32.0374 86.6126 31.909C86.699 31.7807 86.699 31.6096 86.699 31.3957V31.353C86.699 31.0535 86.6126 30.8397 86.4398 30.6258C86.267 30.4119 86.051 30.3691 85.7919 30.3691C85.6191 30.3691 85.4895 30.4119 85.3599 30.4975C85.2303 30.583 85.1439 30.7113 85.0576 30.8397C84.9712 30.968 84.928 31.1391 84.928 31.353V31.3957C84.928 31.6952 85.0144 31.909 85.1871 32.1229C85.3599 32.3368 85.5759 32.3796 85.8351 32.3796ZM85.4463 30.8824C85.5327 30.7541 85.6623 30.7113 85.8351 30.7113C86.0078 30.7113 86.1374 30.7969 86.2238 30.9252C86.3102 31.0535 86.3534 31.2246 86.3534 31.4385C86.3534 31.6524 86.3102 31.8663 86.2238 31.9946C86.1374 32.1229 86.0078 32.2085 85.8351 32.2085C85.6623 32.2085 85.5327 32.1657 85.4463 32.0374C85.3599 31.909 85.3167 31.7379 85.3167 31.5241C85.3167 31.1819 85.3599 31.0108 85.4463 30.8824Z" fill="#333333"/>
<path d="M87.1312 32.3372H88.4703V32.8933H88.8158V32.0805H88.5566V30.4551H87.304L87.2608 31.225C87.2608 31.5672 87.1744 31.7811 87.0448 31.9522L86.9152 32.0805H86.7856V32.8933H87.1312V32.3372ZM87.6064 31.225V30.7545H88.2111V32.0805H87.3472C87.4768 31.8667 87.5632 31.5672 87.6064 31.225Z" fill="#333333"/>
<path d="M89.4204 32.3372H90.2411C90.4571 32.3372 90.6299 32.2944 90.7595 32.1661C90.8891 32.0378 90.9754 31.9094 90.9754 31.6956C90.9754 31.5245 90.9322 31.3534 90.8027 31.2678C90.6731 31.1395 90.5003 31.0967 90.2843 31.0967H89.766V30.4551H88.8589V30.7117H89.4204V32.3372ZM89.766 31.3534H90.2843C90.4139 31.3534 90.5003 31.3961 90.5435 31.4389C90.6299 31.5245 90.6299 31.61 90.6299 31.6956C90.6299 31.8239 90.5867 31.9094 90.5435 31.9522C90.4571 31.995 90.3707 32.0378 90.2411 32.0378H89.766V31.3534Z" fill="#333333"/>
<path d="M92.4008 30.1557C92.444 30.1557 92.5304 30.1557 92.5304 30.1129C92.5736 30.0701 92.5736 30.0274 92.5736 29.9846C92.5736 29.9418 92.5736 29.899 92.5304 29.8563C92.4872 29.8135 92.444 29.8135 92.4008 29.8135C92.3576 29.8135 92.2712 29.8135 92.2712 29.8563C92.2712 29.899 92.228 29.9418 92.228 29.9846C92.228 30.0274 92.228 30.0701 92.2712 30.1129C92.3144 30.1557 92.3144 30.1557 92.4008 30.1557Z" fill="#333333"/>
<path d="M91.6232 30.1127C91.6664 30.1127 91.7528 30.1127 91.7528 30.0699C91.796 30.0272 91.796 29.9844 91.796 29.9416C91.796 29.8988 91.796 29.8561 91.7528 29.8133C91.7096 29.7705 91.6664 29.7705 91.6232 29.7705C91.58 29.7705 91.4936 29.7705 91.4936 29.8133C91.4504 29.8561 91.4504 29.8988 91.4504 29.9416C91.4504 29.9844 91.4504 30.0272 91.4936 30.0699C91.5368 30.1127 91.58 30.1127 91.6232 30.1127Z" fill="#333333"/>
<path d="M92.0553 32.3796C92.3577 32.3796 92.6168 32.2512 92.7896 31.9946L92.5736 31.8235C92.5304 31.909 92.4441 31.9518 92.3577 31.9946C92.2713 32.0374 92.1849 32.0801 92.0553 32.0801C91.8825 32.0801 91.7529 32.0374 91.6665 31.909C91.5801 31.7807 91.4938 31.6524 91.4938 31.4385H92.7896V31.3102C92.7896 31.0108 92.7032 30.7541 92.5736 30.6258C92.4441 30.4547 92.2281 30.3691 92.0121 30.3691C91.8393 30.3691 91.7097 30.4119 91.5801 30.4975C91.4506 30.583 91.3642 30.7113 91.2778 30.8397C91.1914 30.968 91.1482 31.1391 91.1482 31.353V31.4385C91.1482 31.7379 91.2346 31.9518 91.4074 32.1229C91.5801 32.294 91.7961 32.3796 92.0553 32.3796ZM91.6665 30.8397C91.7529 30.7541 91.8825 30.7113 92.0121 30.7113C92.1417 30.7113 92.2713 30.7541 92.3577 30.8397C92.4441 30.9252 92.4872 31.0535 92.4872 31.2246V31.2674H91.5369C91.5369 31.0535 91.5801 30.9252 91.6665 30.8397Z" fill="#333333"/>
<path d="M93.4806 30.9256L94.1285 32.3372H94.3445L94.9492 30.9684V32.3372H95.2948V30.4551H94.8628L94.2149 31.9094L93.567 30.4551H93.1782V32.3372H93.4806V30.9256Z" fill="#333333"/>
<path d="M96.1156 31.5245H97.0227V32.3372H97.325V30.4551H97.0227V31.2678H96.1156V30.4551H95.8132V32.3372H96.1156V31.5245Z" fill="#333333"/>
<path d="M98.621 32.3796C98.7937 32.3796 98.9665 32.3368 99.0961 32.2512C99.2257 32.1657 99.3121 32.0374 99.3985 31.909C99.4849 31.7807 99.4849 31.6096 99.4849 31.3957V31.353C99.4849 31.0535 99.3985 30.8397 99.2257 30.6258C99.0529 30.4119 98.8369 30.3691 98.5778 30.3691C98.405 30.3691 98.2754 30.4119 98.1458 30.4975C98.0162 30.583 97.9298 30.7113 97.8435 30.8397C97.7571 30.968 97.7139 31.1391 97.7139 31.353V31.3957C97.7139 31.6952 97.8003 31.909 97.973 32.1229C98.1458 32.3368 98.3618 32.3796 98.621 32.3796ZM98.189 30.8824C98.2754 30.7541 98.405 30.7113 98.5778 30.7113C98.7505 30.7113 98.8801 30.7969 98.9665 30.9252C99.0529 31.0535 99.0961 31.2246 99.0961 31.4385C99.0961 31.6524 99.0529 31.8663 98.9665 31.9946C98.8801 32.1229 98.7505 32.2085 98.5778 32.2085C98.405 32.2085 98.2754 32.1657 98.189 32.0374C98.1026 31.909 98.0594 31.7379 98.0594 31.5241C98.0594 31.1819 98.1026 31.0108 98.189 30.8824Z" fill="#333333"/>
<path d="M100.521 31.1387H99.6575V31.3953H100.521V31.1387Z" fill="#333333"/>
<path d="M101.256 32.3372H101.558V30.7117H102.206V30.4551H100.608V30.7117H101.256V32.3372Z" fill="#333333"/>
<path d="M102.811 32.1659C102.94 32.2942 103.113 32.3798 103.372 32.3798C103.588 32.3798 103.761 32.2942 103.934 32.1231C104.107 31.952 104.15 31.6954 104.15 31.4387V31.3959C104.15 31.0965 104.064 30.8399 103.934 30.6688C103.804 30.4977 103.632 30.4121 103.372 30.4121C103.156 30.4121 102.94 30.4977 102.811 30.6688V30.4549H102.509V33.0642H102.854V32.1659H102.811ZM102.811 30.9682C102.897 30.7971 103.07 30.7115 103.243 30.7115C103.416 30.7115 103.545 30.7543 103.632 30.8826C103.718 31.011 103.761 31.1821 103.761 31.3959C103.761 31.6526 103.718 31.8237 103.632 31.952C103.545 32.0803 103.416 32.1231 103.243 32.1231C103.027 32.1231 102.897 32.0376 102.811 31.8665V30.9682Z" fill="#333333"/>
<path d="M105.316 31.1821C105.057 31.1821 104.841 31.2248 104.668 31.3532C104.495 31.4815 104.452 31.6098 104.452 31.8237C104.452 31.9948 104.495 32.1231 104.625 32.2087C104.755 32.2942 104.884 32.3798 105.1 32.3798C105.316 32.3798 105.489 32.2942 105.662 32.1659C105.662 32.2514 105.705 32.337 105.705 32.3798H106.05V32.337C106.007 32.2514 105.964 32.0803 105.964 31.9092V31.0537C105.964 30.8826 105.878 30.7115 105.748 30.5832C105.618 30.4549 105.446 30.4121 105.23 30.4121C105.1 30.4121 104.97 30.4549 104.841 30.4977C104.711 30.5404 104.625 30.626 104.582 30.7115C104.495 30.7971 104.495 30.8826 104.495 30.9682H104.841C104.841 30.8826 104.884 30.7971 104.97 30.7543C105.057 30.7115 105.143 30.6688 105.273 30.6688C105.402 30.6688 105.489 30.7115 105.575 30.7543C105.662 30.8399 105.662 30.9254 105.662 31.011V31.1393H105.316V31.1821ZM105.618 31.8237C105.575 31.9092 105.532 31.9948 105.402 32.0376C105.273 32.0803 105.23 32.1231 105.1 32.1231C105.014 32.1231 104.884 32.0803 104.841 32.0376C104.755 31.9948 104.755 31.9092 104.755 31.7809C104.755 31.567 104.97 31.4387 105.359 31.4387H105.618V31.8237Z" fill="#333333"/>
<path d="M106.785 31.5245H107.649V32.3372H107.994V30.4551H107.649V31.2678H106.785V30.4551H106.439V32.3372H106.785V31.5245Z" fill="#333333"/>
<path d="M109.204 32.38C109.333 32.38 109.463 32.3372 109.593 32.2944C109.722 32.2516 109.808 32.1661 109.852 32.0805C109.895 31.995 109.938 31.8667 109.981 31.7811H109.679C109.679 31.8667 109.636 31.995 109.549 32.0378C109.463 32.0805 109.377 32.1233 109.247 32.1233C109.074 32.1233 108.945 32.0805 108.858 31.9522C108.772 31.8239 108.729 31.6528 108.729 31.4389V31.3961C108.729 31.1823 108.772 31.0112 108.858 30.8828C108.945 30.7545 109.074 30.7117 109.247 30.7117C109.377 30.7117 109.463 30.7545 109.549 30.8401C109.636 30.9256 109.679 31.0112 109.679 31.1395H109.981C109.981 30.9256 109.895 30.7545 109.765 30.6262C109.636 30.4979 109.463 30.4551 109.247 30.4551C109.074 30.4551 108.901 30.4979 108.772 30.5834C108.642 30.669 108.556 30.7545 108.469 30.9256C108.383 31.0967 108.383 31.225 108.383 31.4389C108.383 31.7383 108.469 31.9522 108.599 32.1661C108.772 32.2944 108.945 32.38 109.204 32.38Z" fill="#333333"/>
<path d="M110.672 30.7117H111.536V32.3372H111.882V30.4551H110.327V32.3372H110.672V30.7117Z" fill="#333333"/>
<path d="M113.134 32.3796C113.307 32.3796 113.48 32.3368 113.61 32.2512C113.739 32.1657 113.826 32.0374 113.912 31.909C113.998 31.7807 113.998 31.6096 113.998 31.3957V31.353C113.998 31.0535 113.912 30.8397 113.739 30.6258C113.566 30.4119 113.35 30.3691 113.091 30.3691C112.918 30.3691 112.789 30.4119 112.659 30.4975C112.53 30.583 112.443 30.7113 112.357 30.8397C112.27 30.968 112.227 31.1391 112.227 31.353V31.3957C112.227 31.6952 112.314 31.909 112.486 32.1229C112.659 32.3368 112.875 32.3796 113.134 32.3796ZM112.746 30.8824C112.832 30.7541 112.962 30.7113 113.134 30.7113C113.307 30.7113 113.437 30.7969 113.523 30.9252C113.61 31.0535 113.653 31.2246 113.653 31.4385C113.653 31.6524 113.61 31.8663 113.523 31.9946C113.437 32.1229 113.307 32.2085 113.134 32.2085C112.962 32.2085 112.832 32.1657 112.746 32.0374C112.659 31.909 112.616 31.7379 112.616 31.5241C112.616 31.1819 112.659 31.0108 112.746 30.8824Z" fill="#333333"/>
<path d="M114.69 32.1659C114.819 32.2942 114.992 32.3798 115.251 32.3798C115.467 32.3798 115.64 32.2942 115.813 32.1231C115.985 31.952 116.029 31.6954 116.029 31.4387V31.3959C116.029 31.0965 115.942 30.8399 115.813 30.6688C115.683 30.4977 115.51 30.4121 115.251 30.4121C115.035 30.4121 114.819 30.4977 114.69 30.6688V30.4549H114.387V33.0642H114.733V32.1659H114.69ZM114.69 30.9682C114.776 30.7971 114.949 30.7115 115.122 30.7115C115.294 30.7115 115.424 30.7543 115.51 30.8826C115.597 31.011 115.64 31.1821 115.64 31.3959C115.64 31.6526 115.597 31.8237 115.51 31.952C115.424 32.0803 115.294 32.1231 115.122 32.1231C114.906 32.1231 114.776 32.0376 114.69 31.8665V30.9682Z" fill="#333333"/>
<path d="M116.677 32.3372H117.022V30.7117H117.67V30.4551H116.072V30.7117H116.677V32.3372Z" fill="#333333"/>
<path d="M118.275 31.5245H119.182V32.3372H119.484V30.4551H119.182V31.2678H118.275V30.4551H117.972V32.3372H118.275V31.5245Z" fill="#333333"/>
<path d="M120.737 32.3796C120.909 32.3796 121.082 32.3368 121.212 32.2512C121.341 32.1657 121.428 32.0374 121.514 31.909C121.601 31.7807 121.601 31.6096 121.601 31.3957V31.353C121.601 31.0535 121.514 30.8397 121.341 30.6258C121.169 30.4119 120.953 30.3691 120.693 30.3691C120.521 30.3691 120.391 30.4119 120.262 30.4975C120.132 30.583 120.046 30.7113 119.959 30.8397C119.873 30.968 119.83 31.1391 119.83 31.353V31.3957C119.83 31.6952 119.916 31.909 120.089 32.1229C120.262 32.3368 120.478 32.3796 120.737 32.3796ZM120.348 30.8824C120.434 30.7541 120.564 30.7113 120.737 30.7113C120.909 30.7113 121.039 30.7969 121.125 30.9252C121.212 31.0535 121.255 31.2246 121.255 31.4385C121.255 31.6524 121.212 31.8663 121.125 31.9946C121.039 32.1229 120.909 32.2085 120.737 32.2085C120.564 32.2085 120.434 32.1657 120.348 32.0374C120.262 31.909 120.218 31.7379 120.218 31.5241C120.218 31.1819 120.262 31.0108 120.348 30.8824Z" fill="#333333"/>
<path d="M122.335 30.7117H123.242V30.4551H122.033V32.3372H122.335V30.7117Z" fill="#333333"/>
<path d="M124.235 32.3796C124.408 32.3796 124.581 32.3368 124.711 32.2512C124.84 32.1657 124.927 32.0374 125.013 31.909C125.099 31.7807 125.099 31.6096 125.099 31.3957V31.353C125.099 31.0535 125.013 30.8397 124.84 30.6258C124.667 30.4119 124.451 30.3691 124.192 30.3691C124.019 30.3691 123.89 30.4119 123.76 30.4975C123.631 30.583 123.544 30.7113 123.458 30.8397C123.372 30.968 123.328 31.1391 123.328 31.353V31.3957C123.328 31.6952 123.415 31.909 123.588 32.1229C123.76 32.3368 123.976 32.3796 124.235 32.3796ZM123.804 30.8824C123.89 30.7541 124.019 30.7113 124.192 30.7113C124.365 30.7113 124.495 30.7969 124.581 30.9252C124.667 31.0535 124.711 31.2246 124.711 31.4385C124.711 31.6524 124.667 31.8663 124.581 31.9946C124.495 32.1229 124.365 32.2085 124.192 32.2085C124.019 32.2085 123.89 32.1657 123.804 32.0374C123.717 31.909 123.674 31.7379 123.674 31.5241C123.674 31.1819 123.717 31.0108 123.804 30.8824Z" fill="#333333"/>
<path d="M127.562 30.9684V32.3372H127.864V30.4551H127.562L126.654 31.8239V30.4551H126.352V32.3372H126.654L127.562 30.9684Z" fill="#333333"/>
<path d="M129.548 31.5245H130.456V32.3372H130.758V30.4551H130.456V31.2678H129.548V30.4551H129.246V32.3372H129.548V31.5245Z" fill="#333333"/>
<path d="M132.054 32.3796C132.356 32.3796 132.615 32.2512 132.788 31.9946L132.572 31.8235C132.529 31.909 132.443 31.9518 132.356 31.9946C132.27 32.0374 132.183 32.0801 132.054 32.0801C131.881 32.0801 131.751 32.0374 131.665 31.909C131.579 31.7807 131.492 31.6524 131.492 31.4385H132.788V31.3102C132.788 31.0108 132.702 30.7541 132.572 30.6258C132.443 30.4547 132.227 30.3691 132.011 30.3691C131.838 30.3691 131.708 30.4119 131.579 30.4975C131.449 30.583 131.363 30.7113 131.276 30.8397C131.19 30.968 131.147 31.1391 131.147 31.353V31.4385C131.147 31.7379 131.233 31.9518 131.406 32.1229C131.579 32.294 131.795 32.3796 132.054 32.3796ZM131.665 30.8397C131.751 30.7541 131.881 30.7113 132.011 30.7113C132.14 30.7113 132.27 30.7541 132.356 30.8397C132.443 30.9252 132.486 31.0535 132.486 31.2246V31.2674H131.535C131.535 31.0535 131.579 30.9252 131.665 30.8397Z" fill="#333333"/>
<path d="M133.911 32.38C134.041 32.38 134.17 32.3372 134.3 32.2944C134.43 32.2516 134.516 32.1661 134.559 32.0805C134.602 31.995 134.646 31.8667 134.689 31.7811H134.343C134.343 31.8667 134.3 31.995 134.214 32.0378C134.127 32.0805 134.041 32.1233 133.911 32.1233C133.738 32.1233 133.609 32.0805 133.523 31.9522C133.436 31.8239 133.393 31.6528 133.393 31.4389V31.3961C133.393 31.1823 133.436 31.0112 133.523 30.8828C133.609 30.7545 133.738 30.7117 133.911 30.7117C134.041 30.7117 134.127 30.7545 134.214 30.8401C134.3 30.9256 134.343 31.0112 134.343 31.1395H134.646C134.646 30.9256 134.559 30.7545 134.43 30.6262C134.3 30.4979 134.127 30.4551 133.911 30.4551C133.738 30.4551 133.566 30.4979 133.436 30.5834C133.307 30.669 133.22 30.7545 133.134 30.9256C133.047 31.0967 133.047 31.225 133.047 31.4389C133.047 31.7383 133.134 31.9522 133.263 32.1661C133.436 32.2944 133.652 32.38 133.911 32.38Z" fill="#333333"/>
<path d="M135.423 32.3372H135.769V30.7117H136.417V30.4551H134.818V30.7117H135.423V32.3372Z" fill="#333333"/>
<path d="M137.453 31.1821C137.194 31.1821 136.978 31.2248 136.805 31.3532C136.633 31.4815 136.589 31.6098 136.589 31.8237C136.589 31.9948 136.633 32.1231 136.762 32.2087C136.892 32.2942 137.021 32.3798 137.237 32.3798C137.453 32.3798 137.626 32.2942 137.799 32.1659C137.799 32.2514 137.842 32.337 137.842 32.3798H138.188V32.337C138.144 32.2514 138.101 32.0803 138.101 31.9092V31.0537C138.101 30.8826 138.015 30.7115 137.885 30.5832C137.756 30.4549 137.583 30.4121 137.367 30.4121C137.237 30.4121 137.108 30.4549 136.978 30.4977C136.849 30.5404 136.762 30.626 136.719 30.7115C136.633 30.7971 136.633 30.8826 136.633 30.9682H136.978C136.978 30.8826 137.021 30.7971 137.108 30.7543C137.194 30.7115 137.28 30.6688 137.41 30.6688C137.54 30.6688 137.626 30.7115 137.712 30.7543C137.799 30.8399 137.799 30.9254 137.799 31.011V31.1393H137.453V31.1821ZM137.799 31.8237C137.756 31.9092 137.712 31.9948 137.583 32.0376C137.453 32.0803 137.41 32.1231 137.28 32.1231C137.194 32.1231 137.065 32.0803 137.021 32.0376C136.978 31.9948 136.935 31.8665 136.935 31.7809C136.935 31.567 137.151 31.4387 137.54 31.4387H137.799V31.8237Z" fill="#333333"/>
<path d="M138.922 31.5245H139.829V32.3372H140.131V30.4551H139.829V31.2678H138.922V30.4551H138.619V32.3372H138.922V31.5245Z" fill="#333333"/>
<path d="M140.779 32.3372H142.118V32.8933H142.464V32.0805H142.205V30.4551H140.952L140.909 31.225C140.909 31.5672 140.822 31.7811 140.693 31.9522L140.563 32.0805H140.434V32.8933H140.779V32.3372ZM141.254 31.225V30.7545H141.859V32.0805H140.995C141.168 31.8667 141.254 31.5672 141.254 31.225Z" fill="#333333"/>
<path d="M143.587 31.1821C143.328 31.1821 143.112 31.2248 142.939 31.3532C142.766 31.4815 142.723 31.6098 142.723 31.8237C142.723 31.9948 142.766 32.1231 142.896 32.2087C143.025 32.2942 143.155 32.3798 143.371 32.3798C143.587 32.3798 143.76 32.2942 143.932 32.1659C143.932 32.2514 143.976 32.337 143.976 32.3798H144.321V32.337C144.278 32.2514 144.235 32.0803 144.235 31.9092V31.0537C144.235 30.8826 144.148 30.7115 144.019 30.5832C143.889 30.4549 143.716 30.4121 143.5 30.4121C143.371 30.4121 143.241 30.4549 143.112 30.4977C142.982 30.5404 142.896 30.626 142.852 30.7115C142.766 30.7971 142.766 30.8826 142.766 30.9682H143.112C143.112 30.8826 143.155 30.7971 143.241 30.7543C143.328 30.7115 143.414 30.6688 143.544 30.6688C143.673 30.6688 143.76 30.7115 143.846 30.7543C143.932 30.8399 143.932 30.9254 143.932 31.011V31.1393H143.587V31.1821ZM143.889 31.8237C143.846 31.9092 143.803 31.9948 143.673 32.0376C143.544 32.0803 143.5 32.1231 143.371 32.1231C143.284 32.1231 143.155 32.0803 143.112 32.0376C143.068 31.9948 143.025 31.9092 143.025 31.7809C143.025 31.567 143.241 31.4387 143.63 31.4387H143.889V31.8237Z" fill="#333333"/>
<path d="M145.012 32.1659C145.142 32.2942 145.315 32.3798 145.574 32.3798C145.79 32.3798 145.963 32.2942 146.135 32.1231C146.308 31.952 146.351 31.6954 146.351 31.4387V31.3959C146.351 31.0965 146.265 30.8399 146.135 30.6688C146.006 30.4977 145.833 30.4121 145.574 30.4121C145.358 30.4121 145.142 30.4977 145.012 30.6688V30.4549H144.71V33.0642H145.056V32.1659H145.012ZM145.012 30.9682C145.099 30.7971 145.272 30.7115 145.444 30.7115C145.617 30.7115 145.747 30.7543 145.833 30.8826C145.919 31.011 145.963 31.1821 145.963 31.3959C145.963 31.6526 145.919 31.8237 145.833 31.952C145.747 32.0803 145.617 32.1231 145.444 32.1231C145.228 32.1231 145.099 32.0376 145.012 31.8665V30.9682Z" fill="#333333"/>
<path d="M146.999 32.3372H147.345V30.7117H147.95V30.4551H146.351V30.7117H146.999V32.3372Z" fill="#333333"/>
<path d="M148.598 31.5245H149.461V32.3372H149.807V30.4551H149.461V31.2678H148.598V30.4551H148.252V32.3372H148.598V31.5245Z" fill="#333333"/>
<path d="M151.06 32.3796C151.232 32.3796 151.405 32.3368 151.535 32.2512C151.664 32.1657 151.751 32.0374 151.837 31.909C151.924 31.7807 151.924 31.6096 151.924 31.3957V31.353C151.924 31.0535 151.837 30.8397 151.664 30.6258C151.492 30.4119 151.276 30.3691 151.016 30.3691C150.844 30.3691 150.714 30.4119 150.585 30.4975C150.455 30.583 150.369 30.7113 150.282 30.8397C150.196 30.968 150.153 31.1391 150.153 31.353V31.3957C150.153 31.6952 150.239 31.909 150.412 32.1229C150.585 32.3368 150.801 32.3796 151.06 32.3796ZM150.671 30.8824C150.757 30.7541 150.887 30.7113 151.06 30.7113C151.232 30.7113 151.362 30.7969 151.448 30.9252C151.535 31.0535 151.578 31.2246 151.578 31.4385C151.578 31.6524 151.535 31.8663 151.448 31.9946C151.362 32.1229 151.232 32.2085 151.06 32.2085C150.887 32.2085 150.757 32.1657 150.671 32.0374C150.585 31.909 150.541 31.7379 150.541 31.5241C150.541 31.1819 150.585 31.0108 150.671 30.8824Z" fill="#333333"/>
<path d="M152.658 30.7117H153.565V30.4551H152.355V32.3372H152.658V30.7117Z" fill="#333333"/>
<path d="M154.515 32.3796C154.688 32.3796 154.861 32.3368 154.99 32.2512C155.12 32.1657 155.206 32.0374 155.293 31.909C155.379 31.7807 155.379 31.6096 155.379 31.3957V31.353C155.379 31.0535 155.293 30.8397 155.12 30.6258C154.947 30.4119 154.731 30.3691 154.472 30.3691C154.299 30.3691 154.17 30.4119 154.04 30.4975C153.911 30.583 153.824 30.7113 153.738 30.8397C153.651 30.968 153.608 31.1391 153.608 31.353V31.3957C153.608 31.6952 153.695 31.909 153.867 32.1229C154.04 32.3368 154.256 32.3796 154.515 32.3796ZM154.126 30.8824C154.213 30.7541 154.342 30.7113 154.515 30.7113C154.688 30.7113 154.818 30.7969 154.904 30.9252C154.99 31.0535 155.034 31.2246 155.034 31.4385C155.034 31.6524 154.99 31.8663 154.904 31.9946C154.818 32.1229 154.688 32.2085 154.515 32.2085C154.342 32.2085 154.213 32.1657 154.126 32.0374C154.04 31.909 153.997 31.7379 153.997 31.5241C153.997 31.1819 154.04 31.0108 154.126 30.8824Z" fill="#333333"/>
<path d="M157.409 32.3796C157.582 32.3796 157.755 32.3368 157.884 32.2512C158.014 32.1657 158.1 32.0374 158.187 31.909C158.273 31.7807 158.273 31.6096 158.273 31.3957V31.353C158.273 31.0535 158.187 30.8397 158.014 30.6258C157.841 30.4119 157.625 30.3691 157.366 30.3691C157.193 30.3691 157.064 30.4119 156.934 30.4975C156.805 30.583 156.718 30.7113 156.632 30.8397C156.545 30.968 156.502 31.1391 156.502 31.353V31.3957C156.502 31.6952 156.589 31.909 156.761 32.1229C156.934 32.3368 157.15 32.3796 157.409 32.3796ZM157.021 30.8824C157.107 30.7541 157.237 30.7113 157.409 30.7113C157.582 30.7113 157.712 30.7969 157.798 30.9252C157.884 31.0535 157.928 31.2246 157.928 31.4385C157.928 31.6524 157.884 31.8663 157.798 31.9946C157.712 32.1229 157.582 32.2085 157.409 32.2085C157.237 32.2085 157.107 32.1657 157.021 32.0374C156.934 31.909 156.891 31.7379 156.891 31.5241C156.891 31.1819 156.934 31.0108 157.021 30.8824Z" fill="#333333"/>
<path d="M159.439 32.3802C159.612 32.3802 159.742 32.3374 159.871 32.2519C160.001 32.1663 160.087 32.0808 160.174 31.9097C160.26 31.7386 160.26 31.6102 160.26 31.4391C160.26 31.1825 160.174 30.9686 160.044 30.7975C159.914 30.6264 159.698 30.5409 159.483 30.5409C159.223 30.5409 159.007 30.6264 158.835 30.8403C158.878 30.6692 158.921 30.4981 159.007 30.4125C159.094 30.2842 159.267 30.2414 159.439 30.1987L159.698 30.1559C159.828 30.1131 159.958 30.0703 160.001 29.9848C160.044 29.8992 160.087 29.7709 160.087 29.6426H159.828C159.828 29.7281 159.785 29.7709 159.742 29.8137C159.698 29.8565 159.569 29.8992 159.396 29.8992C159.094 29.942 158.878 30.1131 158.748 30.327C158.619 30.5409 158.532 30.8831 158.532 31.268V31.4391C158.532 31.7386 158.619 31.9524 158.748 32.1235C158.964 32.2946 159.18 32.3802 159.439 32.3802ZM158.921 31.4391C158.921 31.268 158.964 31.0969 159.051 31.0114C159.137 30.9258 159.267 30.8403 159.439 30.8403C159.612 30.8403 159.742 30.8831 159.828 31.0114C159.914 31.1397 159.958 31.268 159.958 31.4391C159.958 31.653 159.914 31.8241 159.828 31.9524C159.742 32.0808 159.612 32.1235 159.439 32.1235C159.267 32.1235 159.137 32.0808 159.051 31.9524C158.964 31.8241 158.921 31.653 158.921 31.4391Z" fill="#333333"/>
<path d="M161.383 32.3796C161.556 32.3796 161.729 32.3368 161.858 32.2512C161.988 32.1657 162.074 32.0374 162.161 31.909C162.247 31.7807 162.247 31.6096 162.247 31.3957V31.353C162.247 31.0535 162.161 30.8397 161.988 30.6258C161.815 30.4119 161.599 30.3691 161.34 30.3691C161.167 30.3691 161.038 30.4119 160.908 30.4975C160.778 30.583 160.692 30.7113 160.606 30.8397C160.519 30.968 160.476 31.1391 160.476 31.353V31.3957C160.476 31.6952 160.562 31.909 160.735 32.1229C160.908 32.3368 161.124 32.3796 161.383 32.3796ZM160.994 30.8824C161.081 30.7541 161.21 30.7113 161.383 30.7113C161.556 30.7113 161.686 30.7969 161.772 30.9252C161.858 31.0535 161.901 31.2246 161.901 31.4385C161.901 31.6524 161.858 31.8663 161.772 31.9946C161.686 32.1229 161.556 32.2085 161.383 32.2085C161.21 32.2085 161.081 32.1657 160.994 32.0374C160.908 31.909 160.865 31.7379 160.865 31.5241C160.865 31.1819 160.908 31.0108 160.994 30.8824Z" fill="#333333"/>
<path d="M162.938 32.1659C163.068 32.2942 163.24 32.3798 163.5 32.3798C163.716 32.3798 163.888 32.2942 164.061 32.1231C164.234 31.952 164.277 31.6954 164.277 31.4387V31.3959C164.277 31.0965 164.191 30.8399 164.061 30.6688C163.932 30.4977 163.759 30.4121 163.5 30.4121C163.284 30.4121 163.068 30.4977 162.938 30.6688V30.4549H162.636V33.0642H162.981V32.1659H162.938ZM162.938 30.9682C163.025 30.7971 163.197 30.7115 163.37 30.7115C163.543 30.7115 163.672 30.7543 163.759 30.8826C163.845 31.011 163.888 31.1821 163.888 31.3959C163.888 31.6526 163.845 31.8237 163.759 31.952C163.672 32.0803 163.543 32.1231 163.37 32.1231C163.154 32.1231 163.025 32.0376 162.938 31.8665V30.9682Z" fill="#333333"/>
<path d="M165.011 32.5075C164.968 32.6358 164.925 32.7214 164.839 32.7642C164.795 32.8069 164.709 32.8497 164.58 32.8497H164.493V33.1064L164.623 33.1491H164.666C164.925 33.1491 165.098 32.978 165.227 32.6786L166.005 30.4971H165.659L165.227 31.9086L164.752 30.4971H164.407L165.098 32.3792L165.011 32.5075Z" fill="#333333"/>
<path d="M166.005 32.8933H166.35V32.3372H167.69V32.8933H168.035V32.0805H167.776V30.4551H166.523L166.48 31.225C166.48 31.5672 166.394 31.7811 166.264 31.9522L166.134 32.0805H166.005V32.8933ZM166.826 31.225V30.7545H167.43V32.0805H166.566C166.696 31.8667 166.782 31.5672 166.826 31.225Z" fill="#333333"/>
<path d="M169.115 32.3796C169.288 32.3796 169.461 32.3368 169.59 32.2512C169.72 32.1657 169.806 32.0374 169.893 31.909C169.979 31.7807 169.979 31.6096 169.979 31.3957V31.353C169.979 31.0535 169.893 30.8397 169.72 30.6258C169.547 30.4119 169.331 30.3691 169.072 30.3691C168.899 30.3691 168.77 30.4119 168.64 30.4975C168.51 30.583 168.424 30.7113 168.338 30.8397C168.251 30.968 168.208 31.1391 168.208 31.353V31.3957C168.208 31.6952 168.294 31.909 168.467 32.1229C168.64 32.3368 168.856 32.3796 169.115 32.3796ZM168.726 30.8824C168.813 30.7541 168.942 30.7113 169.115 30.7113C169.288 30.7113 169.417 30.7969 169.504 30.9252C169.59 31.0535 169.633 31.2246 169.633 31.4385C169.633 31.6524 169.59 31.8663 169.504 31.9946C169.417 32.1229 169.288 32.2085 169.115 32.2085C168.942 32.2085 168.813 32.1657 168.726 32.0374C168.64 31.909 168.597 31.7379 168.597 31.5241C168.554 31.1819 168.597 31.0108 168.726 30.8824Z" fill="#333333"/>
<path d="M171.793 32.2087C171.923 32.1231 171.966 31.9948 171.966 31.8237C171.966 31.6954 171.923 31.6098 171.879 31.5243C171.793 31.4387 171.707 31.3959 171.62 31.3532C171.707 31.3104 171.793 31.2676 171.836 31.1821C171.879 31.0965 171.923 31.0537 171.923 30.9254C171.923 30.7543 171.836 30.626 171.707 30.5404C171.577 30.4549 171.361 30.4121 171.102 30.4121H170.368V32.2942H171.232C171.491 32.337 171.664 32.2942 171.793 32.2087ZM170.713 30.7115H171.145C171.448 30.7115 171.577 30.7971 171.577 30.9682C171.577 31.1393 171.404 31.2248 171.102 31.2248H170.67V30.7115H170.713ZM170.713 31.5243H171.232C171.491 31.5243 171.664 31.6098 171.664 31.8237C171.664 31.9092 171.62 31.9948 171.577 32.0376C171.534 32.0803 171.404 32.1231 171.275 32.1231H170.713V31.5243Z" fill="#333333"/>
<path d="M173.175 31.1821C172.916 31.1821 172.7 31.2248 172.527 31.3532C172.355 31.4815 172.312 31.6098 172.312 31.8237C172.312 31.9948 172.355 32.1231 172.484 32.2087C172.614 32.2942 172.743 32.3798 172.959 32.3798C173.175 32.3798 173.348 32.2942 173.521 32.1659C173.521 32.2514 173.564 32.337 173.564 32.3798H173.91V32.337C173.867 32.2514 173.823 32.0803 173.823 31.9092V31.0537C173.823 30.8826 173.737 30.7115 173.607 30.5832C173.478 30.4549 173.305 30.4121 173.089 30.4121C172.959 30.4121 172.83 30.4549 172.7 30.4977C172.571 30.5404 172.484 30.626 172.441 30.7115C172.355 30.7971 172.355 30.8826 172.355 30.9682H172.7C172.7 30.8826 172.743 30.7971 172.83 30.7543C172.916 30.7115 173.003 30.6688 173.132 30.6688C173.262 30.6688 173.348 30.7115 173.435 30.7543C173.521 30.8399 173.521 30.9254 173.521 31.011V31.1393H173.175V31.1821ZM173.478 31.8237C173.435 31.9092 173.391 31.9948 173.262 32.0376C173.132 32.0803 173.089 32.1231 172.959 32.1231C172.873 32.1231 172.743 32.0803 172.7 32.0376C172.657 31.9948 172.614 31.9092 172.614 31.7809C172.614 31.567 172.83 31.4387 173.219 31.4387H173.478V31.8237Z" fill="#333333"/>
<path d="M174.644 31.5245H175.508V32.3372H175.853V30.4551H175.508V31.2678H174.644V30.4551H174.342V32.3372H174.644V31.5245Z" fill="#333333"/>
<path d="M177.581 30.9684V32.3372H177.884V30.4551H177.581L176.674 31.8239V30.4551H176.372V32.3372H176.674L177.581 30.9684Z" fill="#333333"/>
<path d="M178.575 32.3372L179.007 31.61H179.482V32.3372H179.827V30.4551H179.007C178.791 30.4551 178.618 30.4979 178.488 30.6262C178.359 30.7117 178.272 30.8828 178.272 31.0539C178.272 31.1823 178.316 31.2678 178.359 31.3961C178.445 31.4817 178.532 31.5672 178.661 31.61L178.186 32.38H178.575V32.3372ZM178.661 31.0539C178.661 30.9684 178.704 30.8828 178.748 30.8401C178.834 30.7973 178.92 30.7545 179.05 30.7545H179.525V31.3961H179.007C178.92 31.3961 178.834 31.3534 178.748 31.3106C178.661 31.225 178.661 31.1395 178.661 31.0539Z" fill="#333333"/>
</g>
<defs>
<clipPath id="clip0_407_3588">
<rect width="183.751" height="71.52" fill="white" transform="translate(0.00683594 0.640625)"/>
</clipPath>
</defs>
</svg>
