<svg width="170" height="54" viewBox="0 0 170 54" fill="none" xmlns="http://www.w3.org/2000/svg">
<g clip-path="url(#clip0_407_3573)">
<path d="M25.9505 53.6176C11.6481 53.7679 -0.21502 41.4845 0.00672109 26.7971C0.228462 12.8985 11.5373 0.615088 26.4309 0.802907C40.6593 0.990726 52.2637 13.0112 52.0051 27.6986C51.7464 42.5363 39.5875 53.843 25.9505 53.6176ZM10.5025 46.8186C16.7851 52.378 27.2439 54.3689 36.2614 50.1618C45.1311 46.0298 51.3029 36.7891 50.7485 25.9331C50.4898 20.599 48.7159 15.7909 45.4637 11.5837C43.3202 8.84157 40.7332 6.6253 37.5919 4.93493C35.6332 14.3259 33.0831 23.3788 30.644 32.5819C35.4853 32.7322 40.2897 32.6195 45.0572 33.1078C45.0941 33.5586 45.168 33.8966 45.205 34.385C40.068 34.8733 35.0049 34.7982 29.9418 34.9109C29.6461 35.85 29.3874 36.7515 29.1287 37.6155C28.87 38.4043 28.6113 39.1556 28.3157 39.9068C28.2418 40.0571 28.02 40.2825 27.9461 40.2449C27.7613 40.2074 27.5766 40.0195 27.4657 39.8317C27.3548 39.6439 27.3548 39.381 27.3918 39.1931C27.4287 38.8175 27.5396 38.4043 27.6135 38.0287C27.7983 37.0144 28.02 36.0002 28.2048 34.9484C27.9831 34.9109 27.8722 34.8733 27.7613 34.8733C24.657 34.8733 21.5156 34.8733 18.4112 34.8733C17.9308 34.8733 17.746 35.1362 17.5243 35.4743C15.159 39.2307 12.8677 42.9871 10.5025 46.8186ZM7.98941 33.1454C8.5068 33.0702 8.91333 32.9951 9.35681 32.9575C11.5373 32.8824 13.7177 32.7697 15.8982 32.7322C16.6373 32.7322 17.0438 32.4692 17.4134 31.8306C20.1482 27.2103 22.92 22.6275 25.6918 18.0071C26.357 16.9178 27.0961 15.9036 27.8353 14.8893C28.1309 14.4761 28.6853 14.2508 28.87 14.4386C29.2396 14.7767 28.944 15.1147 28.7961 15.4152C27.2439 18.3076 25.7657 21.2376 24.1396 24.0925C22.6982 26.6844 21.1461 29.2012 19.6678 31.7555C19.52 31.9809 19.4091 32.2438 19.2613 32.5443C22.5135 32.5443 25.6178 32.5443 28.7592 32.5443C31.1614 23.0783 33.4897 13.6497 36.4093 4.40903C27.9092 -0.0610603 13.3112 0.953162 5.2546 13.4244C-2.09982 24.7686 1.26326 39.0053 9.46768 45.8795C11.5003 42.2358 13.496 38.5546 15.5656 34.8357C13.0155 34.6479 10.5394 34.7982 8.10028 34.3474C8.06332 33.8966 8.02637 33.5961 7.98941 33.1454Z" fill="#333333"/>
<path d="M145.506 23.1163C146.467 23.1163 147.428 23.0787 148.389 23.1163C149.091 23.1539 149.793 23.229 150.495 23.3793C152.048 23.7925 152.971 24.9194 153.045 26.5346C153.119 27.8869 153.119 29.2016 153.045 30.5539C152.971 32.2443 152.048 33.3337 150.421 33.7469C149.904 33.8971 149.35 34.0098 148.795 34.0098C146.282 34.0098 143.769 33.9722 141.256 33.9347C140.997 33.9347 140.739 33.8596 140.517 33.7844C138.928 33.3712 138.004 32.357 137.856 30.7042C137.745 29.3143 137.745 27.8869 137.856 26.497C137.967 24.8067 138.928 23.7549 140.591 23.3793C141.219 23.229 141.847 23.1539 142.513 23.1539C143.511 23.0787 144.508 23.1163 145.506 23.1163ZM145.432 31.1925C146.356 31.1925 147.28 31.2301 148.241 31.155C149.165 31.1174 149.571 30.6666 149.608 29.7275C149.645 28.9763 149.645 28.225 149.608 27.4737C149.571 26.497 149.202 26.0463 148.278 26.0087C146.43 25.9336 144.545 25.9336 142.697 26.0087C141.774 26.0463 141.404 26.497 141.367 27.4737C141.33 28.1499 141.33 28.8636 141.367 29.5397C141.404 30.7042 141.81 31.1174 142.956 31.1925C143.732 31.2301 144.582 31.1925 145.432 31.1925Z" fill="#333333"/>
<path d="M167.089 30.4777C167.828 31.3041 168.493 31.9803 169.122 32.7316C169.306 32.957 169.491 33.295 169.454 33.558C169.38 33.9712 168.974 34.0463 168.604 34.0839C167.976 34.0839 167.311 34.0839 166.682 34.0839C166.239 34.0839 165.906 33.8585 165.611 33.5204C165.019 32.8443 164.391 32.1681 163.837 31.4544C163.504 31.0412 163.135 30.8534 162.58 30.8534C161.361 30.8909 160.141 30.8534 158.885 30.8534C158.7 31.5295 158.774 32.1306 158.774 32.7316C158.737 33.8209 158.589 34.0463 157.48 34.0463C157.074 34.0463 156.63 34.0839 156.224 34.0463C155.485 33.9712 155.263 33.7458 155.263 32.9945C155.226 31.6798 155.263 30.3651 155.263 29.0879C155.263 27.5478 155.263 26.0076 155.263 24.4675C155.263 23.3406 155.484 23.1152 156.63 23.1152C159.513 23.1152 162.432 23.1152 165.315 23.1152C165.869 23.1152 166.461 23.2279 167.015 23.3782C168.272 23.7538 168.974 24.6178 169.085 25.9325C169.159 26.5711 169.122 27.2473 169.085 27.8858C168.974 29.1254 168.345 29.9519 167.089 30.4777ZM158.848 28.1864C160.843 28.1864 162.765 28.2239 164.687 28.1864C165.389 28.1864 165.611 27.8107 165.611 27.097C165.611 26.3833 165.389 26.0828 164.65 26.0452C162.802 26.0076 160.954 26.0452 159.069 26.0452C159.032 26.0452 158.958 26.1203 158.848 26.1579C158.848 26.7589 158.848 27.3975 158.848 28.1864Z" fill="#333333"/>
<path d="M93.6185 34.0844C93.1751 34.0844 92.8425 34.1219 92.5098 34.0844C91.6598 34.0093 91.4381 33.5961 91.8816 32.8448C92.6946 31.4925 93.5077 30.1777 94.3577 28.863C95.2447 27.4731 96.1316 26.0457 97.0186 24.6559C98.386 22.4772 101.343 22.4396 102.747 24.6183C104.447 27.2853 106.11 29.9524 107.81 32.6194C107.884 32.7696 107.995 32.8823 108.069 33.0326C108.327 33.5585 108.18 34.0093 107.625 34.0468C106.849 34.1219 105.999 34.1219 105.223 34.0468C104.927 34.0093 104.521 33.6336 104.373 33.3331C103.893 32.1686 103.043 31.9432 101.897 32.0184C100.382 32.0935 98.8664 32.0559 97.3512 32.0184C96.649 31.9808 96.1686 32.1686 95.8729 32.8072C95.4294 33.8966 94.6164 34.3098 93.6185 34.0844ZM97.9795 29.4265C98.7925 29.4265 99.3838 29.4265 99.9382 29.4265C100.529 29.4265 101.121 29.3889 101.749 29.3889C101.195 28.1493 100.345 26.9097 99.7903 26.4589C99.236 27.398 98.6816 28.3371 97.9795 29.4265Z" fill="#333333"/>
<path d="M132.682 28.3742C133.939 29.764 135.158 31.1163 136.378 32.4311C136.526 32.5813 136.71 32.7691 136.821 32.957C137.117 33.4077 137.043 33.8961 136.526 33.9336C135.565 34.0087 134.567 33.9712 133.569 33.8961C133.347 33.8961 133.126 33.5204 132.941 33.3326C132.128 32.4311 131.278 31.492 130.502 30.5529C130.058 30.027 129.578 29.8016 128.912 29.8016C128.247 29.8016 127.582 29.8016 126.806 29.8016C126.806 30.8158 126.806 31.7174 126.806 32.6565C126.806 33.8961 126.658 34.0463 125.402 34.0839C125.032 34.0839 124.699 34.1214 124.33 34.0839C123.48 34.0463 123.258 33.7834 123.258 32.9194C123.258 31.3042 123.258 29.7265 123.258 28.1112C123.258 26.9467 123.258 25.7447 123.258 24.5802C123.258 23.1904 123.332 23.1152 124.662 23.1152C125.032 23.1152 125.365 23.1152 125.734 23.1152C126.547 23.1528 126.769 23.3406 126.769 24.167C126.806 24.9934 126.769 25.8198 126.769 26.6087C126.769 26.7589 126.806 26.9092 126.843 27.2097C127.656 27.2097 128.469 27.2848 129.245 27.1721C129.578 27.1346 129.947 26.8341 130.169 26.5711C130.945 25.7447 131.684 24.8807 132.386 23.9792C132.904 23.3031 133.532 23.0025 134.382 23.0777C134.789 23.1152 135.232 23.0401 135.639 23.1152C135.934 23.1528 136.267 23.3031 136.452 23.5284C136.71 23.829 136.415 24.1295 136.193 24.3924C135.158 25.5945 134.086 26.7589 133.015 27.961C132.904 28.1112 132.793 28.2615 132.682 28.3742Z" fill="#333333"/>
<path d="M71.6294 0.87793C72.0359 0.87793 72.3685 0.87793 72.775 0.87793C72.775 18.4578 72.775 36.0001 72.775 53.58C72.3685 53.58 72.0359 53.58 71.6294 53.58C71.6294 36.0001 71.6294 18.4578 71.6294 0.87793Z" fill="#333333"/>
<path d="M117.086 34.1594C115.571 34.0842 114.056 34.0467 112.577 33.934C112.023 33.8964 111.432 33.7086 110.914 33.4832C109.695 32.9573 109.104 31.9055 109.03 30.6284C108.956 28.4121 108.993 26.1958 108.993 23.9796C108.993 23.3786 109.251 23.1907 109.843 23.1532C110.397 23.1156 110.951 23.1156 111.469 23.1532C112.245 23.1907 112.467 23.4161 112.467 24.2425C112.467 25.8578 112.467 27.5106 112.467 29.1258C112.467 30.9289 112.688 31.1543 114.462 31.1543C116.421 31.1543 118.38 31.1543 120.338 31.1543C121.521 31.1543 121.669 31.3421 121.669 32.5441C121.669 32.6568 121.669 32.8071 121.669 32.9198C121.632 33.8589 121.41 34.0842 120.523 34.1218C119.378 34.1594 118.195 34.1218 117.049 34.1218C117.086 34.1218 117.086 34.1594 117.086 34.1594Z" fill="#333333"/>
</g>
<defs>
<clipPath id="clip0_407_3573">
<rect width="169.447" height="52.8147" fill="white" transform="translate(0.00683594 0.802734)"/>
</clipPath>
</defs>
</svg>
