<svg width="64" height="49" viewBox="0 0 64 49" fill="none" xmlns="http://www.w3.org/2000/svg">
<g clip-path="url(#clip0_407_3695)">
<path d="M21.9253 23.4121C21.9253 23.4121 9.43311 30.499 9.43311 39.3111C9.43311 48.1232 20.9249 49.875 30.262 47.7781C30.262 47.7781 14.7173 49.3707 14.7173 40.187C14.7173 31.4279 31.7754 23.4121 31.7754 23.4121H21.9253Z" fill="#333333"/>
<path d="M18.7703 33.1001C22.4641 33.2859 26.4144 32.9143 30.0825 32.0915C30.0825 32.0915 25.1831 32.5958 20.1811 31.6934C19.6937 32.1446 19.2063 32.5958 18.7703 33.1001Z" fill="#333333"/>
<path d="M13.6657 29.3048C11.3314 27.7919 9.71541 25.5092 9.71541 22.1118C9.71541 10.6454 32.0834 0.161133 32.0834 0.161133H19.1294C19.1294 0.161133 2.78955 9.42446 2.78955 20.997C2.78955 26.7036 6.45769 30.1542 11.6393 31.8263C12.2036 31.0035 12.8962 30.1542 13.6657 29.3048Z" fill="#333333"/>
<path d="M10.6132 5.84123C13.6657 3.05426 16.7182 1.03704 18.129 0.161133H0.916992V5.86777L10.6132 5.84123C10.6132 5.86777 10.6132 5.86777 10.6132 5.84123Z" fill="#333333"/>
<path d="M33.3146 0.161133L32.2886 0.638898C32.186 0.691983 25.9784 3.6382 20.1812 8.04425V23.8901C21.0533 23.3062 21.6433 22.9877 21.6946 22.9611L21.7972 22.9081H21.9254H27.6457V5.86777H46.9098V0.161133H33.3146Z" fill="#333333"/>
<path d="M26.7478 31.694C27.0556 31.694 27.3634 31.694 27.6456 31.694V26.2793C25.5165 27.5533 22.9514 29.2521 20.7197 31.2427C22.8744 31.5878 25.0292 31.694 26.7478 31.694Z" fill="#333333"/>
<path d="M20.7455 33.658C20.5659 33.658 20.3607 33.658 20.1812 33.658V39.8158H27.6457V33.1006C25.3371 33.4722 22.9771 33.658 20.7455 33.658Z" fill="#333333"/>
<path d="M37.3674 27.3143H35.8027V31.4815H34.0328V27.3143H32.468V25.8545H37.3674V27.3143Z" fill="#333333"/>
<path d="M38.8552 25.8542C39.163 25.8277 39.4708 25.7746 39.7017 25.7746C39.9582 25.748 40.189 25.748 40.4199 25.748C40.4456 25.748 40.4712 25.748 40.4712 25.748C40.4969 25.748 40.5225 25.748 40.5225 25.748C40.6764 25.748 40.8816 25.748 41.0868 25.7746C41.292 25.8011 41.4973 25.8277 41.7281 25.9073C42.1642 26.04 42.549 26.2789 42.9081 26.6505C43.2672 27.0221 43.4468 27.606 43.4468 28.4288V31.4812H40.3942C40.2916 31.4812 40.1377 31.4812 39.9582 31.4547C39.7786 31.4281 39.5734 31.4016 39.3682 31.3485C39.0604 31.2689 38.8039 31.0831 38.5473 30.8442C38.2908 30.6053 38.1882 30.2337 38.1882 29.7294C38.1882 29.6763 38.1882 29.6498 38.1882 29.5967C38.1882 29.5436 38.1882 29.4905 38.2139 29.4375C38.2652 29.0659 38.4704 28.6943 38.7782 28.3758C39.1117 28.0572 39.6504 27.898 40.3942 27.898H41.1381C41.2151 28.0572 41.2664 28.2165 41.292 28.3492C41.3177 28.4819 41.3177 28.6412 41.3177 28.7739V28.8004V28.827V29.0393H40.8047C40.7534 29.0393 40.7277 29.0393 40.6764 29.0393C40.6251 29.0393 40.5738 29.0393 40.5225 29.0659C40.3942 29.0924 40.2916 29.1189 40.189 29.1986C40.0864 29.2782 40.0351 29.3844 40.0351 29.5436C40.0351 29.6763 40.0864 29.809 40.189 29.8887C40.2916 29.9683 40.4199 30.0214 40.5995 30.0214H41.6768V28.7208C41.6768 28.6412 41.6768 28.535 41.6768 28.4554C41.6768 28.3492 41.6512 28.243 41.6512 28.1369C41.5999 27.8714 41.4973 27.6326 41.292 27.4202C41.0868 27.2079 40.7277 27.1017 40.1634 27.1017C40.0864 27.1017 40.0095 27.1017 39.9325 27.1017C39.8556 27.1017 39.7786 27.1017 39.7017 27.1283C39.5734 27.1283 39.4451 27.1548 39.3169 27.1813C39.1886 27.2079 39.0347 27.2344 38.8808 27.2875V25.8542H38.8552Z" fill="#333333"/>
<path d="M46.8327 31.4815H45.0627V25.8545H46.8327V31.4815ZM50.3982 31.4815H48.6283V29.0927H47.2175V27.6859H48.6283V25.8545H50.3982V31.4815Z" fill="#333333"/>
<path d="M35.6488 39.9481C34.8023 39.9481 34.1354 39.6827 33.5967 39.1784C33.058 38.6741 32.7759 37.9574 32.7759 37.0019C32.7759 36.0464 33.058 35.3297 33.5967 34.8254C34.1354 34.3211 34.828 34.0557 35.6488 34.0557C36.4953 34.0557 37.1623 34.3211 37.7009 34.8254C38.2396 35.3297 38.5218 36.0464 38.5218 37.0019C38.5218 37.9574 38.2396 38.6741 37.7009 39.1784C37.1623 39.6827 36.4697 39.9216 35.6488 39.9481ZM35.7514 38.5148C35.7771 38.5148 35.8284 38.5148 35.854 38.4883C36.0592 38.4617 36.2388 38.329 36.4184 38.0901C36.5979 37.8778 36.6749 37.5062 36.6749 36.9753C36.6749 36.4445 36.5979 36.0729 36.4184 35.8606C36.2388 35.6482 36.0592 35.5155 35.854 35.4624C35.8284 35.4624 35.7771 35.4624 35.7514 35.4359C35.7258 35.4359 35.6745 35.4359 35.6488 35.4359C35.5975 35.4359 35.5206 35.4359 35.4436 35.4624C35.3667 35.4624 35.2897 35.5155 35.2128 35.542C35.0588 35.6217 34.9306 35.7544 34.8023 35.9667C34.6741 36.1791 34.6228 36.5241 34.6228 36.9488C34.6228 37.4 34.6741 37.7185 34.8023 37.9309C34.9306 38.1432 35.0588 38.2759 35.2128 38.3555C35.2897 38.4086 35.3667 38.4352 35.4436 38.4352C35.5206 38.4352 35.5975 38.4617 35.6488 38.4617C35.6745 38.5413 35.7001 38.5413 35.7514 38.5148Z" fill="#333333"/>
<path d="M42.4978 34.1885C42.5747 34.1885 42.7543 34.1885 43.0108 34.215C43.2673 34.2416 43.5495 34.2946 43.8316 34.4274C44.1651 34.5866 44.4986 34.8255 44.7807 35.1971C45.0629 35.5421 45.2168 36.0995 45.2168 36.7896C45.2168 37.639 44.9859 38.276 44.4986 38.7272C44.0112 39.1785 43.4725 39.4173 42.8569 39.4173C42.8312 39.4173 42.8056 39.4173 42.8056 39.4173C42.7799 39.4173 42.7543 39.4173 42.7543 39.4173C42.626 39.4173 42.4978 39.3908 42.3695 39.3908C42.2413 39.3908 42.1386 39.3643 42.0617 39.3643V37.9575C42.1386 37.9841 42.19 37.9841 42.2669 38.0106C42.3182 38.0106 42.3952 38.0371 42.4465 38.0371C42.4978 38.0371 42.5491 38.0371 42.626 38.0106C42.703 38.0106 42.7799 37.9841 42.8569 37.931C42.9851 37.8779 43.1134 37.7717 43.2417 37.5859C43.3699 37.4267 43.4212 37.1612 43.4212 36.8427C43.4212 36.4446 43.3443 36.1526 43.1904 35.9934C43.0364 35.8341 42.8569 35.7014 42.6773 35.6483C42.5747 35.6218 42.4721 35.5952 42.3695 35.5952C42.2669 35.5952 42.19 35.5952 42.113 35.5952H41.7026V40.134H39.907V34.1885H42.4978Z" fill="#333333"/>
<path d="M50.4754 35.6483H48.372V39.8155H46.6021V34.1885H50.4754V35.6483Z" fill="#333333"/>
<path d="M37.8805 47.9641C37.5983 48.0172 37.3418 48.0703 37.0597 48.0968C36.7775 48.1234 36.4697 48.1499 36.1362 48.1499C35.0845 48.1499 34.238 47.8845 33.648 47.3536C33.0581 46.8228 32.7502 46.1061 32.7502 45.2037C32.7502 44.2481 33.0324 43.505 33.6224 43.0272C34.2124 42.5494 34.905 42.3105 35.7515 42.3105C35.9054 42.3105 36.0593 42.3105 36.2388 42.3371C36.4184 42.3636 36.5979 42.3902 36.7519 42.4433C37.1879 42.576 37.5727 42.8414 37.9318 43.2661C38.2909 43.6908 38.4705 44.3809 38.4705 45.3629C38.4705 45.3895 38.4705 45.416 38.4705 45.4426C38.4705 45.4691 38.4705 45.4956 38.4705 45.5222C38.4705 45.5487 38.4705 45.5753 38.4705 45.6018C38.4705 45.6284 38.4705 45.6549 38.4705 45.6814H35.1102C35.1102 45.6814 35.0845 45.6549 35.0845 45.6284C35.0845 45.6018 35.0589 45.6018 35.0589 45.5753C35.0332 45.5222 35.0076 45.4426 34.9819 45.3629C34.9563 45.2833 34.9563 45.1771 34.9563 45.0975C34.9563 45.0444 34.9563 44.9648 34.9563 44.8852C34.9563 44.8055 34.9819 44.6994 35.0076 44.5932H36.7775C36.7775 44.3012 36.7006 44.0889 36.5723 43.9562C36.444 43.8235 36.3158 43.7438 36.1619 43.6908C36.0849 43.6908 36.0336 43.6642 35.9567 43.6642C35.9054 43.6642 35.8284 43.6642 35.7771 43.6642C35.341 43.6642 35.0332 43.7969 34.8537 44.0624C34.6741 44.3278 34.5715 44.6728 34.5715 45.071C34.5715 45.0975 34.5715 45.1241 34.5715 45.1771C34.5715 45.2037 34.5715 45.2302 34.5715 45.2833C34.5971 45.6549 34.751 45.9734 35.0332 46.2919C35.3154 46.6104 35.8028 46.7431 36.521 46.7431C36.7519 46.7431 36.9571 46.7166 37.1623 46.6901C37.3675 46.6635 37.547 46.6104 37.7523 46.5308C37.7779 46.5308 37.7779 46.5308 37.8036 46.5043C37.8292 46.5043 37.8292 46.5043 37.8549 46.4777V47.9641H37.8805Z" fill="#333333"/>
<path d="M42.3696 42.416C42.4465 42.416 42.6261 42.416 42.8826 42.4426C43.1391 42.4691 43.4213 42.5222 43.7034 42.6549C44.0369 42.8142 44.3704 43.053 44.6525 43.4246C44.9347 43.7697 45.0886 44.3271 45.0886 45.0172C45.0886 45.8665 44.8577 46.5036 44.3704 46.9548C43.883 47.406 43.3443 47.6449 42.7287 47.6449C42.703 47.6449 42.6774 47.6449 42.6774 47.6449C42.6517 47.6449 42.6261 47.6449 42.6261 47.6449C42.4978 47.6449 42.3696 47.6183 42.2413 47.6183C42.1131 47.6183 42.0105 47.5918 41.9335 47.5918V46.185C42.0105 46.2116 42.0618 46.2116 42.1387 46.2381C42.19 46.2381 42.267 46.2647 42.3183 46.2647C42.3696 46.2647 42.4209 46.2647 42.4978 46.2381C42.5748 46.2381 42.6517 46.2116 42.7287 46.1585C42.8569 46.1054 42.9852 45.9993 43.1135 45.8135C43.2417 45.6542 43.293 45.3888 43.293 45.0703C43.293 44.6721 43.2161 44.3802 43.0622 44.2209C42.9082 44.0617 42.7287 43.9289 42.5491 43.8759C42.4465 43.8493 42.3439 43.8228 42.2413 43.8228C42.1387 43.8228 42.0618 43.8228 41.9848 43.8228H41.5744V48.3615H39.8044V42.416H42.3696Z" fill="#333333"/>
<path d="M50.0648 42.416C50.6035 42.416 50.9883 42.5222 51.2191 42.7611C51.45 43 51.6039 43.2388 51.6552 43.5308C51.6552 43.5839 51.6809 43.637 51.6809 43.7166C51.6809 43.7697 51.6809 43.8228 51.6809 43.9024C51.6809 44.2475 51.6039 44.5394 51.4243 44.6987C51.2448 44.8845 51.0396 45.0172 50.8344 45.0703C50.8087 45.0703 50.7831 45.0703 50.7574 45.0968C50.7318 45.0968 50.7061 45.0968 50.6805 45.1234V45.1499C50.7318 45.1499 50.7831 45.1764 50.8344 45.203C50.8857 45.2295 50.937 45.2295 50.9883 45.2561C51.1935 45.3622 51.373 45.5215 51.5269 45.7073C51.6809 45.9196 51.7835 46.2116 51.7835 46.5832C51.7835 46.9813 51.6809 47.2733 51.5013 47.4591C51.3217 47.6449 51.1165 47.8042 50.8857 47.8838C50.6805 47.9634 50.5009 47.9899 50.347 48.0165C50.1931 48.0165 50.0648 48.043 50.0135 48.043H46.4736V42.416H50.0648ZM48.6283 44.5925H49.3209C49.3466 44.5925 49.3979 44.5925 49.4235 44.5925C49.4748 44.5925 49.5005 44.5925 49.5518 44.566C49.6287 44.5394 49.7057 44.5129 49.757 44.4598C49.8083 44.4067 49.8596 44.3005 49.8596 44.1678V44.1413V44.1147C49.8596 44.0351 49.8083 43.9289 49.7314 43.8493C49.6544 43.7697 49.5261 43.7431 49.3466 43.7431H48.2692V46.769H49.3466C49.5261 46.769 49.6801 46.7159 49.7827 46.6363C49.8853 46.5567 49.9622 46.4239 49.9622 46.2381C49.9622 46.1054 49.9366 45.9993 49.8596 45.9196C49.7827 45.84 49.7314 45.7869 49.6544 45.7604C49.5774 45.7338 49.5261 45.7073 49.4492 45.7073C49.3979 45.7073 49.3466 45.7073 49.3466 45.7073H48.6283V44.5925Z" fill="#333333"/>
<path d="M54.9387 43.8228C54.9643 43.7962 54.99 43.7431 55.0156 43.7166C55.0413 43.6901 55.0669 43.637 55.0926 43.6104C55.2208 43.4777 55.3491 43.345 55.4773 43.2123C55.6056 43.0796 55.7339 42.9734 55.8878 42.8407C55.9904 42.7611 56.093 42.6814 56.1956 42.6018C56.2982 42.5222 56.4008 42.4691 56.4777 42.416H58.2477V48.043H56.4777V44.2209C56.2725 44.3536 56.0417 44.566 55.7595 44.8314C55.4773 45.0968 55.1952 45.4684 54.913 45.9462V48.043H53.1431V42.416H54.913V43.8228H54.9387Z" fill="#333333"/>
<path d="M63.5318 43.8763C63.5062 43.8763 63.4805 43.8497 63.4549 43.8497C63.4292 43.8232 63.3779 43.8232 63.3266 43.7967C63.2497 43.7701 63.1727 43.7436 63.0701 43.717C62.9675 43.6905 62.8649 43.6905 62.7623 43.6905C62.7366 43.6905 62.711 43.6905 62.6853 43.6905C62.6597 43.6905 62.634 43.6905 62.6084 43.6905C62.3262 43.717 62.0697 43.8497 61.8388 44.0621C61.608 44.2744 61.4797 44.6726 61.4797 45.2299C61.4797 45.6546 61.5567 45.9997 61.7106 46.1855C61.8645 46.3978 62.0184 46.5305 62.198 46.6102C62.3006 46.6632 62.4032 46.6898 62.5058 46.6898C62.6084 46.6898 62.6853 46.7163 62.7623 46.7163C62.8905 46.7163 62.9931 46.7163 63.0958 46.6898C63.1984 46.6898 63.301 46.6632 63.4036 46.6102C63.4292 46.6102 63.4805 46.5836 63.5062 46.5571C63.5318 46.5305 63.5831 46.5305 63.6088 46.504V47.9638C63.5318 47.9904 63.4549 47.9904 63.4036 48.0169C63.3266 48.0169 63.2753 48.0434 63.1984 48.0434C63.1214 48.0434 63.0445 48.07 62.9418 48.07C62.8649 48.07 62.7623 48.07 62.6597 48.07C61.5823 48.07 60.8128 47.778 60.3254 47.1941C59.8637 46.6102 59.6072 45.9466 59.6072 45.1769C59.6072 45.0972 59.6072 45.0176 59.6072 44.938C59.6072 44.8584 59.6072 44.7787 59.6328 44.6991C59.7098 44.0621 59.9406 43.5047 60.3767 42.9738C60.8128 42.443 61.5054 42.2041 62.5058 42.2041C62.6853 42.2041 62.8649 42.2041 62.9931 42.2306C63.1214 42.2572 63.2497 42.2837 63.3779 42.3103C63.4036 42.3103 63.4036 42.3103 63.4292 42.3103C63.4549 42.3103 63.4549 42.3103 63.4805 42.3368V43.8763H63.5318Z" fill="#333333"/>
</g>
<defs>
<clipPath id="clip0_407_3695">
<rect width="62.7175" height="48.4135" fill="white" transform="translate(0.916992 0.161133)"/>
</clipPath>
</defs>
</svg>
