<svg width="213" height="30" viewBox="0 0 213 30" fill="none" xmlns="http://www.w3.org/2000/svg">
<g clip-path="url(#clip0_407_3555)">
<path d="M32.8745 6.7627H37.2524C38.6667 6.7627 39.677 6.89732 40.4179 7.09926C41.1587 7.3012 41.6976 7.77239 42.169 8.3782C42.6405 9.05133 42.8425 10.061 42.8425 11.5419C42.8425 12.5516 42.7078 13.2247 42.3711 13.6286C42.0343 14.0325 41.4282 14.3017 40.5526 14.5037C41.5629 14.7056 42.2364 15.1095 42.6405 15.648C42.9772 16.1865 43.1793 16.9943 43.1793 18.0713V19.6195C43.1793 20.7638 43.0446 21.6388 42.7752 22.1773C42.5058 22.7158 42.1017 23.1197 41.4955 23.3217C40.9567 23.5236 39.7444 23.5909 37.9932 23.5909H32.9419V6.7627H32.8745ZM37.2524 9.65715V13.4267C37.4544 13.4267 37.5891 13.4267 37.7238 13.4267C38.1279 13.4267 38.3973 13.292 38.532 13.0901C38.6667 12.8882 38.7341 12.2824 38.7341 11.2727C38.7341 10.7342 38.6667 10.3976 38.5994 10.1283C38.532 9.9264 38.3973 9.79178 38.1953 9.72446C37.9932 9.72446 37.6565 9.65715 37.2524 9.65715ZM37.2524 16.0519V20.7638C37.8585 20.7638 38.2626 20.6292 38.4647 20.4945C38.6667 20.2926 38.7341 19.8887 38.7341 19.2156V17.6674C38.7341 16.9269 38.6667 16.5231 38.532 16.3211C38.2626 16.1192 37.8585 16.0519 37.2524 16.0519Z" fill="#333333"/>
<path d="M44.6611 6.7627H52.0024V10.1283H49.039V13.3594H51.8004V16.5904H49.039V20.2926H52.2718V23.6582H44.6611V6.7627Z" fill="#333333"/>
<path d="M61.2968 14.0996C61.9703 14.3015 62.4417 14.6381 62.7112 15.1766C63.0479 15.6478 63.1826 16.7921 63.1826 18.6096C63.1826 19.9558 63.0479 20.9655 62.7112 21.7059C62.3744 22.4464 61.9029 22.9849 61.0947 23.3888C60.3539 23.7926 59.4109 23.9946 58.1986 23.9946C56.8516 23.9946 55.8413 23.7926 55.0331 23.3215C54.2922 22.8503 53.7534 22.3118 53.5514 21.7059C53.282 21.0328 53.2146 19.9558 53.2146 18.3403V16.994H57.4577V19.7539C57.4577 20.4943 57.5251 20.9655 57.5924 21.1674C57.6598 21.3694 57.8619 21.4367 58.1986 21.4367C58.5354 21.4367 58.7374 21.3021 58.8721 21.0328C59.0068 20.7636 59.0068 20.1578 59.0068 19.0807V17.9364C59.0068 17.2633 58.9395 16.7921 58.8048 16.5229C58.6701 16.2536 58.468 16.0517 58.1313 15.917C57.8619 15.8497 57.323 15.7824 56.4475 15.7824V13.3591C57.4577 13.3591 58.0639 13.2918 58.3333 13.2245C58.6027 13.1572 58.7374 12.9553 58.8721 12.7533C59.0068 12.4841 59.0068 12.0802 59.0068 11.5417V10.5993C59.0068 9.9935 58.9395 9.58963 58.8048 9.455C58.6701 9.25306 58.468 9.18575 58.266 9.18575C57.9966 9.18575 57.7945 9.25306 57.6598 9.455C57.5251 9.65694 57.5251 10.0608 57.5251 10.7339V12.1475H53.282V10.7339C53.282 9.11844 53.6187 8.04143 54.3596 7.43561C55.1004 6.89711 56.2454 6.56055 57.8619 6.56055C59.8824 6.56055 61.2294 6.96442 61.9703 7.77218C62.7112 8.57993 63.0479 9.65694 63.0479 11.0705C63.0479 12.0129 62.9132 12.686 62.6438 13.0899C62.4418 13.3591 61.9703 13.763 61.2968 14.0996Z" fill="#333333"/>
<path d="M77.4612 26.5527H74.4303V23.6582H67.2911V26.5527H64.2603V20.0907H65.1358C65.6073 18.6771 66.0114 16.8596 66.2808 14.6383C66.5502 12.417 66.7523 9.9264 66.7523 7.23389V6.7627H76.5182V20.0907H77.3938V26.5527H77.4612ZM72.1404 20.0907V10.061H70.8607V10.1957C70.8607 13.4267 70.5239 16.725 69.8504 20.0907H72.1404Z" fill="#333333"/>
<path d="M78.8081 6.7627H86.1494V10.1283H83.1859V13.3594H85.9474V16.5904H83.1859V20.2926H86.4188V23.6582H78.8081V6.7627Z" fill="#333333"/>
<path d="M96.589 6.7627L95.0399 14.2344L97.3972 23.6582H93.3561C92.8846 21.9754 92.4132 19.8887 92.0091 17.5328C91.8744 18.6098 91.7397 19.7541 91.5376 20.9657L91.1335 23.7255H86.823L88.4394 14.3017L86.823 6.83001H91.0661C91.1335 7.3012 91.2682 8.04164 91.5376 9.18596C91.7397 9.99371 91.8744 10.8015 92.0091 11.4746L92.952 6.83001H96.589V6.7627Z" fill="#333333"/>
<path d="M108.039 16.6573C108.039 18.3401 107.971 19.5517 107.904 20.2922C107.837 20.9653 107.567 21.6384 107.163 22.2442C106.759 22.8501 106.153 23.2539 105.479 23.5905C104.738 23.9271 103.93 24.0617 102.987 24.0617C102.112 24.0617 101.304 23.9271 100.563 23.5905C99.8218 23.3213 99.283 22.8501 98.8116 22.2442C98.3401 21.6384 98.1381 21.0326 98.0034 20.2922C97.936 19.619 97.8687 18.4074 97.8687 16.6573V13.7628C97.8687 12.08 97.936 10.8684 98.0034 10.1279C98.0707 9.45479 98.3401 8.78166 98.7442 8.17585C99.1483 7.57003 99.7545 7.16615 100.428 6.82959C101.169 6.49302 101.977 6.3584 102.92 6.3584C103.796 6.3584 104.604 6.49302 105.345 6.82959C106.086 7.09884 106.624 7.57003 107.096 8.17585C107.567 8.78166 107.769 9.38748 107.904 10.1279C107.971 10.801 108.039 12.0127 108.039 13.7628V16.6573ZM103.661 11.1376C103.661 10.3299 103.594 9.85867 103.526 9.65673C103.459 9.45479 103.257 9.32017 102.987 9.32017C102.785 9.32017 102.583 9.38748 102.449 9.58942C102.314 9.79136 102.246 10.2625 102.246 11.1376V19.0132C102.246 20.0229 102.314 20.6287 102.381 20.8307C102.449 21.0326 102.651 21.1672 102.92 21.1672C103.189 21.1672 103.391 21.0326 103.526 20.7634C103.594 20.4941 103.661 19.8883 103.661 18.8786V11.1376V11.1376Z" fill="#333333"/>
<path d="M122.25 26.5527H119.219V23.6582H112.147V26.5527H109.116V20.0907H109.992C110.463 18.6771 110.868 16.8596 111.137 14.6383C111.406 12.3497 111.608 9.9264 111.608 7.23389V6.7627H121.374V20.0907H122.25V26.5527ZM116.929 20.0907V10.061H115.65V10.1957C115.65 13.4267 115.313 16.725 114.639 20.0907H116.929Z" fill="#333333"/>
<path d="M133.834 19.6868C133.834 20.9657 133.7 21.8408 133.363 22.3793C133.026 22.9178 132.555 23.2544 131.881 23.389C131.208 23.5236 130.13 23.5909 128.716 23.5909H123.664V6.7627H128.042V12.5516H128.716C130.063 12.5516 131.073 12.6189 131.814 12.8209C132.487 12.9555 133.026 13.3594 133.363 13.8979C133.7 14.4364 133.902 15.3114 133.902 16.4558V19.6868H133.834ZM129.457 19.2156V16.7923C129.457 16.0519 129.389 15.648 129.254 15.5134C129.12 15.3787 128.716 15.2441 128.042 15.2441V20.7638C128.581 20.7638 128.985 20.6965 129.187 20.5618C129.322 20.3599 129.457 19.956 129.457 19.2156ZM139.761 23.6582H135.383V6.7627H139.761V23.6582Z" fill="#333333"/>
<path d="M155.858 23.6582H151.481V10.1283H150.201V19.6868C150.201 20.9657 150.066 21.8408 149.729 22.3793C149.393 22.9178 148.921 23.2544 148.248 23.389C147.574 23.5236 146.564 23.5909 145.082 23.5909H144.409V20.6965C144.948 20.6965 145.284 20.6292 145.486 20.4945C145.688 20.3599 145.756 19.8887 145.756 19.1483V6.7627H155.858V23.6582V23.6582Z" fill="#333333"/>
<path d="M157.609 6.7627H164.951V10.1283H161.987V13.3594H164.749V16.5904H161.987V20.2926H165.22V23.6582H157.609V6.7627Z" fill="#333333"/>
<path d="M176.737 14.0995H172.359V11.1377C172.359 10.2626 172.292 9.72411 172.225 9.52218C172.157 9.32024 171.955 9.18561 171.618 9.18561C171.282 9.18561 171.012 9.32024 170.945 9.58949C170.878 9.85874 170.81 10.3972 170.81 11.2723V19.1479C170.81 19.9557 170.878 20.4942 170.945 20.7634C171.012 21.0327 171.282 21.1673 171.618 21.1673C171.955 21.1673 172.157 21.0327 172.292 20.7634C172.359 20.4942 172.427 19.9557 172.427 19.0133V16.8593H176.805V17.5324C176.805 19.2825 176.67 20.4942 176.4 21.2346C176.131 21.9751 175.592 22.5809 174.784 23.1867C173.908 23.7252 172.898 23.9944 171.686 23.9944C170.406 23.9944 169.328 23.7925 168.52 23.3213C167.712 22.8501 167.106 22.177 166.836 21.3692C166.567 20.5615 166.432 19.2825 166.432 17.667V12.7532C166.432 11.5416 166.5 10.5992 166.567 9.99337C166.634 9.38755 166.904 8.78173 167.308 8.24323C167.712 7.70473 168.318 7.23354 169.059 6.89697C169.8 6.56041 170.608 6.42578 171.618 6.42578C172.898 6.42578 173.976 6.69503 174.851 7.16622C175.727 7.63741 176.266 8.31054 176.535 9.05098C176.805 9.79143 176.939 10.9357 176.939 12.5513V14.0995H176.737Z" fill="#333333"/>
<path d="M188.456 6.7627V23.6582H184.078V16.5904H182.731V23.6582H178.354V6.7627H182.731V12.8209H184.078V6.7627H188.456Z" fill="#333333"/>
<path d="M200.041 23.6582H196.337V15.9846L194.047 23.6582H190.208V6.7627H193.912V14.3691L196.404 6.7627H200.108V23.6582H200.041Z" fill="#333333"/>
<path d="M201.792 6.7627H206.17V13.8979C206.978 13.8979 207.449 13.4267 207.449 12.5516L207.517 9.25327C207.517 8.04164 207.786 7.23389 208.258 6.7627H212.299C211.895 7.16657 211.693 8.04164 211.693 9.32059V12.215C211.693 13.9652 210.75 14.9749 208.729 15.1768C210.75 15.4461 211.693 16.4558 211.693 18.2059V20.8984C211.693 22.1773 211.895 23.1197 212.299 23.6582H208.258C207.786 23.2544 207.517 22.4466 207.517 21.1677V17.8693C207.517 17.4654 207.382 17.1289 207.113 16.8596C206.843 16.5904 206.507 16.4558 206.102 16.4558V23.5909H201.725V6.7627H201.792Z" fill="#333333"/>
<path d="M14.2854 0.90625C6.40523 0.90625 0.00683594 7.30098 0.00683594 15.1766C0.00683594 23.1195 6.40523 29.5142 14.2854 29.5142C22.1655 29.5142 28.6312 23.1195 28.6312 15.1766C28.6312 7.30098 22.2328 0.90625 14.2854 0.90625ZM5.59701 21.7732L9.16664 15.5805H5.59701L12.0628 4.40652L18.5285 15.5805H14.8242L18.3938 21.7732H5.59701ZM11.2545 2.65639L2.90295 17.0613H6.47258L3.44176 22.3118C2.09473 20.2924 1.28651 17.8691 1.28651 15.2439C1.35387 9.11842 5.59701 4.00264 11.2545 2.65639ZM4.18263 23.2541H11.2545V25.4755H6.40523C5.59701 24.8023 4.85614 24.1292 4.18263 23.2541ZM22.2328 25.4755H12.8036V23.2541H21.1552L17.5182 17.0613H21.0879L12.6016 2.38713C13.2077 2.31982 13.7465 2.25251 14.2854 2.25251C21.4246 2.25251 27.2168 8.04142 27.2168 15.1766C27.2842 19.4173 25.2636 23.1195 22.2328 25.4755Z" fill="#333333"/>
</g>
<defs>
<clipPath id="clip0_407_3555">
<rect width="212.359" height="28.608" fill="white" transform="translate(0.00683594 0.90625)"/>
</clipPath>
</defs>
</svg>
