<svg width="111" height="62" viewBox="0 0 111 62" fill="none" xmlns="http://www.w3.org/2000/svg">
<path d="M6.17956 52.9911H2.60356L1.92137 54.6416H0.0948605L3.52782 46.9395H5.28831L8.73227 54.6416H6.86175L6.17956 52.9911ZM5.6184 51.6378L4.39706 48.6889L3.17572 51.6378H5.6184ZM15.3637 48.7219V54.6416H13.6472V50.1303H11.7767L11.7217 51.1756C11.6923 51.9532 11.619 52.5987 11.5016 53.1122C11.3842 53.6257 11.1935 54.0291 10.9294 54.3225C10.6654 54.6159 10.2986 54.7626 9.82914 54.7626C9.57974 54.7626 9.28265 54.7186 8.93789 54.6306L9.02591 53.2222C9.14328 53.2369 9.22764 53.2442 9.27899 53.2442C9.53572 53.2442 9.72644 53.1525 9.85114 52.9691C9.98318 52.7784 10.0712 52.54 10.1152 52.2539C10.1592 51.9605 10.1922 51.5754 10.2142 51.0986L10.3023 48.7219H15.3637ZM22.7689 51.7038C22.7689 51.7258 22.7579 51.8798 22.7359 52.1659H18.2577C18.3384 52.5327 18.5291 52.8224 18.8298 53.0352C19.1306 53.2479 19.5047 53.3542 19.9521 53.3542C20.2602 53.3542 20.5316 53.3102 20.7664 53.2222C21.0084 53.1268 21.2322 52.9801 21.4375 52.7821L22.3508 53.7724C21.7933 54.4105 20.9791 54.7296 19.9081 54.7296C19.2406 54.7296 18.6501 54.6013 18.1366 54.3445C17.6232 54.0804 17.227 53.7173 16.9483 53.2552C16.6696 52.7931 16.5302 52.2686 16.5302 51.6818C16.5302 51.1023 16.6659 50.5815 16.9373 50.1193C17.216 49.6499 17.5938 49.2868 18.0706 49.03C18.5547 48.766 19.0939 48.6339 19.6881 48.6339C20.2676 48.6339 20.792 48.7586 21.2615 49.008C21.731 49.2574 22.0977 49.6169 22.3618 50.0863C22.6332 50.5485 22.7689 51.0876 22.7689 51.7038ZM19.6991 49.9323C19.3103 49.9323 18.9839 50.0423 18.7198 50.2624C18.4557 50.4824 18.2943 50.7832 18.2357 51.1646H21.1515C21.0928 50.7905 20.9314 50.4934 20.6673 50.2734C20.4033 50.046 20.0805 49.9323 19.6991 49.9323ZM26.6924 52.397H25.8011V54.6416H24.0846V48.7219H25.8011V51.0216H26.7254L28.3318 48.7219H30.1583L28.0898 51.5607L30.3014 54.6416H28.2768L26.6924 52.397ZM33.7784 54.7296C33.1475 54.7296 32.579 54.6013 32.0729 54.3445C31.5741 54.0804 31.1816 53.7173 30.8955 53.2552C30.6168 52.7931 30.4774 52.2686 30.4774 51.6818C30.4774 51.0949 30.6168 50.5705 30.8955 50.1083C31.1816 49.6462 31.5741 49.2868 32.0729 49.03C32.579 48.766 33.1475 48.6339 33.7784 48.6339C34.4019 48.6339 34.9447 48.766 35.4068 49.03C35.8763 49.2868 36.2174 49.6572 36.4301 50.1413L35.0987 50.8565C34.7906 50.3137 34.3468 50.0423 33.7673 50.0423C33.3199 50.0423 32.9495 50.189 32.656 50.4824C32.3626 50.7759 32.2159 51.1756 32.2159 51.6818C32.2159 52.1879 32.3626 52.5877 32.656 52.8811C32.9495 53.1745 33.3199 53.3212 33.7673 53.3212C34.3542 53.3212 34.798 53.0498 35.0987 52.507L36.4301 53.2332C36.2174 53.7027 35.8763 54.0694 35.4068 54.3335C34.9447 54.5976 34.4019 54.7296 33.7784 54.7296ZM39.7728 48.6339C40.6897 48.6339 41.3939 48.854 41.8854 49.2941C42.3769 49.7269 42.6226 50.3834 42.6226 51.2637V54.6416H41.0161V53.9044C40.6934 54.4545 40.0919 54.7296 39.2116 54.7296C38.7568 54.7296 38.3607 54.6526 38.0233 54.4986C37.6932 54.3445 37.4401 54.1318 37.2641 53.8604C37.088 53.589 37 53.2809 37 52.9361C37 52.386 37.2054 51.9532 37.6162 51.6378C38.0343 51.3223 38.6762 51.1646 39.5417 51.1646H40.9061C40.9061 50.7905 40.7924 50.5044 40.565 50.3064C40.3376 50.101 39.9965 49.9983 39.5417 49.9983C39.2263 49.9983 38.9146 50.0497 38.6065 50.1523C38.3057 50.2477 38.049 50.3797 37.8363 50.5485L37.2201 49.3491C37.5428 49.1217 37.9279 48.9457 38.3754 48.821C38.8302 48.6963 39.296 48.6339 39.7728 48.6339ZM39.6408 53.5743C39.9342 53.5743 40.1946 53.5083 40.422 53.3762C40.6494 53.2369 40.8107 53.0352 40.9061 52.7711V52.1659H39.7288C39.0246 52.1659 38.6725 52.397 38.6725 52.8591C38.6725 53.0792 38.7568 53.2552 38.9256 53.3873C39.1016 53.512 39.34 53.5743 39.6408 53.5743ZM44.1137 48.7219H45.8192V51.0326H48.3939V48.7219H50.1103V54.6416H48.3939V52.43H45.8192V54.6416H44.1137V48.7219ZM58.3884 53.2332V55.918H56.7929V54.6416H52.6337V55.918H51.0383V53.2332H51.2804C51.6471 53.2259 51.9002 53.0095 52.0396 52.584C52.179 52.1586 52.267 51.5534 52.3037 50.7685L52.3807 48.7219H57.5411V53.2332H58.3884ZM53.8551 50.8896C53.8331 51.4911 53.7854 51.9825 53.712 52.364C53.646 52.7454 53.5177 53.0352 53.3269 53.2332H55.8246V50.1303H53.8881L53.8551 50.8896ZM62.9565 48.6339C63.5067 48.6339 64.0055 48.7623 64.4529 49.019C64.9077 49.2684 65.2635 49.6242 65.5202 50.0863C65.777 50.5411 65.9053 51.0729 65.9053 51.6818C65.9053 52.2906 65.777 52.8261 65.5202 53.2882C65.2635 53.743 64.9077 54.0988 64.4529 54.3555C64.0055 54.6049 63.5067 54.7296 62.9565 54.7296C62.201 54.7296 61.6068 54.4912 61.174 54.0144V56.7762H59.4575V48.7219H61.097V49.4041C61.5224 48.8907 62.1423 48.6339 62.9565 48.6339ZM62.6594 53.3212C63.0996 53.3212 63.459 53.1745 63.7377 52.8811C64.0238 52.5804 64.1669 52.1806 64.1669 51.6818C64.1669 51.183 64.0238 50.7869 63.7377 50.4934C63.459 50.1927 63.0996 50.0423 62.6594 50.0423C62.2193 50.0423 61.8562 50.1927 61.5701 50.4934C61.2914 50.7869 61.152 51.183 61.152 51.6818C61.152 52.1806 61.2914 52.5804 61.5701 52.8811C61.8562 53.1745 62.2193 53.3212 62.6594 53.3212ZM69.3113 48.6339C70.2282 48.6339 70.9324 48.854 71.4239 49.2941C71.9154 49.7269 72.1611 50.3834 72.1611 51.2637V54.6416H70.5547V53.9044C70.2319 54.4545 69.6304 54.7296 68.7501 54.7296C68.2954 54.7296 67.8992 54.6526 67.5618 54.4986C67.2317 54.3445 66.9787 54.1318 66.8026 53.8604C66.6266 53.589 66.5385 53.2809 66.5385 52.9361C66.5385 52.386 66.7439 51.9532 67.1547 51.6378C67.5728 51.3223 68.2147 51.1646 69.0802 51.1646H70.4446C70.4446 50.7905 70.3309 50.5044 70.1035 50.3064C69.8761 50.101 69.535 49.9983 69.0802 49.9983C68.7648 49.9983 68.4531 50.0497 68.145 50.1523C67.8442 50.2477 67.5875 50.3797 67.3748 50.5485L66.7586 49.3491C67.0813 49.1217 67.4665 48.9457 67.9139 48.821C68.3687 48.6963 68.8345 48.6339 69.3113 48.6339ZM69.1793 53.5743C69.4727 53.5743 69.7331 53.5083 69.9605 53.3762C70.1879 53.2369 70.3493 53.0352 70.4446 52.7711V52.1659H69.2673C68.5631 52.1659 68.211 52.397 68.211 52.8591C68.211 53.0792 68.2954 53.2552 68.4641 53.3873C68.6401 53.512 68.8785 53.5743 69.1793 53.5743ZM73.3991 50.8565H76.513V52.2319H73.3991V50.8565ZM85.0485 46.9395V54.6416H83.277V48.3919H79.8001V54.6416H78.0286V46.9395H85.0485ZM92.5034 48.7219V54.6416H90.7869V50.1303H88.9164L88.8614 51.1756C88.832 51.9532 88.7587 52.5987 88.6413 53.1122C88.5239 53.6257 88.3332 54.0291 88.0691 54.3225C87.8051 54.6159 87.4383 54.7626 86.9688 54.7626C86.7194 54.7626 86.4223 54.7186 86.0776 54.6306L86.1656 53.2222C86.283 53.2369 86.3673 53.2442 86.4187 53.2442C86.6754 53.2442 86.8661 53.1525 86.9908 52.9691C87.1229 52.7784 87.2109 52.54 87.2549 52.2539C87.2989 51.9605 87.3319 51.5754 87.3539 51.0986L87.442 48.7219H92.5034ZM99.7546 48.6339C100.356 48.6339 100.895 48.766 101.372 49.03C101.849 49.2868 102.223 49.6462 102.494 50.1083C102.766 50.5705 102.901 51.0949 102.901 51.6818C102.901 52.2686 102.766 52.7931 102.494 53.2552C102.223 53.7173 101.849 54.0804 101.372 54.3445C100.895 54.6013 100.356 54.7296 99.7546 54.7296C99.2338 54.7296 98.757 54.6343 98.3242 54.4435C97.8914 54.2455 97.5319 53.9704 97.2459 53.6183C96.9598 53.2589 96.7691 52.8481 96.6737 52.386H95.8595V54.6416H94.154V48.7219H95.8595V50.9006H96.6847C96.8534 50.211 97.2129 49.6609 97.763 49.2501C98.3132 48.8393 98.977 48.6339 99.7546 48.6339ZM99.7546 53.3212C100.173 53.3212 100.517 53.1745 100.789 52.8811C101.068 52.5804 101.207 52.1806 101.207 51.6818C101.207 51.1756 101.068 50.7759 100.789 50.4824C100.517 50.189 100.173 50.0423 99.7546 50.0423C99.3291 50.0423 98.977 50.189 98.6983 50.4824C98.4269 50.7759 98.2912 51.1756 98.2912 51.6818C98.2912 52.1806 98.4269 52.5804 98.6983 52.8811C98.977 53.1745 99.3291 53.3212 99.7546 53.3212ZM106.91 54.7296C106.279 54.7296 105.711 54.6013 105.205 54.3445C104.706 54.0804 104.313 53.7173 104.027 53.2552C103.749 52.7931 103.609 52.2686 103.609 51.6818C103.609 51.0949 103.749 50.5705 104.027 50.1083C104.313 49.6462 104.706 49.2868 105.205 49.03C105.711 48.766 106.279 48.6339 106.91 48.6339C107.534 48.6339 108.076 48.766 108.539 49.03C109.008 49.2868 109.349 49.6572 109.562 50.1413L108.23 50.8565C107.922 50.3137 107.479 50.0423 106.899 50.0423C106.452 50.0423 106.081 50.189 105.788 50.4824C105.494 50.7759 105.348 51.1756 105.348 51.6818C105.348 52.1879 105.494 52.5877 105.788 52.8811C106.081 53.1745 106.452 53.3212 106.899 53.3212C107.486 53.3212 107.93 53.0498 108.23 52.507L109.562 53.2332C109.349 53.7027 109.008 54.0694 108.539 54.3335C108.076 54.5976 107.534 54.7296 106.91 54.7296Z" fill="#333333"/>
<g clip-path="url(#clip0_407_3581)">
<path d="M43.5876 21.0228C36.8033 21.9793 25.7333 23.8921 21.94 30.7343C19.3138 35.4612 25.9887 37.0614 29.8002 37.0614C37.6423 37.0614 50.2077 34.0634 58.6698 29.6491C60.6577 28.6191 66.3659 25.7682 66.3659 25.7682C66.3659 25.7682 77.5818 25.7866 78.4025 25.7866C77.9101 26.2096 55.8977 35.6083 44.2624 37.5212C38.773 38.4225 33.2106 39.3605 27.63 38.4041C25.9339 38.1098 23.8549 37.6132 22.3412 36.7855C19.3321 35.1669 19.1314 32.5 20.9187 29.5939C23.0707 26.136 26.3352 24.0209 29.8549 22.3103C36.5298 19.0548 47.2533 16.627 52.4509 16.627C48.4569 21.7586 44.5177 26.8166 40.469 32.0401C42.6575 32.0401 44.5177 32.0401 46.3779 32.0401C42.1104 33.9346 37.7517 35.075 32.627 35.1853C34.6513 32.5735 36.3656 30.348 38.2988 27.8466C34.6513 27.8466 30.165 27.8466 26.864 27.8466C26.8093 27.6259 30.2926 26.0993 31.5328 25.9889C33.7577 25.7682 36.0191 25.8234 38.2623 25.8785C39.4113 25.9153 40.1955 25.5843 40.852 24.6278C41.6909 23.3771 42.6757 22.2184 43.5876 21.0228Z" fill="#333333"/>
<path d="M77.9102 0.29459C56.4997 -2.70344 27.2836 17.9333 15.4111 24.7938H18.2014C22.6513 22.366 27.0283 19.7542 31.5146 17.3815C40.3962 12.7097 49.4054 8.33225 59.4176 6.65851C63.2657 6.01476 67.1502 5.88601 70.9253 7.1919C74.2992 8.35065 75.5393 10.8337 74.0074 14.0708C73.0044 16.186 71.6001 18.154 70.1229 19.9933C68.8463 21.5935 67.3326 23.0097 65.8736 24.4812H68.0803C70.6882 22.3108 73.2962 20.1221 75.7035 17.731C78.4391 15.0272 81.9224 11.643 82.9801 7.83565C84.1473 3.75244 82.2507 0.901553 77.9102 0.29459Z" fill="#333333"/>
<path d="M64.524 11.201C62.0073 10.6309 59.1987 10.5757 56.6273 10.9803C45.2655 12.746 34.6878 16.9764 24.402 21.9792C22.9248 22.6965 21.0281 23.8369 19.405 24.7933H21.8853C26.3534 21.8505 36.1468 17.988 42.9129 16.2039C47.8551 14.898 52.8522 13.9232 57.9951 14.1991C60.2565 14.3094 62.3538 15.0083 63.4115 17.2523C64.4146 19.3858 63.5757 21.2987 62.3538 23.0828C62.0255 23.561 61.6607 24.0392 61.296 24.499H63.4115C64.9799 22.9173 66.603 21.3171 67.7885 19.4594C70.1958 15.7257 68.8645 12.1942 64.524 11.201Z" fill="#333333"/>
</g>
<defs>
<clipPath id="clip0_407_3581">
<rect width="67.9155" height="38.8089" fill="white" transform="translate(15.4111)"/>
</clipPath>
</defs>
</svg>
