<svg width="78" height="78" viewBox="0 0 78 78" fill="none" xmlns="http://www.w3.org/2000/svg">
<path fill-rule="evenodd" clip-rule="evenodd" d="M34.7771 1.24204C34.7771 0.556079 35.3331 0 36.0191 0H41.9809C42.6669 0 43.2229 0.556079 43.2229 1.24204V2.98089H76.758C77.4439 2.98089 78 3.53697 78 4.22293V9.19108C78 9.87704 77.4439 10.4331 76.758 10.4331H74.0255V14.1592C74.0255 14.8452 73.4694 15.4013 72.7834 15.4013H56.1401V22.1083C56.1401 22.7942 55.5841 23.3503 54.8981 23.3503H48.1911V35.0255C48.1911 35.7114 47.635 36.2675 46.949 36.2675H44.9379L43.1858 43.2758C43.0476 43.8287 42.5508 44.2166 41.9809 44.2166H40.242V67.1515L45.3764 58.2519C45.7192 57.6578 46.4787 57.454 47.0729 57.7968C47.6671 58.1396 47.8709 58.8991 47.5281 59.4933L41.5734 69.8147L58.5513 65.267C59.2139 65.0896 59.8949 65.4828 60.0724 66.1454C60.2498 66.808 59.8566 67.4891 59.194 67.6665L48.4374 70.5478H74.2739C76.3318 70.5478 78 72.216 78 74.2739C78 76.3318 76.3318 78 74.2739 78H61.3567C60.6707 78 60.1147 77.4439 60.1147 76.758C60.1147 76.072 60.6707 75.5159 61.3567 75.5159H74.2739C74.9598 75.5159 75.5159 74.9598 75.5159 74.2739C75.5159 73.5879 74.9598 73.0318 74.2739 73.0318H3.72611C3.04016 73.0318 2.48408 73.5879 2.48408 74.2739C2.48408 74.9598 3.04016 75.5159 3.72611 75.5159H55.3949C56.0809 75.5159 56.6369 76.072 56.6369 76.758C56.6369 77.4439 56.0809 78 55.3949 78H3.72611C1.66824 78 0 76.3318 0 74.2739C0 72.216 1.66824 70.5478 3.72611 70.5478H29.5626L18.806 67.6665C18.1434 67.4891 17.7502 66.808 17.9276 66.1454C18.1051 65.4828 18.7861 65.0896 19.4487 65.267L36.4266 69.8147L30.4719 59.4933C30.1291 58.8991 30.3329 58.1396 30.9271 57.7968C31.5213 57.454 32.2808 57.6578 32.6236 58.2519L37.758 67.1515V44.2166H36.0191C35.4492 44.2166 34.9524 43.8287 34.8142 43.2758L33.0621 36.2675H31.051C30.365 36.2675 29.8089 35.7114 29.8089 35.0255V23.3503H23.1019C22.416 23.3503 21.8599 22.7942 21.8599 22.1083V15.4013H5.21656C4.5306 15.4013 3.97452 14.8452 3.97452 14.1592V10.4331H1.24204C0.556079 10.4331 0 9.87704 0 9.19108V4.22293C0 3.53697 0.556079 2.98089 1.24204 2.98089H6.70701C7.39297 2.98089 7.94904 3.53697 7.94904 4.22293C7.94904 4.90889 7.39297 5.46497 6.70701 5.46497H2.48408V7.94904H34.7771V5.46497H12.6688C11.9828 5.46497 11.4268 4.90889 11.4268 4.22293C11.4268 3.53697 11.9828 2.98089 12.6688 2.98089H34.7771V1.24204ZM34.7771 10.4331H6.4586V12.9172H34.7771V10.4331ZM37.2611 12.9172H40.7389V2.48408H37.2611V12.9172ZM43.2229 12.9172H71.5414V10.4331H65.3312C64.6453 10.4331 64.0892 9.87704 64.0892 9.19108C64.0892 8.50512 64.6453 7.94904 65.3312 7.94904H75.5159V5.46497H43.2229V7.94904H59.3694C60.0554 7.94904 60.6115 8.50512 60.6115 9.19108C60.6115 9.87704 60.0554 10.4331 59.3694 10.4331H43.2229V12.9172ZM24.344 15.4013V20.8662H53.6561V15.4013H24.344ZM32.293 23.3503V33.7834H45.707V23.3503H32.293ZM35.6226 36.2675L36.9889 41.7325H41.0111L42.3774 36.2675H35.6226ZM33.7834 28.5669C33.7834 27.8809 34.3395 27.3248 35.0255 27.3248H42.9745C43.6605 27.3248 44.2166 27.8809 44.2166 28.5669C44.2166 29.2528 43.6605 29.8089 42.9745 29.8089H35.0255C34.3395 29.8089 33.7834 29.2528 33.7834 28.5669ZM15.6311 55.1719C16.0286 54.6129 16.8041 54.482 17.3631 54.8795L29.4688 63.488C30.0278 63.8855 30.1587 64.661 29.7612 65.22C29.3637 65.779 28.5882 65.9099 28.0292 65.5124L15.9235 56.9039C15.3645 56.5064 15.2336 55.731 15.6311 55.1719ZM62.3689 55.1719C62.7664 55.731 62.6355 56.5064 62.0765 56.9039L49.9708 65.5124C49.4118 65.9099 48.6363 65.779 48.2388 65.22C47.8413 64.661 47.9722 63.8855 48.5312 63.488L60.6369 54.8795C61.1959 54.482 61.9714 54.6129 62.3689 55.1719ZM9.9786 64.0162C10.1561 63.3536 10.8371 62.9604 11.4997 63.1378L14.4806 63.9363C15.1432 64.1138 15.5365 64.7948 15.359 65.4574C15.1815 66.12 14.5005 66.5133 13.8379 66.3358L10.857 65.5373C10.1944 65.3598 9.80112 64.6788 9.9786 64.0162ZM68.0214 64.0162C68.1989 64.6788 67.8056 65.3598 67.143 65.5373L64.1621 66.3358C63.4995 66.5133 62.8185 66.12 62.641 65.4574C62.4635 64.7948 62.8568 64.1138 63.5194 63.9363L66.5003 63.1378C67.1629 62.9604 67.8439 63.3536 68.0214 64.0162Z" fill="#5ABFC6"/>
</svg>
