<svg width="78" height="78" viewBox="0 0 78 78" fill="none" xmlns="http://www.w3.org/2000/svg">
<g clip-path="url(#clip0_281_8544)">
<path d="M78.0002 53.2397C77.9733 48.0935 74.4707 43.5132 69.4862 42.1122C69.0821 42.0044 68.6779 41.9236 68.2469 41.8158C68.0583 41.7619 67.8427 41.735 67.6272 41.6811H67.5733V41.6272C67.5733 41.3578 67.5733 41.1153 67.5733 40.8459C67.5733 40.2531 67.5733 39.7143 67.5733 39.1485C67.5463 38.2324 67.1152 37.7744 66.2531 37.7744C64.5557 37.7474 62.8582 37.7474 61.2147 37.7744C60.4064 37.7744 59.9484 38.2324 59.9215 39.0946C59.9215 39.364 59.9215 39.6334 59.9215 39.9029C59.9215 40.0106 59.9215 40.1454 59.9215 40.2531V40.307H57.1733V39.5796C57.1733 39.0946 57.1733 38.6366 57.1733 38.1785C57.1733 36.8044 56.7961 36.4272 55.4759 36.4272C52.3235 36.4272 49.1712 36.4272 46.0458 36.4272C45.8842 36.4272 45.7225 36.4272 45.48 36.4003C45.3453 36.4003 45.2106 36.3733 45.022 36.3733H44.8603L44.9681 36.2656C45.2106 36.0231 45.4531 35.8075 45.6686 35.592C46.1805 35.107 46.6116 34.6759 47.0966 34.2987C47.6355 33.8676 48.1204 33.5982 48.5515 33.4904C50.2489 33.0863 52.0002 32.6821 53.6707 32.278C55.3681 31.9008 57.1194 31.4967 58.8437 31.0656C59.3557 30.9309 59.8676 30.6614 60.2448 30.2842C62.2386 28.3443 64.2323 26.3505 66.1453 24.4106C66.6572 23.8987 67.1691 23.3868 67.681 22.8749L67.7349 22.821C67.9774 22.5785 68.2199 22.336 68.7318 22.5785C69.3246 22.9018 69.8634 22.5516 70.1867 22.2283C70.6178 21.7702 71.0759 21.3391 71.507 20.9081C72.1805 20.2345 72.8811 19.534 73.5546 18.8334C74.2821 18.106 74.2821 17.4863 73.5277 16.7319C68.0852 11.2894 62.6427 5.84691 57.3619 0.566084C56.5805 -0.215263 55.9608 -0.215263 55.1525 0.593027C54.8023 0.943286 54.4251 1.32049 54.1018 1.67075C53.4821 2.29044 52.8624 2.93707 52.2158 3.52981C51.5691 4.12256 51.0572 4.85002 51.7308 5.9008L51.7577 5.95469L51.7308 5.98163C51.5691 6.11634 51.4075 6.278 51.2728 6.41272C50.9225 6.73603 50.5992 7.0324 50.3028 7.35572C50.0064 7.67904 49.8448 8.0293 49.8448 8.37956C49.8448 8.67593 49.9795 8.9723 50.2489 9.21479C50.7608 9.69976 51.4614 9.64588 52.0541 9.10702C52.4044 8.7837 52.7007 8.43344 53.0241 8.11013C53.1588 7.97541 53.2665 7.8407 53.4013 7.70598L53.4551 7.65209L53.509 7.70598L66.28 20.5578L66.2261 20.6117L58.9515 27.9132L58.8976 27.8594L45.965 15.1153L46.0189 15.0614C46.2614 14.8189 46.5038 14.6034 46.7194 14.3878C47.1774 13.9298 47.6354 13.4987 48.0665 13.0676C48.3899 12.7174 48.5785 12.3402 48.5785 11.963C48.5785 11.6666 48.4437 11.3702 48.2013 11.1547C47.6624 10.6428 46.9888 10.6967 46.3422 11.3163L45.965 11.6935C45.2375 12.421 44.4562 13.1485 43.7826 13.9298C43.4054 14.334 43.136 14.8189 43.0282 15.277C42.9204 15.735 42.7857 16.193 42.6779 16.6241C42.193 18.5101 41.708 20.45 41.4116 22.3899C40.9266 25.5153 39.7142 27.6977 37.6127 29.3143C36.993 29.7723 36.6966 30.1764 36.6427 30.6075C36.5888 30.9578 36.7235 31.3081 37.0199 31.6853L37.0468 31.7391L36.993 31.793C36.6966 32.0894 36.4002 32.3858 36.1038 32.6552C35.4842 33.2749 34.8914 33.8407 34.3256 34.4604C32.8168 36.1578 30.9577 36.8314 28.6406 36.5081H28.6137L28.5598 36.3733C28.1557 35.3226 27.9401 35.1609 26.8354 35.1609C25.4075 35.1609 23.9525 35.1609 22.5246 35.1609C21.2044 35.1609 20.8272 35.5381 20.8272 36.8314C20.8272 39.9029 20.8272 43.0013 20.8272 46.0728V50.734H18.079V46.935C18.079 44.4024 18.079 41.8428 18.079 39.3101C18.079 38.7713 17.9443 38.3402 17.6748 38.0707C17.4593 37.8552 17.1899 37.7474 16.8396 37.7474C16.0582 37.7474 15.6272 38.3132 15.6272 39.3101C15.6272 39.822 15.6272 40.334 15.6272 40.8728V41.6542H15.5733C15.1691 41.6542 14.7919 41.6542 14.4147 41.6542C13.5795 41.6542 12.7712 41.6542 11.9629 41.6542C10.8852 41.6542 10.4541 42.0853 10.4541 43.163C10.4541 44.8065 10.4541 46.3692 10.4541 47.7163C10.4541 48.9018 10.8582 49.306 12.0437 49.306C12.852 49.306 13.6334 49.306 14.4686 49.306H15.6541V50.1143C15.6541 50.6262 15.6541 51.0842 15.6541 51.5692C15.6541 52.8086 16.0582 53.2127 17.2976 53.2127C18.1059 53.2127 18.8873 53.2127 19.7225 53.2127H20.881V53.5899C20.881 53.7516 20.881 53.8863 20.881 54.021C20.881 55.4759 21.2313 55.7992 22.7132 55.7992C23.1173 55.7992 23.5484 55.7992 23.9795 55.7992C24.8956 55.7992 25.8655 55.7723 26.8085 55.8262C27.9132 55.8531 28.479 55.4759 28.6406 54.5599V54.506H33.0593C34.8106 54.506 35.08 54.2365 35.08 52.5122C35.08 51.8386 35.08 51.192 35.08 50.5184C35.08 48.8749 35.08 47.1775 35.08 45.507C35.08 45.0759 35.2417 44.7257 35.5111 44.4562C35.7536 44.2138 36.1038 44.079 36.481 44.079C37.2354 44.106 37.7743 44.6448 37.8282 45.4531C37.8282 45.6148 37.8282 45.7764 37.8282 45.9112C37.8282 45.965 37.8282 46.0459 37.8282 46.0998C37.8282 47.4469 37.8282 48.7671 37.8282 50.1143C37.8282 53.1319 37.8282 56.2303 37.8282 59.2749C37.8282 60.0832 37.8282 60.7568 37.8282 61.3226C37.8551 64.6366 37.8551 64.6366 36.2386 67.8428C35.9961 68.3008 35.7536 68.8397 35.4303 69.4324L35.0261 70.2676C34.4064 71.534 33.7598 72.8272 33.1132 74.0936C32.7629 74.7941 32.1702 75.0635 31.4966 74.8479C30.7961 74.6593 30.4458 74.1205 30.4997 73.4469C30.5266 73.1236 30.6883 72.8003 30.823 72.5039C31.3349 71.507 31.8199 70.4832 32.3318 69.4863C33.1132 67.8967 33.9484 66.2801 34.7297 64.6635C34.8914 64.3402 35.08 63.8821 35.08 63.3972C35.107 61.9961 35.107 60.5682 35.107 59.1671V58.6821C35.107 58.1972 34.9722 57.793 34.7028 57.5505C34.4873 57.335 34.2178 57.2272 33.8945 57.2272C33.8945 57.2272 33.8945 57.2272 33.8676 57.2272C33.1132 57.2272 32.6551 57.793 32.6551 58.7091C32.6551 59.1941 32.6551 59.679 32.6551 60.164C32.6551 60.9992 32.6551 61.8345 32.6282 62.6967C32.6282 63.1277 32.5204 63.5858 32.3318 63.963C31.6313 65.4179 30.9038 66.8728 30.1764 68.2739C29.6375 69.3246 29.1256 70.4024 28.5867 71.4531C28.3981 71.8573 28.1557 72.3153 28.0748 72.8003C27.7246 74.7132 28.7484 76.5723 30.5536 77.192C32.3857 77.8386 34.3256 77.0573 35.2417 75.3329C35.8883 74.1205 36.508 72.8811 37.1007 71.6687C37.3971 71.049 37.7204 70.4293 38.0168 69.8096C38.1515 69.5671 38.2593 69.3246 38.394 69.0821C39.4448 67.0345 40.5225 64.906 40.2531 62.4272V62.3464H43.0282V62.4003C43.0282 62.6697 43.0282 62.9122 43.0282 63.1547C43.0282 63.7205 43.0282 64.2324 43.0282 64.7713C43.0551 65.6873 43.5132 66.1454 44.4292 66.1723C45.6417 66.1992 46.7463 66.1992 47.851 66.1723C47.8779 66.1723 47.9049 66.1723 47.9318 66.1723C48.4437 66.1723 48.6862 66.3609 48.8479 66.8728C49.4406 68.7588 50.0873 70.6718 50.707 72.5039C50.9225 73.1505 51.138 73.7972 51.3536 74.4169C51.4344 74.6594 51.5152 74.9018 51.5961 75.1443C51.7847 75.7101 51.9733 76.3029 52.1888 76.8687C52.4582 77.65 53.1049 78.0542 53.7785 77.8117C54.479 77.5692 54.7484 76.9226 54.5329 76.1143C54.479 75.8987 54.3981 75.6562 54.3173 75.4407L53.4013 72.6656H53.4821C53.8862 72.6656 54.2634 72.6656 54.6676 72.6656C55.5298 72.6656 56.3111 72.6656 57.1194 72.6656C57.9816 72.6656 58.5204 72.1806 58.5474 71.4531C58.5474 71.1298 58.4396 70.8334 58.2241 70.6179C57.9546 70.3485 57.5774 70.2138 57.0924 70.2138C56.5805 70.2138 56.0956 70.2138 55.5836 70.2138C54.8023 70.2138 53.994 70.2138 53.1857 70.1868C52.9163 70.1868 52.5391 69.9982 52.4582 69.7827C52.2427 69.2708 52.081 68.7588 51.9194 68.193C51.8386 67.9775 51.7847 67.7619 51.7038 67.5195L51.6769 67.4386H53.051C53.9671 67.4386 54.8562 67.4386 55.7453 67.4386C56.2842 67.4386 56.7152 67.277 56.9577 67.0075C57.1733 66.792 57.281 66.5226 57.2541 66.1723C57.2272 65.4179 56.6883 64.9599 55.7453 64.9599C55.2064 64.9599 54.6676 64.9599 54.1287 64.9599C53.2396 64.9599 52.3235 64.9599 51.4344 64.9329C51.2189 64.9329 50.8417 64.7982 50.7339 64.5827C50.4375 63.8821 49.9525 63.5858 49.0365 63.6127C48.2551 63.6397 47.4468 63.6397 46.6655 63.6127C46.3152 63.6127 45.9919 63.6127 45.6417 63.6127H45.5878V59.3827L45.6686 59.4096C45.8572 59.4635 46.0458 59.5174 46.2344 59.5443C46.6116 59.6252 46.9888 59.706 47.2044 59.9485C48.6054 61.4034 50.3298 62.1847 52.081 62.1847C52.108 62.1847 52.108 62.1847 52.1349 62.1847C53.8862 62.1847 55.5567 61.4034 56.9308 59.9485C57.2541 59.5982 57.766 59.4366 58.2779 59.5443C58.7899 59.6521 59.1671 59.9754 59.3287 60.4065L61.0261 65.1754C62.4002 69.0283 63.7743 72.8542 65.1484 76.707C65.4717 77.5961 66.0645 77.9733 66.765 77.7309C67.0883 77.6231 67.3308 77.4075 67.4655 77.1381C67.6272 76.7878 67.6272 76.3568 67.4655 75.8718C67.0883 74.821 66.7111 73.7702 66.3608 72.7464C66.1992 72.2884 66.0375 71.8034 65.8489 71.3454L64.6904 68.0853C63.5318 64.8521 62.3194 61.4842 61.1608 58.1972C60.8645 57.3889 60.3795 57.0386 59.5981 57.0925C59.3557 57.1195 59.1132 57.0925 58.8437 57.0925C58.736 57.0925 58.6013 57.0925 58.4665 57.0925H58.3857V57.0117C58.6551 55.3682 58.3857 53.8863 57.5774 52.3775C57.3888 52.0272 57.308 51.5961 57.2272 51.165C57.2002 50.9764 57.1463 50.7609 57.0924 50.5723L57.0655 50.4915H59.9484V50.8417C59.9484 51.0303 59.9484 51.2189 59.9484 51.3806C59.9484 52.6469 60.3526 53.0511 61.565 53.0511C63.2355 53.0511 64.6904 53.0511 66.0375 53.0511C67.1691 53.0511 67.6002 52.62 67.6272 51.5153C67.6272 51.0842 67.6272 50.6262 67.6272 50.1682V49.4138L67.708 49.4407C67.7888 49.4676 67.8697 49.4946 67.9235 49.5215C68.0583 49.5754 68.1391 49.6024 68.2469 49.6562C69.6748 50.4645 70.3754 51.7309 70.3484 53.4821C70.3484 60.5143 70.3484 67.6811 70.3484 74.6055V76.2759C70.3484 76.8148 70.4831 77.2189 70.7795 77.4884C70.995 77.7039 71.2914 77.8117 71.6147 77.7847C72.3691 77.7578 72.8272 77.192 72.8272 76.2759V71.7226C72.8272 65.6065 72.8272 59.3018 72.8272 53.078C72.8272 50.249 71.0489 47.8511 68.3007 46.9619L67.6541 46.7464V44.0252L67.7349 44.0521C67.8427 44.079 67.9235 44.079 68.0313 44.106C68.2199 44.1329 68.4085 44.1599 68.5702 44.2138C72.7463 45.2645 75.5484 48.8749 75.5484 53.2127C75.5484 58.2241 75.5484 63.3163 75.5484 68.2469C75.5484 70.9143 75.5484 73.5816 75.5484 76.249C75.5484 76.7878 75.6831 77.2189 75.9526 77.4884C76.1681 77.7039 76.4375 77.7847 76.7878 77.8117C77.5691 77.8117 78.0002 77.2459 78.0272 76.249C78.0272 74.2552 78.0272 72.2614 78.0272 70.2676C78.0002 64.7982 78.0002 58.9785 78.0002 53.2397ZM54.479 4.85002L56.1494 3.15261L70.8603 17.8635L69.136 19.507L54.479 4.85002ZM15.5733 46.8542H12.9329V44.2138H15.5733V46.8542ZM26.0002 53.3205H23.3598V37.6666H26.0002V53.3205ZM43.0282 26.1889C43.5671 23.8179 44.1329 21.393 44.6717 19.049L44.9412 17.8904C44.9412 17.8366 44.995 17.7827 45.0489 17.7827H45.1028L45.1297 17.8366L56.4458 29.1526L54.6676 29.5568C52.4582 30.0687 50.1411 30.6075 47.8779 31.0925C47.851 31.0925 47.7971 31.0925 47.7702 31.0925C47.5546 31.0925 47.2582 30.9578 47.1235 30.8231C45.8033 29.5298 44.5101 28.2366 43.2707 26.9702C43.0821 26.7816 42.9743 26.4044 43.0282 26.1889ZM41.4924 28.964L45.0759 32.5744L43.3785 34.2448L39.7681 30.6075L41.4924 28.964ZM45.6147 57.1195H45.5608C45.3453 57.1733 45.1028 57.2003 44.8603 57.2272C44.3215 57.2811 43.7826 57.3619 43.4593 57.6583C43.136 57.9547 43.0282 58.4666 42.9204 59.0324C42.8665 59.3018 42.8127 59.5443 42.7318 59.8138L42.7049 59.8676H40.28V54.6138H45.6147V57.1195ZM47.0427 51.8656C46.908 52.0003 46.6655 52.0811 46.5038 52.0811C45.3184 52.0811 44.1598 52.0811 42.9474 52.0811C42.5163 52.0811 42.0852 52.0811 41.6541 52.0811H40.28V52.0272C40.28 51.9195 40.28 51.8386 40.2531 51.7578C40.2531 51.5692 40.2261 51.3806 40.2261 51.2189C40.2261 50.5723 40.2261 49.8987 40.2261 49.2521C40.2261 48.0397 40.2261 46.7733 40.2261 45.534C40.1992 43.3785 38.5018 41.7081 36.4002 41.7081C36.3733 41.7081 36.3733 41.7081 36.3463 41.7081C34.2448 41.735 32.5743 43.4324 32.5474 45.5609C32.5204 46.9619 32.5204 48.4169 32.5204 49.791C32.5204 50.4915 32.5204 51.192 32.5204 51.8925C32.5204 51.9195 32.4935 51.9464 32.4665 52.0003C32.4396 52.0272 32.4396 52.0542 32.4127 52.0811L32.3857 52.1081H28.5598V39.0407H28.6137C28.8831 39.0138 29.1525 39.0138 29.422 38.9868C30.0147 38.9599 30.6344 38.9329 31.2272 38.8521C32.7899 38.6366 34.1909 37.936 35.4033 36.7505C36.1308 36.0231 36.8852 35.2687 37.6665 34.4873C38.0437 34.1101 38.4209 33.7329 38.8251 33.3018L38.879 33.248L38.9329 33.3018C39.0945 33.4904 39.2562 33.6521 39.3909 33.8407C39.822 34.3257 40.2261 34.8106 40.6303 35.2956C40.738 35.4573 40.765 35.7267 40.738 35.9153C40.6033 36.7775 40.8189 37.5319 41.3038 38.0977C41.7619 38.6366 42.4893 38.9599 43.3246 38.9599C45.7494 38.9599 48.2282 38.9599 50.5992 38.9599C51.623 38.9599 52.6469 38.9599 53.6437 38.9599H54.6406V41.6542H54.5867C54.5329 41.6542 54.452 41.6542 54.3981 41.6811C54.2365 41.7081 54.0748 41.7081 53.9132 41.7081C52.7816 41.7081 51.65 41.7081 50.5184 41.7081H48.7132C47.2313 41.7081 46.881 42.0314 46.881 43.4863C46.881 43.8904 46.881 44.3215 46.881 44.7526C46.881 45.6687 46.908 46.6386 46.8541 47.5816C46.8002 48.6055 47.1774 49.1982 48.0396 49.5485C48.2821 49.6293 48.5246 49.764 48.7401 49.8987C48.8479 49.9526 48.9287 50.0065 49.0365 50.0604L49.1173 50.1143L49.0365 50.1682C48.8479 50.3298 48.6593 50.4915 48.4976 50.6531C48.0127 51.0303 47.5277 51.4345 47.0427 51.8656ZM54.6406 44.1868V49.9796L54.5329 49.9257C54.1557 49.7371 53.7785 49.5485 53.4013 49.3599C52.1349 48.7132 50.9225 48.1205 49.737 47.5008C49.5484 47.393 49.3867 47.1236 49.3598 46.8811C49.3329 46.2614 49.3329 45.6148 49.3329 44.9682C49.3329 44.7257 49.3329 44.4832 49.3329 44.2407V44.1868H54.6406ZM52.0272 59.8946C50.9494 59.8946 49.9525 59.4635 49.1981 58.7091C48.4437 57.9547 48.0396 56.9578 48.0396 55.907C48.0396 53.7516 49.8178 51.9733 52.0002 51.9733C52.0002 51.9733 52.0002 51.9733 52.0272 51.9733C53.0779 51.9733 54.0748 52.3775 54.8292 53.1319C55.5836 53.8863 56.0147 54.8832 56.0147 55.9609C55.9878 58.0894 54.1826 59.8946 52.0272 59.8946ZM59.8676 48.1205H57.2272V42.8666H59.8676V48.1205ZM65.0406 50.7609H62.4002V40.307H65.0406V50.7609Z" fill="#5ABFC6"/>
<path d="M6.30466 44.2673C4.6342 44.2403 2.96373 44.2403 1.34715 44.2673C0.916062 44.2673 0.565803 44.402 0.296373 44.6714C0.107772 44.9139 0 45.2103 0 45.5336C0.026943 46.2341 0.53886 46.7191 1.34715 46.7191C1.91295 46.746 2.47876 46.7191 3.04456 46.7191C3.28705 46.7191 3.52953 46.7191 3.79896 46.7191C4.04145 46.7191 4.31088 46.7191 4.55337 46.7191C5.11917 46.7191 5.71192 46.7191 6.30466 46.7191C6.73575 46.7191 7.11295 46.5574 7.35544 46.315C7.57098 46.0994 7.67876 45.803 7.67876 45.4528C7.65181 44.7523 7.11295 44.2942 6.30466 44.2673Z" fill="#5ABFC6"/>
<path d="M2.02061 40.1179C2.77501 40.522 3.55636 40.8992 4.31076 41.2764L4.55325 41.3842C4.68796 41.4381 4.82268 41.492 4.95739 41.5189C5.01128 41.5189 5.06517 41.5458 5.09211 41.5458C5.76568 41.465 6.16983 41.1417 6.30454 40.5759C6.43926 39.9832 6.22372 39.4982 5.68486 39.2288C4.74185 38.7168 3.87967 38.2858 3.07138 37.9355C2.85584 37.8277 2.66724 37.8008 2.4517 37.8008C1.99366 37.8008 1.58952 38.0433 1.37398 38.5282C1.13149 39.121 1.37398 39.7676 2.02061 40.1179Z" fill="#5ABFC6"/>
<path d="M5.11898 49.333C5.06509 49.333 5.03815 49.3599 4.98427 49.3599C4.84955 49.3869 4.71484 49.4408 4.58012 49.4947L4.33763 49.6024C3.58323 49.9796 2.80188 50.3568 2.04748 50.761C1.3739 51.1112 1.15836 51.7579 1.42779 52.3776C1.64333 52.8356 2.04748 53.105 2.50551 53.105C2.69411 53.105 2.90965 53.0512 3.1252 52.9703C3.93349 52.5931 4.79566 52.162 5.73867 51.6771C6.27753 51.3807 6.49307 50.8957 6.35836 50.3299C6.1967 49.7372 5.79256 49.4138 5.11898 49.333Z" fill="#5ABFC6"/>
<path d="M51.9731 54.6943C51.2995 54.7212 50.7606 55.287 50.7876 55.9606C50.7876 56.2839 50.9492 56.5803 51.1648 56.8228C51.4073 57.0383 51.7306 57.173 52.027 57.1461C52.7005 57.1192 53.2394 56.5533 53.2125 55.8798C53.2125 55.2331 52.6467 54.6673 51.9731 54.6943Z" fill="#5ABFC6"/>
</g>
<defs>
<clipPath id="clip0_281_8544">
<rect width="78" height="78" fill="white"/>
</clipPath>
</defs>
</svg>
