<svg width="78" height="78" viewBox="0 0 78 78" fill="none" xmlns="http://www.w3.org/2000/svg">
<g clip-path="url(#clip0_281_8551)">
<path d="M77.9722 59.9849C77.9722 59.0411 77.4441 58.5415 76.5268 58.5415C72.8853 58.5415 69.2438 58.5137 65.6301 58.5415C64.2124 58.5692 63.0449 59.2077 62.4056 60.4568C61.6551 61.8725 60.5154 62.8162 59.1811 63.5657C56.6793 64.9813 53.9829 65.8141 51.2032 66.3692C43.8646 67.8959 36.4705 67.9792 29.0763 66.7856C25.7962 66.2582 22.5717 65.4255 19.5695 63.9265C18.1241 63.1771 16.7064 62.3721 15.9002 60.8454C15.0663 59.2354 13.7598 58.5137 11.953 58.5137C8.56169 58.5415 5.19818 58.5137 1.80688 58.5137C0.472593 58.5137 0.027832 58.9579 0.027832 60.2625C0.027832 65.5643 0.027832 70.866 0.027832 76.1678C0.027832 76.9728 0.250213 77.5557 0.945152 77.9721C26.3243 77.9721 51.7035 77.9721 77.1105 77.9721C77.6387 77.639 78.0278 77.2226 78.0278 76.5564C78 71.0603 78 65.5087 77.9722 59.9849ZM75.3315 75.3351C51.1198 75.3351 26.9359 75.3351 2.6686 75.3351C2.6686 70.5885 2.6686 65.9251 2.6686 61.123C2.97438 61.123 3.25235 61.123 3.53033 61.123C6.33788 61.123 9.14544 61.1507 11.953 61.123C12.7313 61.123 13.2595 61.4006 13.6208 62.0945C14.7328 64.2041 16.6508 65.3977 18.7078 66.4248C21.9601 68.0347 25.407 68.8952 28.9651 69.4226C37.3322 70.6717 45.6714 70.5052 53.8995 68.3956C56.7071 67.6739 59.4035 66.6468 61.794 64.9536C62.9337 64.1486 63.8233 63.1771 64.5182 61.9557C64.7406 61.5949 65.2409 61.1785 65.6301 61.1507C68.8546 61.0952 72.0791 61.123 75.3315 61.123C75.3315 65.8974 75.3315 70.5885 75.3315 75.3351Z" fill="#5ABFC6"/>
<path d="M33.1346 14.4343C34.2187 14.4343 35.275 14.4343 36.4147 14.4343C36.4147 16.4328 36.3869 18.2926 36.4425 20.1802C36.4703 20.8186 36.6093 21.5125 36.9151 22.0677C39.6392 26.8143 42.419 31.5609 45.1988 36.2521C45.4767 36.6962 45.8659 37.1403 46.3107 37.3901C46.7276 37.64 46.7832 37.9175 46.7832 38.3061C46.7832 40.3602 46.7832 42.4143 46.7832 44.4962C46.7832 49.4093 46.811 54.3225 46.7832 59.2634C46.7832 60.1517 47.0612 60.7624 47.8395 61.2343C48.9514 61.9005 50.0077 62.6222 51.064 63.3716C51.7034 63.8158 52.2871 63.8158 52.8987 63.3716C53.9272 62.6499 54.9835 61.9282 56.0676 61.2898C56.9293 60.7901 57.2073 60.0962 57.2073 59.1246C57.1795 52.3239 57.2073 45.5232 57.1795 38.7225C57.1795 38.0563 57.2351 37.5567 57.93 37.2513C58.2636 37.0848 58.5416 36.6962 58.7362 36.3631C61.5715 31.5609 64.3791 26.7311 67.1588 21.9012C67.409 21.457 67.548 20.9019 67.548 20.3745C67.6036 18.4592 67.5758 16.5161 67.5758 14.462C68.8267 14.462 69.9664 14.462 71.1339 14.462C72.9963 14.462 74.0526 13.4072 74.0526 11.5474C74.0526 8.74386 74.0526 5.9403 74.0526 3.13675C74.0526 1.22144 72.9963 0.194397 71.0783 0.194397C58.347 0.194397 45.5879 0.194397 32.8566 0.194397C30.883 0.194397 29.8545 1.22144 29.8545 3.19226C29.8545 5.85703 29.8545 8.54956 29.8545 11.2143C29.9101 13.4905 30.8552 14.4343 33.1346 14.4343ZM49.3962 53.0734C49.3962 52.9069 49.5352 52.6848 49.6742 52.5738C51.2308 51.519 52.7875 50.4919 54.372 49.4649C54.3998 49.4371 54.4553 49.4649 54.5943 49.4649C54.5943 50.4364 54.5943 51.4079 54.5943 52.3517C54.5943 52.4905 54.5109 52.6848 54.4275 52.7403C52.7875 53.8506 51.1474 54.9332 49.3962 56.099C49.3962 54.9887 49.3684 54.0172 49.3962 53.0734ZM49.3962 46.467C49.3962 46.356 49.5352 46.1894 49.6464 46.1061C51.2308 45.0236 52.8431 43.9688 54.5943 42.7752C54.5943 43.9133 54.6221 44.857 54.5665 45.8008C54.5665 45.9951 54.3997 46.2449 54.2608 46.356C52.7041 47.4108 51.1196 48.4656 49.3962 49.6037C49.3962 48.4933 49.3962 47.494 49.3962 46.467ZM54.5665 58.7638C54.3164 59.9019 53.0099 60.0407 52.2315 60.6791C52.0925 60.7901 51.5922 60.5958 51.3142 60.4293C50.7027 60.0684 50.0911 59.6521 49.3962 59.2079C51.1196 58.0698 52.7875 56.9873 54.5943 55.7937C54.5943 56.904 54.7611 57.8755 54.5665 58.7638ZM53.4824 40.4435C52.1759 41.3318 50.8417 42.1923 49.424 43.136C49.424 41.2762 49.424 39.583 49.424 37.862C51.1474 37.862 52.8153 37.862 54.5109 37.862C54.8167 39.3887 54.7611 39.583 53.4824 40.4435ZM64.935 19.5972C64.6571 19.5972 64.3791 19.5972 64.0733 19.5972C59.8203 19.5972 55.5672 19.5972 51.3142 19.5972C50.0633 19.5972 49.3962 20.0414 49.3962 20.9019C49.3962 21.7624 50.0355 22.2065 51.2864 22.2065C55.2059 22.2065 59.1253 22.2065 63.0448 22.2065C63.3228 22.2065 63.6007 22.2065 63.9621 22.2065C63.8231 22.4841 63.7397 22.7061 63.6285 22.9004C61.3491 26.8143 59.0697 30.7282 56.7903 34.6421C56.568 35.0307 56.3178 35.225 55.8174 35.1972C53.2323 35.1695 50.6471 35.1972 48.0897 35.1695C47.8395 35.1695 47.4504 35.0307 47.3392 34.8364C44.9208 30.756 42.558 26.6755 40.1674 22.5674C40.1118 22.4841 40.1118 22.4008 40.0562 22.2065C41.3905 22.2065 42.6414 22.2065 43.8923 22.2065C44.893 22.2065 45.4767 21.7346 45.5045 20.9296C45.5045 20.1524 44.9208 19.625 43.9201 19.5972C42.3078 19.5695 40.6955 19.5972 39.0277 19.5972C39.0277 17.8485 39.0277 16.183 39.0277 14.4898C47.6727 14.4898 56.2622 14.4898 64.935 14.4898C64.935 16.1553 64.935 17.8207 64.935 19.5972ZM32.5509 2.80365C33.357 2.80365 34.1631 2.80365 35.1082 2.80365C35.1082 3.55312 35.1082 4.30258 35.1082 5.07981C35.1082 6.07909 35.5808 6.63425 36.4147 6.63425C37.1931 6.63425 37.6656 6.07909 37.6934 5.10756C37.7212 4.3581 37.6934 3.60863 37.6934 2.80365C38.5551 2.80365 39.3613 2.80365 40.2786 2.80365C40.2786 3.69191 40.223 4.5524 40.2786 5.4129C40.3342 6.19013 40.8901 6.63425 41.6129 6.6065C42.3078 6.57874 42.7804 6.10685 42.836 5.35739C42.8638 5.10756 42.836 4.82998 42.836 4.58016C42.836 3.99724 42.836 3.41433 42.836 2.77589C43.7255 2.77589 44.5316 2.77589 45.4489 2.77589C45.4489 3.55312 45.4489 4.30258 45.4489 5.05205C45.4489 6.02358 45.8937 6.55098 46.6998 6.57874C47.5337 6.6065 48.0341 6.05134 48.0619 5.05205C48.0619 4.30258 48.0619 3.55312 48.0619 2.74813C48.9236 2.74813 49.7298 2.74813 50.6749 2.74813C50.6749 3.58087 50.6471 4.44137 50.6749 5.27411C50.7027 6.07909 51.203 6.55098 51.9258 6.57874C52.6763 6.6065 53.2045 6.10685 53.2323 5.27411C53.26 4.46913 53.2323 3.63639 53.2323 2.77589C54.1218 2.77589 54.9279 2.77589 55.8452 2.77589C55.8452 3.55312 55.8452 4.30258 55.8452 5.07981C55.8452 6.05134 56.3178 6.57874 57.1239 6.6065C57.9578 6.63425 58.4582 6.07909 58.4582 5.07981C58.4582 4.38586 58.4582 3.69191 58.4582 2.99796C58.4582 2.94244 58.486 2.88692 58.5138 2.77589C59.3477 2.77589 60.1261 2.77589 61.0434 2.77589C61.0434 3.55312 61.0434 4.33034 61.0434 5.07981C61.0434 6.05134 61.4881 6.6065 62.2943 6.6065C63.1282 6.63425 63.6007 6.07909 63.6285 5.07981C63.6563 4.33034 63.6285 3.58087 63.6285 2.80365C64.4903 2.80365 65.2964 2.80365 66.2137 2.80365C66.2137 3.55312 66.2137 4.27482 66.2137 5.02429C66.2137 6.05134 66.6863 6.6065 67.4924 6.63425C68.3541 6.66201 68.7989 6.07909 68.8267 5.02429C68.8267 4.3581 68.8267 3.69191 68.8267 3.02571C68.8267 2.9702 68.8545 2.94244 68.8823 2.83141C69.6884 2.83141 70.4946 2.83141 71.3563 2.83141C71.3563 5.80151 71.3563 8.77162 71.3563 11.7972C58.4304 11.7972 45.4767 11.7972 32.4675 11.7972C32.5509 8.79938 32.5509 5.82927 32.5509 2.80365Z" fill="#5ABFC6"/>
<path d="M6.86601 19.5694C9.84035 21.2072 10.8967 24.4548 9.50678 27.3694C8.28369 29.9509 8.0891 32.7267 8.75625 35.5303C9.67357 39.4442 11.953 42.331 15.4555 44.2463C17.1233 45.1623 18.1518 46.5225 18.4854 48.3822C18.68 49.5481 18.402 50.6029 17.985 51.6854C16.9843 54.2947 18.819 56.9872 21.8767 57.015C23.2666 56.9595 24.4897 56.1545 25.1846 54.6C28.02 48.3545 25.5738 40.9986 19.5139 37.5844C16.345 35.8079 15.4555 33.1986 16.8453 29.8399C19.4861 23.4833 17.0677 16.4328 11.0634 13.0741C8.00571 11.3531 7.08839 8.71604 8.36708 5.49612C9.20101 3.38651 8.33928 1.16587 6.33786 0.333125C4.36423 -0.527374 2.16822 0.388641 1.2231 2.44273C-1.66784 8.88259 0.667153 16.183 6.86601 19.5694ZM3.41911 3.91391C3.83608 2.91462 4.47542 2.55377 5.25375 2.8591C6.03208 3.1922 6.22667 3.88615 5.8375 4.88544C4.39203 8.57726 5.58732 12.5467 8.81184 14.7118C9.14541 14.9338 9.50678 15.1281 9.86815 15.3502C14.6771 18.0983 16.6508 23.7886 14.4825 28.8961C13.593 31.0057 13.3428 33.1153 14.1212 35.2805C14.8161 37.2513 16.1226 38.7225 17.985 39.7217C20.7926 41.2207 22.6272 43.4968 23.4334 46.578C24.0449 48.8819 23.8781 51.158 22.9608 53.3787C22.5716 54.2947 21.9045 54.6556 21.154 54.3502C20.4312 54.0726 20.2088 53.3232 20.5424 52.4072C22.1269 48.2435 20.6814 44.2185 16.8175 42.0534C11.675 39.1388 9.75696 33.5872 12.0086 28.1467C12.4533 27.0641 12.6479 25.8983 12.8147 25.2598C12.6757 21.4847 11.2302 19.0698 8.39488 17.4876C5.11476 15.6555 3.22453 12.9353 2.69638 9.27121C2.4462 7.43918 2.72417 5.63491 3.41911 3.91391Z" fill="#5ABFC6"/>
<path d="M9.7572 46.7444C8.70089 46.3836 7.92256 45.7451 7.67238 44.496C7.36661 42.8861 5.80994 41.748 4.22548 41.6647C1.33453 41.5259 -0.5835 44.0519 0.22263 46.9942C1.6681 52.2405 6.53268 54.5999 11.1193 54.9885C13.2041 55.0163 14.9553 53.5174 15.1499 51.491C15.3445 49.4092 13.9268 47.5772 11.842 47.2163C11.1471 47.1053 10.4243 46.9665 9.7572 46.7444ZM12.537 51.3245C12.4258 51.9629 11.8976 52.3793 10.9247 52.3515C7.97815 51.9352 5.1428 50.9359 3.44715 47.9935C3.05798 47.3273 2.8356 46.5224 2.66882 45.7451C2.52983 45.0512 3.00239 44.4405 3.64173 44.3017C4.36447 44.1629 5.03161 44.5238 5.1706 45.2455C5.64316 47.5216 7.25542 48.632 9.28464 49.2982C9.97958 49.5202 10.7301 49.6035 11.4806 49.7978C12.259 49.9921 12.6759 50.575 12.537 51.3245Z" fill="#5ABFC6"/>
<path d="M31.4389 36.5848C33.6349 34.5585 34.6912 32.0048 34.6912 28.5905C34.6356 28.1742 34.6356 27.3414 34.4411 26.5642C34.2187 25.5371 33.9129 24.5101 33.5515 23.5386C32.7454 21.429 30.5772 20.4019 28.548 21.1514C26.5187 21.9008 25.5458 24.0382 26.2408 26.2033C26.4909 26.9528 26.7133 27.73 26.8245 28.5072C26.9635 29.4788 26.7689 30.3393 25.935 31.061C24.7953 32.0603 24.4617 33.3927 24.8509 34.8638C25.6292 37.8339 29.1039 38.7222 31.4389 36.5848ZM27.7418 33.004C29.5765 31.3941 29.7433 29.3955 29.2985 27.2304C29.1595 26.6197 28.9371 26.009 28.7425 25.3984C28.4924 24.5656 28.7703 23.8717 29.4653 23.6218C30.188 23.372 30.9108 23.6774 31.1609 24.5379C31.6057 25.9813 31.9393 27.4524 32.3006 28.8959C32.245 28.9236 32.1616 28.9236 32.1061 28.9514C32.1061 31.2553 31.3833 33.2261 29.6043 34.7806C28.7981 35.4745 27.6862 35.308 27.4639 34.4197C27.3527 33.9756 27.4361 33.2539 27.7418 33.004Z" fill="#5ABFC6"/>
<path d="M60.0426 59.2635C60.543 60.013 61.4603 60.013 62.2108 59.2357C65.5465 55.9325 68.8544 52.6016 72.1623 49.2984C72.3291 49.1318 72.4959 48.9653 72.6071 48.771C73.1075 47.8827 72.4681 46.8557 71.2728 46.8834C71.106 46.9667 70.7447 47.0777 70.5223 47.3276C67.0754 50.7418 63.6563 54.156 60.2372 57.598C59.709 58.0977 59.6256 58.6806 60.0426 59.2635Z" fill="#5ABFC6"/>
<path d="M33.1068 47.0224C32.5509 46.7449 31.9949 46.8004 31.5501 47.2723C31.1054 47.7442 31.1054 48.2993 31.4112 48.8267C31.5224 49.021 31.7169 49.1876 31.8559 49.3541C35.1082 52.6018 38.3884 55.8772 41.6407 59.1249C41.8075 59.2915 41.9742 59.5413 42.1688 59.5691C42.5858 59.6523 43.1139 59.7634 43.4753 59.5968C43.8367 59.4303 44.0313 58.9306 44.337 58.542C44.0591 58.0979 43.8923 57.7093 43.6421 57.4317C40.3064 54.073 36.9429 50.7143 33.5794 47.3833C33.4682 47.2723 33.3014 47.1335 33.1068 47.0224Z" fill="#5ABFC6"/>
<path d="M42.1689 50.4641C42.6137 50.5473 43.1418 50.6861 43.531 50.5196C43.8646 50.3808 44.0592 49.8534 44.3371 49.4925C44.087 49.0484 43.948 48.6876 43.6978 48.41C42.0577 46.3559 40.4177 44.3018 38.7776 42.2477C38.1939 41.526 37.4433 41.3872 36.8318 41.8591C36.2202 42.331 36.1646 43.1082 36.7484 43.8299C38.3884 45.9118 40.0563 47.9659 41.7242 50.0199C41.8631 50.2143 42.0021 50.4363 42.1689 50.4641Z" fill="#5ABFC6"/>
<path d="M62.2945 50.02C63.9346 47.9937 65.5469 45.9674 67.1591 43.941C67.3815 43.6635 67.4927 43.3304 67.7429 42.8307C67.4093 42.4699 67.1313 42.0257 66.7422 41.8037C66.1306 41.4706 65.6025 41.7759 65.1855 42.2756C63.5454 44.3296 61.9054 46.3837 60.2653 48.4101C59.6538 49.1873 59.6538 49.9645 60.2931 50.4364C60.9324 50.9638 61.6552 50.825 62.2945 50.02Z" fill="#5ABFC6"/>
<path d="M27.3252 44.2186C27.2974 44.968 27.8811 45.5509 28.6039 45.5509C29.3266 45.5509 29.8825 44.9958 29.8825 44.3018C29.8825 43.5801 29.3544 43.025 28.6317 42.9972C27.9645 42.9694 27.353 43.4968 27.3252 44.2186Z" fill="#5ABFC6"/>
<path d="M75.3871 45.5513C76.1098 45.5513 76.6379 44.9961 76.6379 44.2744C76.6379 43.5527 76.082 42.9975 75.3871 42.9698C74.6921 42.9698 74.1084 43.5249 74.0806 44.2189C74.0806 44.9961 74.6365 45.5513 75.3871 45.5513Z" fill="#5ABFC6"/>
<path d="M21.9044 70.2276C19.0135 70.2276 16.1225 70.2276 13.2594 70.2276C12.2865 70.2276 11.7583 70.6995 11.7583 71.5045C11.7583 72.3094 12.2865 72.7813 13.2316 72.7813C14.677 72.7813 16.1225 72.7813 17.568 72.7813C19.0135 72.7813 20.4589 72.7813 21.9044 72.7813C22.8773 72.7813 23.4055 72.3094 23.4055 71.5045C23.4055 70.7272 22.8773 70.2276 21.9044 70.2276Z" fill="#5ABFC6"/>
<path d="M7.47741 70.2282C7.36622 70.2282 7.28283 70.2282 7.17164 70.2282C6.94926 70.2282 6.69908 70.2005 6.4767 70.2282C5.75396 70.2837 5.2536 70.7556 5.2536 71.4496C5.22581 72.1713 5.69837 72.6987 6.4489 72.7819C6.78247 72.8097 7.11604 72.8097 7.44961 72.8097C8.53372 72.8097 9.11747 72.3656 9.11747 71.5328C9.14526 70.7279 8.53372 70.256 7.47741 70.2282Z" fill="#5ABFC6"/>
</g>
<defs>
<clipPath id="clip0_281_8551">
<rect width="78" height="78" fill="white"/>
</clipPath>
</defs>
</svg>
