<svg width="79" height="79" viewBox="0 0 79 79" fill="none" xmlns="http://www.w3.org/2000/svg">
<path d="M78.0002 54.2397C77.9733 49.0935 74.4707 44.5132 69.4862 43.1122C69.0821 43.0044 68.6779 42.9236 68.2468 42.8158C68.0582 42.7619 67.8427 42.735 67.6272 42.6811H67.5733V42.6272C67.5733 42.3578 67.5733 42.1153 67.5733 41.8459C67.5733 41.2531 67.5733 40.7143 67.5733 40.1485C67.5463 39.2324 67.1152 38.7744 66.2531 38.7744C64.5557 38.7474 62.8582 38.7474 61.2147 38.7744C60.4064 38.7744 59.9484 39.2324 59.9215 40.0946C59.9215 40.364 59.9215 40.6334 59.9215 40.9029C59.9215 41.0106 59.9215 41.1454 59.9215 41.2531V41.307H57.1733V40.5796C57.1733 40.0946 57.1733 39.6366 57.1733 39.1785C57.1733 37.8044 56.7961 37.4272 55.4759 37.4272C52.3235 37.4272 49.1712 37.4272 46.0458 37.4272C45.8842 37.4272 45.7225 37.4272 45.48 37.4003C45.3453 37.4003 45.2106 37.3733 45.022 37.3733H44.8603L44.9681 37.2656C45.2106 37.0231 45.4531 36.8075 45.6686 36.592C46.1805 36.107 46.6116 35.6759 47.0966 35.2987C47.6355 34.8676 48.1204 34.5982 48.5515 34.4904C50.2489 34.0863 52.0002 33.6821 53.6707 33.278C55.3681 32.9008 57.1194 32.4967 58.8437 32.0656C59.3557 31.9309 59.8676 31.6614 60.2448 31.2842C62.2386 29.3443 64.2323 27.3505 66.1453 25.4106C66.6572 24.8987 67.1691 24.3868 67.681 23.8749L67.7349 23.821C67.9774 23.5785 68.2199 23.336 68.7318 23.5785C69.3246 23.9018 69.8634 23.5516 70.1867 23.2283C70.6178 22.7702 71.0759 22.3391 71.507 21.9081C72.1805 21.2345 72.8811 20.534 73.5546 19.8334C74.2821 19.106 74.2821 18.4863 73.5277 17.7319C68.0852 12.2894 62.6427 6.84691 57.3619 1.56608C56.5805 0.784737 55.9608 0.784737 55.1525 1.59303C54.8023 1.94329 54.4251 2.32049 54.1018 2.67075C53.4821 3.29044 52.8624 3.93707 52.2158 4.52981C51.5691 5.12256 51.0572 5.85002 51.7308 6.9008L51.7577 6.95469L51.7308 6.98163C51.5691 7.11634 51.4075 7.278 51.2728 7.41272C50.9225 7.73603 50.5992 8.0324 50.3028 8.35572C50.0064 8.67904 49.8448 9.0293 49.8448 9.37956C49.8448 9.67593 49.9795 9.9723 50.2489 10.2148C50.7608 10.6998 51.4614 10.6459 52.0541 10.107C52.4044 9.7837 52.7007 9.43344 53.0241 9.11013C53.1588 8.97541 53.2665 8.8407 53.4013 8.70598L53.4551 8.65209L53.509 8.70598L66.28 21.5578L66.2261 21.6117L58.9515 28.9132L58.8976 28.8594L45.965 16.1153L46.0189 16.0614C46.2614 15.8189 46.5038 15.6034 46.7194 15.3878C47.1774 14.9298 47.6354 14.4987 48.0665 14.0676C48.3899 13.7174 48.5785 13.3402 48.5785 12.963C48.5785 12.6666 48.4437 12.3702 48.2013 12.1547C47.6624 11.6428 46.9888 11.6967 46.3422 12.3163L45.965 12.6935C45.2375 13.421 44.4562 14.1485 43.7826 14.9298C43.4054 15.334 43.136 15.8189 43.0282 16.277C42.9204 16.735 42.7857 17.193 42.6779 17.6241C42.193 19.5101 41.708 21.45 41.4116 23.3899C40.9266 26.5153 39.7142 28.6977 37.6127 30.3143C36.993 30.7723 36.6966 31.1764 36.6427 31.6075C36.5888 31.9578 36.7235 32.3081 37.0199 32.6853L37.0468 32.7391L36.993 32.793C36.6966 33.0894 36.4002 33.3858 36.1038 33.6552C35.4842 34.2749 34.8914 34.8407 34.3256 35.4604C32.8168 37.1578 30.9577 37.8314 28.6406 37.5081H28.6137L28.5598 37.3733C28.1557 36.3226 27.9401 36.1609 26.8354 36.1609C25.4075 36.1609 23.9525 36.1609 22.5246 36.1609C21.2044 36.1609 20.8272 36.5381 20.8272 37.8314C20.8272 40.9029 20.8272 44.0013 20.8272 47.0728V51.734H18.079V47.935C18.079 45.4024 18.079 42.8428 18.079 40.3101C18.079 39.7713 17.9443 39.3402 17.6748 39.0707C17.4593 38.8552 17.1899 38.7474 16.8396 38.7474C16.0582 38.7474 15.6272 39.3132 15.6272 40.3101C15.6272 40.822 15.6272 41.334 15.6272 41.8728V42.6542H15.5733C15.1691 42.6542 14.7919 42.6542 14.4147 42.6542C13.5795 42.6542 12.7712 42.6542 11.9629 42.6542C10.8852 42.6542 10.4541 43.0853 10.4541 44.163C10.4541 45.8065 10.4541 47.3692 10.4541 48.7163C10.4541 49.9018 10.8582 50.306 12.0437 50.306C12.852 50.306 13.6334 50.306 14.4686 50.306H15.6541V51.1143C15.6541 51.6262 15.6541 52.0842 15.6541 52.5692C15.6541 53.8086 16.0582 54.2127 17.2976 54.2127C18.1059 54.2127 18.8873 54.2127 19.7225 54.2127H20.881V54.5899C20.881 54.7516 20.881 54.8863 20.881 55.021C20.881 56.4759 21.2313 56.7992 22.7132 56.7992C23.1173 56.7992 23.5484 56.7992 23.9795 56.7992C24.8956 56.7992 25.8655 56.7723 26.8085 56.8262C27.9132 56.8531 28.479 56.4759 28.6406 55.5599V55.506H33.0593C34.8106 55.506 35.08 55.2366 35.08 53.5122C35.08 52.8386 35.08 52.192 35.08 51.5184C35.08 49.8749 35.08 48.1775 35.08 46.507C35.08 46.0759 35.2417 45.7257 35.5111 45.4562C35.7536 45.2138 36.1038 45.079 36.481 45.079C37.2354 45.106 37.7743 45.6448 37.8282 46.4531C37.8282 46.6148 37.8282 46.7764 37.8282 46.9112C37.8282 46.965 37.8282 47.0459 37.8282 47.0998C37.8282 48.4469 37.8282 49.7671 37.8282 51.1143C37.8282 54.1319 37.8282 57.2303 37.8282 60.2749C37.8282 61.0832 37.8282 61.7568 37.8282 62.3226C37.8551 65.6366 37.8551 65.6366 36.2386 68.8428C35.9961 69.3008 35.7536 69.8397 35.4303 70.4324L35.0261 71.2676C34.4064 72.534 33.7598 73.8272 33.1132 75.0936C32.7629 75.7941 32.1702 76.0635 31.4966 75.8479C30.7961 75.6593 30.4458 75.1205 30.4997 74.4469C30.5266 74.1236 30.6883 73.8003 30.823 73.5039C31.3349 72.507 31.8199 71.4832 32.3318 70.4863C33.1132 68.8967 33.9484 67.2801 34.7297 65.6635C34.8914 65.3402 35.08 64.8821 35.08 64.3972C35.107 62.9961 35.107 61.5682 35.107 60.1671V59.6821C35.107 59.1972 34.9722 58.793 34.7028 58.5505C34.4873 58.335 34.2178 58.2272 33.8945 58.2272C33.8945 58.2272 33.8945 58.2272 33.8676 58.2272C33.1132 58.2272 32.6551 58.793 32.6551 59.7091C32.6551 60.1941 32.6551 60.679 32.6551 61.164C32.6551 61.9992 32.6551 62.8345 32.6282 63.6967C32.6282 64.1277 32.5204 64.5858 32.3318 64.963C31.6313 66.4179 30.9038 67.8728 30.1764 69.2739C29.6375 70.3246 29.1256 71.4024 28.5867 72.4531C28.3981 72.8573 28.1557 73.3153 28.0748 73.8003C27.7246 75.7132 28.7484 77.5723 30.5536 78.192C32.3857 78.8386 34.3256 78.0573 35.2417 76.3329C35.8883 75.1205 36.508 73.8811 37.1007 72.6687C37.3971 72.049 37.7204 71.4293 38.0168 70.8096C38.1515 70.5671 38.2593 70.3246 38.394 70.0821C39.4448 68.0345 40.5225 65.906 40.2531 63.4272V63.3464H43.0282V63.4003C43.0282 63.6697 43.0282 63.9122 43.0282 64.1547C43.0282 64.7205 43.0282 65.2324 43.0282 65.7713C43.0551 66.6873 43.5132 67.1454 44.4292 67.1723C45.6417 67.1992 46.7463 67.1992 47.851 67.1723C47.8779 67.1723 47.9049 67.1723 47.9318 67.1723C48.4437 67.1723 48.6862 67.3609 48.8479 67.8728C49.4406 69.7588 50.0873 71.6718 50.707 73.5039C50.9225 74.1505 51.138 74.7972 51.3536 75.4169C51.4344 75.6594 51.5152 75.9018 51.5961 76.1443C51.7847 76.7101 51.9733 77.3029 52.1888 77.8687C52.4582 78.65 53.1049 79.0542 53.7785 78.8117C54.479 78.5692 54.7484 77.9226 54.5329 77.1143C54.479 76.8987 54.3981 76.6562 54.3173 76.4407L53.4013 73.6656H53.4821C53.8862 73.6656 54.2634 73.6656 54.6676 73.6656C55.5297 73.6656 56.3111 73.6656 57.1194 73.6656C57.9816 73.6656 58.5204 73.1806 58.5474 72.4531C58.5474 72.1298 58.4396 71.8334 58.2241 71.6179C57.9546 71.3485 57.5774 71.2138 57.0924 71.2138C56.5805 71.2138 56.0956 71.2138 55.5836 71.2138C54.8023 71.2138 53.994 71.2138 53.1857 71.1868C52.9163 71.1868 52.5391 70.9982 52.4582 70.7827C52.2427 70.2708 52.081 69.7588 51.9194 69.193C51.8386 68.9775 51.7847 68.7619 51.7038 68.5195L51.6769 68.4386H53.051C53.9671 68.4386 54.8562 68.4386 55.7453 68.4386C56.2842 68.4386 56.7152 68.277 56.9577 68.0075C57.1733 67.792 57.281 67.5226 57.2541 67.1723C57.2272 66.4179 56.6883 65.9599 55.7453 65.9599C55.2064 65.9599 54.6676 65.9599 54.1287 65.9599C53.2396 65.9599 52.3235 65.9599 51.4344 65.9329C51.2189 65.9329 50.8417 65.7982 50.7339 65.5827C50.4375 64.8821 49.9525 64.5858 49.0365 64.6127C48.2551 64.6397 47.4468 64.6397 46.6655 64.6127C46.3152 64.6127 45.9919 64.6127 45.6417 64.6127H45.5878V60.3827L45.6686 60.4096C45.8572 60.4635 46.0458 60.5174 46.2344 60.5443C46.6116 60.6252 46.9888 60.706 47.2044 60.9485C48.6054 62.4034 50.3298 63.1847 52.081 63.1847C52.108 63.1847 52.108 63.1847 52.1349 63.1847C53.8862 63.1847 55.5567 62.4034 56.9308 60.9485C57.2541 60.5982 57.766 60.4366 58.2779 60.5443C58.7899 60.6521 59.1671 60.9754 59.3287 61.4065L61.0261 66.1754C62.4002 70.0283 63.7743 73.8542 65.1484 77.707C65.4717 78.5961 66.0645 78.9733 66.765 78.7309C67.0883 78.6231 67.3308 78.4075 67.4655 78.1381C67.6272 77.7878 67.6272 77.3568 67.4655 76.8718C67.0883 75.821 66.7111 74.7702 66.3608 73.7464C66.1992 73.2884 66.0375 72.8034 65.8489 72.3454L64.6904 69.0853C63.5318 65.8521 62.3194 62.4842 61.1608 59.1972C60.8645 58.3889 60.3795 58.0386 59.5981 58.0925C59.3557 58.1195 59.1132 58.0925 58.8437 58.0925C58.736 58.0925 58.6013 58.0925 58.4665 58.0925H58.3857V58.0117C58.6551 56.3682 58.3857 54.8863 57.5774 53.3775C57.3888 53.0272 57.308 52.5961 57.2272 52.165C57.2002 51.9764 57.1463 51.7609 57.0924 51.5723L57.0655 51.4915H59.9484V51.8417C59.9484 52.0303 59.9484 52.2189 59.9484 52.3806C59.9484 53.6469 60.3525 54.0511 61.565 54.0511C63.2354 54.0511 64.6904 54.0511 66.0375 54.0511C67.1691 54.0511 67.6002 53.62 67.6272 52.5153C67.6272 52.0842 67.6272 51.6262 67.6272 51.1682V50.4138L67.708 50.4407C67.7888 50.4676 67.8697 50.4946 67.9235 50.5215C68.0583 50.5754 68.1391 50.6024 68.2468 50.6562C69.6748 51.4645 70.3753 52.7309 70.3484 54.4821C70.3484 61.5143 70.3484 68.6811 70.3484 75.6055V77.2759C70.3484 77.8148 70.4831 78.2189 70.7795 78.4884C70.995 78.7039 71.2914 78.8117 71.6147 78.7847C72.3691 78.7578 72.8272 78.192 72.8272 77.2759V72.7226C72.8272 66.6065 72.8272 60.3018 72.8272 54.078C72.8272 51.249 71.0489 48.8511 68.3007 47.9619L67.6541 47.7464V45.0252L67.7349 45.0521C67.8427 45.079 67.9235 45.079 68.0313 45.106C68.2199 45.1329 68.4085 45.1599 68.5702 45.2138C72.7463 46.2645 75.5484 49.8749 75.5484 54.2127C75.5484 59.2241 75.5484 64.3163 75.5484 69.2469C75.5484 71.9143 75.5484 74.5816 75.5484 77.249C75.5484 77.7878 75.6831 78.2189 75.9526 78.4884C76.1681 78.7039 76.4375 78.7847 76.7878 78.8117C77.5691 78.8117 78.0002 78.2459 78.0272 77.249C78.0272 75.2552 78.0272 73.2614 78.0272 71.2676C78.0002 65.7982 78.0002 59.9785 78.0002 54.2397ZM54.479 5.85002L56.1494 4.15261L70.8603 18.8635L69.136 20.507L54.479 5.85002ZM15.5733 47.8542H12.9329V45.2138H15.5733V47.8542ZM26.0002 54.3205H23.3598V38.6666H26.0002V54.3205ZM43.0282 27.1889C43.5671 24.8179 44.1329 22.393 44.6717 20.049L44.9412 18.8904C44.9412 18.8366 44.995 18.7827 45.0489 18.7827H45.1028L45.1297 18.8366L56.4458 30.1526L54.6676 30.5568C52.4582 31.0687 50.1411 31.6075 47.8779 32.0925C47.851 32.0925 47.7971 32.0925 47.7702 32.0925C47.5546 32.0925 47.2582 31.9578 47.1235 31.8231C45.8033 30.5298 44.5101 29.2366 43.2707 27.9702C43.0821 27.7816 42.9743 27.4044 43.0282 27.1889ZM41.4924 29.964L45.0759 33.5744L43.3785 35.2448L39.7681 31.6075L41.4924 29.964ZM45.6147 58.1195H45.5608C45.3453 58.1733 45.1028 58.2003 44.8603 58.2272C44.3215 58.2811 43.7826 58.3619 43.4593 58.6583C43.136 58.9547 43.0282 59.4666 42.9204 60.0324C42.8665 60.3018 42.8127 60.5443 42.7318 60.8138L42.7049 60.8676H40.28V55.6138H45.6147V58.1195ZM47.0427 52.8656C46.908 53.0003 46.6655 53.0811 46.5038 53.0811C45.3184 53.0811 44.1598 53.0811 42.9474 53.0811C42.5163 53.0811 42.0852 53.0811 41.6541 53.0811H40.28V53.0272C40.28 52.9195 40.28 52.8386 40.2531 52.7578C40.2531 52.5692 40.2261 52.3806 40.2261 52.2189C40.2261 51.5723 40.2261 50.8987 40.2261 50.2521C40.2261 49.0397 40.2261 47.7733 40.2261 46.534C40.1992 44.3785 38.5018 42.7081 36.4002 42.7081C36.3733 42.7081 36.3733 42.7081 36.3463 42.7081C34.2448 42.735 32.5743 44.4324 32.5474 46.5609C32.5204 47.9619 32.5204 49.4169 32.5204 50.791C32.5204 51.4915 32.5204 52.192 32.5204 52.8925C32.5204 52.9195 32.4935 52.9464 32.4665 53.0003C32.4396 53.0272 32.4396 53.0542 32.4127 53.0811L32.3857 53.1081H28.5598V40.0407H28.6137C28.8831 40.0138 29.1525 40.0138 29.422 39.9868C30.0147 39.9599 30.6344 39.9329 31.2272 39.8521C32.7899 39.6365 34.1909 38.936 35.4033 37.7505C36.1308 37.0231 36.8852 36.2687 37.6665 35.4873C38.0437 35.1101 38.4209 34.7329 38.8251 34.3018L38.879 34.248L38.9329 34.3018C39.0945 34.4904 39.2562 34.6521 39.3909 34.8407C39.822 35.3257 40.2261 35.8106 40.6303 36.2956C40.738 36.4573 40.765 36.7267 40.738 36.9153C40.6033 37.7775 40.8189 38.5319 41.3038 39.0977C41.7619 39.6366 42.4893 39.9599 43.3246 39.9599C45.7494 39.9599 48.2282 39.9599 50.5992 39.9599C51.623 39.9599 52.6469 39.9599 53.6437 39.9599H54.6406V42.6542H54.5867C54.5329 42.6542 54.452 42.6542 54.3981 42.6811C54.2365 42.7081 54.0748 42.7081 53.9132 42.7081C52.7816 42.7081 51.65 42.7081 50.5184 42.7081H48.7132C47.2313 42.7081 46.881 43.0314 46.881 44.4863C46.881 44.8904 46.881 45.3215 46.881 45.7526C46.881 46.6687 46.908 47.6386 46.8541 48.5816C46.8002 49.6055 47.1774 50.1982 48.0396 50.5485C48.2821 50.6293 48.5246 50.764 48.7401 50.8987C48.8479 50.9526 48.9287 51.0065 49.0365 51.0604L49.1173 51.1143L49.0365 51.1682C48.8479 51.3298 48.6593 51.4915 48.4976 51.6531C48.0127 52.0303 47.5277 52.4345 47.0427 52.8656ZM54.6406 45.1868V50.9796L54.5329 50.9257C54.1557 50.7371 53.7785 50.5485 53.4013 50.3599C52.1349 49.7132 50.9225 49.1205 49.737 48.5008C49.5484 48.393 49.3867 48.1236 49.3598 47.8811C49.3329 47.2614 49.3329 46.6148 49.3329 45.9682C49.3329 45.7257 49.3329 45.4832 49.3329 45.2407V45.1868H54.6406ZM52.0272 60.8946C50.9494 60.8946 49.9526 60.4635 49.1981 59.7091C48.4437 58.9547 48.0396 57.9578 48.0396 56.907C48.0396 54.7516 49.8178 52.9733 52.0002 52.9733C52.0002 52.9733 52.0002 52.9733 52.0272 52.9733C53.0779 52.9733 54.0748 53.3775 54.8292 54.1319C55.5836 54.8863 56.0147 55.8832 56.0147 56.9609C55.9878 59.0894 54.1826 60.8946 52.0272 60.8946ZM59.8676 49.1205H57.2272V43.8666H59.8676V49.1205ZM65.0406 51.7609H62.4002V41.307H65.0406V51.7609Z" fill="#5ABFC6"/>
<path d="M6.30466 45.2673C4.6342 45.2403 2.96373 45.2403 1.34715 45.2673C0.916062 45.2673 0.565803 45.402 0.296373 45.6714C0.107772 45.9139 0 46.2103 0 46.5336C0.026943 47.2341 0.53886 47.7191 1.34715 47.7191C1.91295 47.746 2.47876 47.7191 3.04456 47.7191C3.28705 47.7191 3.52953 47.7191 3.79896 47.7191C4.04145 47.7191 4.31088 47.7191 4.55337 47.7191C5.11917 47.7191 5.71192 47.7191 6.30466 47.7191C6.73575 47.7191 7.11295 47.5574 7.35544 47.3149C7.57098 47.0994 7.67876 46.803 7.67876 46.4528C7.65181 45.7522 7.11295 45.2942 6.30466 45.2673Z" fill="#5ABFC6"/>
<path d="M2.02061 41.1179C2.77501 41.522 3.55636 41.8992 4.31076 42.2764L4.55325 42.3842C4.68796 42.4381 4.82268 42.492 4.95739 42.5189C5.01128 42.5189 5.06517 42.5458 5.09211 42.5458C5.76568 42.465 6.16983 42.1417 6.30454 41.5759C6.43926 40.9832 6.22372 40.4982 5.68486 40.2288C4.74185 39.7168 3.87967 39.2858 3.07138 38.9355C2.85584 38.8277 2.66724 38.8008 2.4517 38.8008C1.99366 38.8008 1.58952 39.0433 1.37398 39.5282C1.13149 40.121 1.37398 40.7676 2.02061 41.1179Z" fill="#5ABFC6"/>
<path d="M5.11898 50.333C5.06509 50.333 5.03815 50.3599 4.98427 50.3599C4.84955 50.3869 4.71484 50.4408 4.58012 50.4947L4.33763 50.6024C3.58323 50.9796 2.80188 51.3568 2.04748 51.761C1.3739 52.1112 1.15836 52.7579 1.42779 53.3776C1.64333 53.8356 2.04748 54.105 2.50551 54.105C2.69411 54.105 2.90965 54.0512 3.1252 53.9703C3.93349 53.5931 4.79566 53.162 5.73867 52.6771C6.27753 52.3807 6.49307 51.8957 6.35836 51.3299C6.1967 50.7372 5.79256 50.4138 5.11898 50.333Z" fill="#5ABFC6"/>
<path d="M51.9731 55.6943C51.2995 55.7212 50.7606 56.287 50.7876 56.9606C50.7876 57.2839 50.9492 57.5803 51.1648 57.8228C51.4073 58.0383 51.7306 58.173 52.027 58.1461C52.7005 58.1191 53.2394 57.5533 53.2125 56.8798C53.2125 56.2331 52.6467 55.6673 51.9731 55.6943Z" fill="#5ABFC6"/>
</svg>
