<svg width="80" height="78" viewBox="0 0 80 78" fill="none" xmlns="http://www.w3.org/2000/svg">
<path d="M78.9722 59.9848C78.9722 59.0411 78.4441 58.5414 77.5268 58.5414C73.8853 58.5414 70.2438 58.5137 66.6301 58.5414C65.2124 58.5692 64.0449 59.2076 63.4056 60.4567C62.6551 61.8724 61.5154 62.8162 60.1811 63.5656C57.6793 64.9813 54.9829 65.814 52.2032 66.3692C44.8646 67.8959 37.4705 67.9791 30.0763 66.7856C26.7962 66.2582 23.5717 65.4254 20.5695 63.9265C19.1241 63.177 17.7064 62.372 16.9002 60.8453C16.0663 59.2354 14.7598 58.5137 12.953 58.5137C9.56169 58.5414 6.19818 58.5137 2.80688 58.5137C1.47259 58.5137 1.02783 58.9578 1.02783 60.2624C1.02783 65.5642 1.02783 70.866 1.02783 76.1678C1.02783 76.9727 1.25021 77.5557 1.94515 77.972C27.3243 77.972 52.7035 77.972 78.1105 77.972C78.6387 77.6389 79.0278 77.2226 79.0278 76.5564C79 71.0603 79 65.5087 78.9722 59.9848ZM76.3315 75.335C52.1198 75.335 27.9359 75.335 3.6686 75.335C3.6686 70.5884 3.6686 65.9251 3.6686 61.1229C3.97438 61.1229 4.25235 61.1229 4.53033 61.1229C7.33788 61.1229 10.1454 61.1507 12.953 61.1229C13.7313 61.1229 14.2595 61.4005 14.6208 62.0945C15.7328 64.2041 17.6508 65.3977 19.7078 66.4247C22.9601 68.0347 26.407 68.8952 29.9651 69.4226C38.3322 70.6717 46.6714 70.5051 54.8995 68.3955C57.7071 67.6738 60.4035 66.6468 62.794 64.9535C63.9337 64.1485 64.8233 63.177 65.5182 61.9557C65.7406 61.5948 66.2409 61.1784 66.6301 61.1507C69.8546 61.0952 73.0792 61.1229 76.3315 61.1229C76.3315 65.8973 76.3315 70.5884 76.3315 75.335Z" fill="#5ABFC6"/>
<path d="M34.1346 14.4342C35.2187 14.4342 36.275 14.4342 37.4147 14.4342C37.4147 16.4328 37.3869 18.2926 37.4425 20.1801C37.4703 20.8185 37.6093 21.5125 37.9151 22.0676C40.6392 26.8143 43.419 31.5609 46.1988 36.252C46.4767 36.6961 46.8659 37.1402 47.3107 37.3901C47.7276 37.6399 47.7832 37.9175 47.7832 38.3061C47.7832 40.3602 47.7832 42.4143 47.7832 44.4961C47.7832 49.4093 47.811 54.3225 47.7832 59.2634C47.7832 60.1516 48.0612 60.7623 48.8395 61.2342C49.9514 61.9004 51.0077 62.6221 52.064 63.3716C52.7034 63.8157 53.2871 63.8157 53.8987 63.3716C54.9272 62.6499 55.9835 61.9281 57.0676 61.2897C57.9293 60.7901 58.2073 60.0961 58.2073 59.1246C58.1795 52.3239 58.2073 45.5232 58.1795 38.7225C58.1795 38.0563 58.2351 37.5566 58.93 37.2513C59.2636 37.0847 59.5416 36.6961 59.7362 36.363C62.5715 31.5609 65.3791 26.731 68.1588 21.9011C68.409 21.457 68.548 20.9018 68.548 20.3744C68.6036 18.4591 68.5758 16.516 68.5758 14.462C69.8267 14.462 70.9664 14.462 72.1339 14.462C73.9963 14.462 75.0526 13.4071 75.0526 11.5474C75.0526 8.7438 75.0526 5.94024 75.0526 3.13668C75.0526 1.22138 73.9963 0.194336 72.0783 0.194336C59.347 0.194336 46.5879 0.194336 33.8566 0.194336C31.883 0.194336 30.8545 1.22138 30.8545 3.1922C30.8545 5.85697 30.8545 8.5495 30.8545 11.2143C30.9101 13.4904 31.8552 14.4342 34.1346 14.4342ZM50.3962 53.0733C50.3962 52.9068 50.5352 52.6847 50.6742 52.5737C52.2308 51.5189 53.7875 50.4918 55.372 49.4648C55.3997 49.437 55.4553 49.4648 55.5943 49.4648C55.5943 50.4363 55.5943 51.4079 55.5943 52.3516C55.5943 52.4904 55.5109 52.6847 55.4275 52.7402C53.7875 53.8506 52.1474 54.9331 50.3962 56.099C50.3962 54.9886 50.3684 54.0171 50.3962 53.0733ZM50.3962 46.4669C50.3962 46.3559 50.5352 46.1894 50.6464 46.1061C52.2308 45.0235 53.8431 43.9687 55.5943 42.7751C55.5943 43.9132 55.6221 44.857 55.5665 45.8007C55.5665 45.995 55.3997 46.2449 55.2608 46.3559C53.7041 47.4107 52.1196 48.4655 50.3962 49.6036C50.3962 48.4933 50.3962 47.494 50.3962 46.4669ZM55.5665 58.7637C55.3164 59.9018 54.0099 60.0406 53.2315 60.679C53.0925 60.7901 52.5922 60.5958 52.3142 60.4292C51.7027 60.0684 51.0911 59.652 50.3962 59.2079C52.1196 58.0698 53.7875 56.9872 55.5943 55.7936C55.5943 56.9039 55.7611 57.8755 55.5665 58.7637ZM54.4824 40.4434C53.1759 41.3317 51.8417 42.1922 50.424 43.136C50.424 41.2762 50.424 39.583 50.424 37.862C52.1474 37.862 53.8153 37.862 55.5109 37.862C55.8167 39.3886 55.7611 39.5829 54.4824 40.4434ZM65.935 19.5972C65.6571 19.5972 65.3791 19.5972 65.0733 19.5972C60.8203 19.5972 56.5672 19.5972 52.3142 19.5972C51.0633 19.5972 50.3962 20.0413 50.3962 20.9018C50.3962 21.7623 51.0355 22.2064 52.2864 22.2064C56.2059 22.2064 60.1253 22.2064 64.0448 22.2064C64.3228 22.2064 64.6007 22.2064 64.9621 22.2064C64.8231 22.484 64.7397 22.7061 64.6285 22.9004C62.3491 26.8143 60.0697 30.7281 57.7903 34.642C57.568 35.0306 57.3178 35.2249 56.8174 35.1972C54.2323 35.1694 51.6471 35.1972 49.0897 35.1694C48.8395 35.1694 48.4504 35.0306 48.3392 34.8363C45.9208 30.7559 43.558 26.6755 41.1674 22.5673C41.1118 22.484 41.1118 22.4007 41.0562 22.2064C42.3905 22.2064 43.6414 22.2064 44.8923 22.2064C45.893 22.2064 46.4767 21.7346 46.5045 20.9296C46.5045 20.1523 45.9208 19.6249 44.9201 19.5972C43.3078 19.5694 41.6955 19.5972 40.0277 19.5972C40.0277 17.8484 40.0277 16.1829 40.0277 14.4897C48.6727 14.4897 57.2622 14.4897 65.935 14.4897C65.935 16.1552 65.935 17.8207 65.935 19.5972ZM33.5509 2.80359C34.357 2.80359 35.1631 2.80359 36.1082 2.80359C36.1082 3.55306 36.1082 4.30252 36.1082 5.07974C36.1082 6.07903 36.5808 6.63419 37.4147 6.63419C38.1931 6.63419 38.6656 6.07903 38.6934 5.1075C38.7212 4.35804 38.6934 3.60857 38.6934 2.80359C39.5551 2.80359 40.3613 2.80359 41.2786 2.80359C41.2786 3.69185 41.223 4.55234 41.2786 5.41284C41.3342 6.19007 41.8901 6.63419 42.6129 6.60644C43.3078 6.57868 43.7804 6.10679 43.836 5.35733C43.8638 5.1075 43.836 4.82992 43.836 4.5801C43.836 3.99718 43.836 3.41426 43.836 2.77583C44.7255 2.77583 45.5316 2.77583 46.4489 2.77583C46.4489 3.55305 46.4489 4.30252 46.4489 5.05199C46.4489 6.02352 46.8937 6.55092 47.6998 6.57868C48.5337 6.60644 49.0341 6.05128 49.0619 5.05199C49.0619 4.30252 49.0619 3.55305 49.0619 2.74807C49.9236 2.74807 50.7298 2.74807 51.6749 2.74807C51.6749 3.58081 51.6471 4.44131 51.6749 5.27405C51.7027 6.07903 52.203 6.55092 52.9258 6.57868C53.6763 6.60644 54.2045 6.10679 54.2323 5.27405C54.26 4.46907 54.2323 3.63633 54.2323 2.77583C55.1218 2.77583 55.9279 2.77583 56.8452 2.77583C56.8452 3.55305 56.8452 4.30252 56.8452 5.07974C56.8452 6.05128 57.3178 6.57868 58.1239 6.60644C58.9578 6.63419 59.4582 6.07903 59.4582 5.07974C59.4582 4.38579 59.4582 3.69184 59.4582 2.99789C59.4582 2.94238 59.486 2.88686 59.5138 2.77583C60.3477 2.77583 61.1261 2.77583 62.0434 2.77583C62.0434 3.55305 62.0434 4.33028 62.0434 5.07974C62.0434 6.05128 62.4881 6.60644 63.2943 6.60644C64.1282 6.63419 64.6007 6.07903 64.6285 5.07974C64.6563 4.33028 64.6285 3.58081 64.6285 2.80359C65.4903 2.80359 66.2964 2.80359 67.2137 2.80359C67.2137 3.55306 67.2137 4.27476 67.2137 5.02423C67.2137 6.05128 67.6863 6.60644 68.4924 6.63419C69.3541 6.66195 69.7989 6.07903 69.8267 5.02423C69.8267 4.35804 69.8267 3.69184 69.8267 3.02565C69.8267 2.97014 69.8545 2.94238 69.8823 2.83135C70.6884 2.83135 71.4946 2.83135 72.3563 2.83135C72.3563 5.80145 72.3563 8.77156 72.3563 11.7972C59.4304 11.7972 46.4767 11.7972 33.4675 11.7972C33.5509 8.79932 33.5509 5.82921 33.5509 2.80359Z" fill="#5ABFC6"/>
<path d="M7.86601 19.5694C10.8404 21.2071 11.8967 24.4548 10.5068 27.3694C9.28369 29.9509 9.0891 32.7267 9.75625 35.5302C10.6736 39.4441 12.953 42.3309 16.4555 44.2462C18.1233 45.1623 19.1518 46.5224 19.4854 48.3822C19.68 49.548 19.402 50.6028 18.985 51.6854C17.9843 54.2946 19.819 56.9872 22.8767 57.0149C24.2666 56.9594 25.4897 56.1544 26.1846 54.6C29.02 48.3544 26.5738 40.9986 20.5139 37.5843C17.345 35.8078 16.4555 33.1986 17.8453 29.8398C20.4861 23.4832 18.0677 16.4327 12.0634 13.074C9.00571 11.353 8.08839 8.71598 9.36708 5.49605C10.201 3.38645 9.33928 1.1658 7.33786 0.333064C5.36423 -0.527435 3.16822 0.38858 2.2231 2.44267C-0.667844 8.88253 1.66715 16.1829 7.86601 19.5694ZM4.41911 3.91385C4.83608 2.91456 5.47542 2.5537 6.25375 2.85904C7.03208 3.19214 7.22667 3.88609 6.8375 4.88538C5.39203 8.57719 6.58732 12.5466 9.81184 14.7117C10.1454 14.9338 10.5068 15.1281 10.8681 15.3502C15.6771 18.0982 17.6508 23.7886 15.4825 28.8961C14.593 31.0057 14.3428 33.1153 15.1212 35.2804C15.8161 37.2512 17.1226 38.7224 18.985 39.7217C21.7926 41.2206 23.6272 43.4968 24.4334 46.5779C25.0449 48.8818 24.8781 51.158 23.9608 53.3786C23.5716 54.2946 22.9045 54.6555 22.154 54.3502C21.4312 54.0726 21.2088 53.3231 21.5424 52.4071C23.1269 48.2434 21.6814 44.2185 17.8175 42.0534C12.675 39.1388 10.757 33.5872 13.0086 28.1466C13.4533 27.064 13.6479 25.8982 13.8147 25.2598C13.6757 21.4847 12.2302 19.0697 9.39488 17.4875C6.11476 15.6555 4.22453 12.9352 3.69638 9.27114C3.4462 7.43912 3.72417 5.63484 4.41911 3.91385Z" fill="#5ABFC6"/>
<path d="M10.7572 46.7444C9.70089 46.3835 8.92256 45.7451 8.67238 44.496C8.36661 42.886 6.80994 41.7479 5.22548 41.6646C2.33453 41.5259 0.4165 44.0518 1.22263 46.9942C2.6681 52.2404 7.53268 54.5999 12.1193 54.9885C14.2041 55.0162 15.9553 53.5173 16.1499 51.491C16.3445 49.4091 14.9268 47.5771 12.842 47.2162C12.1471 47.1052 11.4243 46.9664 10.7572 46.7444ZM13.537 51.3244C13.4258 51.9629 12.8976 52.3792 11.9247 52.3515C8.97815 51.9351 6.1428 50.9358 4.44715 47.9935C4.05798 47.3273 3.8356 46.5223 3.66882 45.7451C3.52983 45.0511 4.00239 44.4404 4.64173 44.3017C5.36447 44.1629 6.03161 44.5237 6.1706 45.2454C6.64316 47.5216 8.25542 48.6319 10.2846 49.2981C10.9796 49.5202 11.7301 49.6034 12.4806 49.7977C13.259 49.992 13.6759 50.575 13.537 51.3244Z" fill="#5ABFC6"/>
<path d="M32.4389 36.5848C34.6349 34.5584 35.6912 32.0047 35.6912 28.5905C35.6356 28.1741 35.6356 27.3413 35.4411 26.5641C35.2187 25.5371 34.9129 24.51 34.5515 23.5385C33.7454 21.4289 31.5772 20.4018 29.548 21.1513C27.5187 21.9008 26.5458 24.0381 27.2408 26.2033C27.4909 26.9527 27.7133 27.73 27.8245 28.5072C27.9635 29.4787 27.7689 30.3392 26.935 31.0609C25.7953 32.0602 25.4617 33.3926 25.8509 34.8638C26.6292 37.8339 30.1039 38.7221 32.4389 36.5848ZM28.7418 33.004C30.5765 31.394 30.7433 29.3954 30.2985 27.2303C30.1595 26.6196 29.9371 26.009 29.7425 25.3983C29.4924 24.5656 29.7703 23.8716 30.4653 23.6218C31.188 23.372 31.9108 23.6773 32.1609 24.5378C32.6057 25.9812 32.9393 27.4524 33.3006 28.8958C33.245 28.9236 33.1617 28.9236 33.1061 28.9513C33.1061 31.2552 32.3833 33.226 30.6043 34.7805C29.7981 35.4744 28.6862 35.3079 28.4639 34.4196C28.3527 33.9755 28.4361 33.2538 28.7418 33.004Z" fill="#5ABFC6"/>
<path d="M61.0426 59.2634C61.543 60.0129 62.4603 60.0129 63.2108 59.2357C66.5465 55.9325 69.8544 52.6015 73.1623 49.2983C73.3291 49.1318 73.4959 48.9652 73.6071 48.7709C74.1074 47.8827 73.4681 46.8556 72.2728 46.8834C72.106 46.9666 71.7447 47.0777 71.5223 47.3275C68.0754 50.7417 64.6563 54.156 61.2372 57.598C60.709 58.0976 60.6256 58.6805 61.0426 59.2634Z" fill="#5ABFC6"/>
<path d="M34.1068 47.0224C33.5509 46.7448 32.9949 46.8003 32.5501 47.2722C32.1054 47.7441 32.1054 48.2993 32.4112 48.8267C32.5224 49.021 32.7169 49.1875 32.8559 49.3541C36.1082 52.6017 39.3884 55.8772 42.6407 59.1249C42.8075 59.2914 42.9742 59.5412 43.1688 59.569C43.5858 59.6523 44.114 59.7633 44.4753 59.5968C44.8367 59.4302 45.0313 58.9306 45.337 58.542C45.0591 58.0978 44.8923 57.7092 44.6421 57.4316C41.3064 54.0729 37.9429 50.7142 34.5794 47.3832C34.4682 47.2722 34.3014 47.1334 34.1068 47.0224Z" fill="#5ABFC6"/>
<path d="M43.1689 50.464C43.6137 50.5473 44.1419 50.6861 44.531 50.5195C44.8646 50.3808 45.0592 49.8534 45.3372 49.4925C45.087 49.0484 44.948 48.6875 44.6978 48.4099C43.0577 46.3558 41.4177 44.3017 39.7776 42.2477C39.1939 41.5259 38.4433 41.3872 37.8318 41.859C37.2202 42.3309 37.1647 43.1082 37.7484 43.8299C39.3885 45.9117 41.0563 47.9658 42.7242 50.0199C42.8632 50.2142 43.0021 50.4363 43.1689 50.464Z" fill="#5ABFC6"/>
<path d="M63.2945 50.02C64.9346 47.9936 66.5469 45.9673 68.1591 43.941C68.3815 43.6634 68.4927 43.3303 68.7429 42.8307C68.4093 42.4698 68.1313 42.0257 67.7422 41.8036C67.1306 41.4705 66.6025 41.7759 66.1855 42.2755C64.5454 44.3296 62.9054 46.3837 61.2653 48.41C60.6538 49.1872 60.6538 49.9645 61.2931 50.4363C61.9324 50.9638 62.6552 50.825 63.2945 50.02Z" fill="#5ABFC6"/>
<path d="M28.3252 44.2185C28.2974 44.968 28.8811 45.5509 29.6039 45.5509C30.3266 45.5509 30.8825 44.9957 30.8825 44.3018C30.8825 43.5801 30.3544 43.0249 29.6317 42.9971C28.9645 42.9694 28.353 43.4968 28.3252 44.2185Z" fill="#5ABFC6"/>
<path d="M76.3871 45.5512C77.1098 45.5512 77.6379 44.9961 77.6379 44.2744C77.6379 43.5526 77.082 42.9975 76.3871 42.9697C75.6921 42.9697 75.1084 43.5249 75.0806 44.2188C75.0806 44.9961 75.6365 45.5512 76.3871 45.5512Z" fill="#5ABFC6"/>
<path d="M22.9044 70.2275C20.0135 70.2275 17.1225 70.2275 14.2594 70.2275C13.2865 70.2275 12.7583 70.6994 12.7583 71.5044C12.7583 72.3094 13.2865 72.7813 14.2316 72.7813C15.677 72.7813 17.1225 72.7813 18.568 72.7813C20.0135 72.7813 21.4589 72.7813 22.9044 72.7813C23.8773 72.7813 24.4055 72.3094 24.4055 71.5044C24.4055 70.7272 23.8773 70.2275 22.9044 70.2275Z" fill="#5ABFC6"/>
<path d="M8.47741 70.2282C8.36622 70.2282 8.28283 70.2282 8.17164 70.2282C7.94926 70.2282 7.69908 70.2004 7.4767 70.2282C6.75396 70.2837 6.2536 70.7556 6.2536 71.4495C6.22581 72.1712 6.69837 72.6986 7.4489 72.7819C7.78247 72.8096 8.11604 72.8096 8.44961 72.8096C9.53372 72.8096 10.1175 72.3655 10.1175 71.5328C10.1453 70.7278 9.53372 70.2559 8.47741 70.2282Z" fill="#5ABFC6"/>
</svg>
