<svg width="88" height="80" viewBox="0 0 88 80" fill="none" xmlns="http://www.w3.org/2000/svg">
<path d="M87.9999 36.9234C88.027 33.0368 86.8338 30.122 84.0677 27.477C78.6982 22.322 73.3558 16.951 68.1762 11.769C65.5999 9.17802 62.9151 6.50605 60.2575 3.88806C56.4338 0.109509 50.983 0.00155044 47.2677 3.67214C41.6813 9.15103 36.0677 14.7919 30.6168 20.2168L27.3897 23.4555C25.8982 24.9669 25.0304 26.8022 24.8135 28.9344C24.5965 31.1476 25.166 33.2528 26.5219 35.196L24.4067 37.3282C22.6982 39.0285 21.0168 40.7289 19.3084 42.4292C19.2813 42.4562 19.227 42.5102 19.1999 42.5372C18.9287 42.7801 18.5762 43.131 18.5762 43.6438C18.5762 43.9676 18.7118 44.2645 19.0101 44.5344C19.6609 45.1552 20.3931 45.0742 21.1796 44.2915C21.8846 43.5898 22.5897 42.8881 23.3219 42.1593C23.8372 41.6465 24.3796 41.1067 24.8948 40.5939C25.8168 39.6763 26.7118 38.7586 27.6338 37.868L28.4202 37.0853C32.8135 39.8652 37.6135 39.2175 41.3016 35.25C43.688 32.713 46.2101 30.2299 48.6507 27.8279C49.7897 26.6943 50.983 25.5337 52.1491 24.4002C52.5829 23.9683 53.0168 23.5095 53.4236 23.0777C53.505 22.9967 53.5863 22.8888 53.6677 22.8078L55.566 24.6971C60.149 29.2583 64.8948 33.9815 69.5321 38.6237C69.6948 38.8126 69.8575 39.2175 69.8575 39.5953C69.8846 40.6209 69.8846 41.6735 69.8846 42.6991C69.8846 43.6977 69.8846 44.7234 69.9118 45.749C69.9118 46.2078 69.8575 46.3697 69.3151 46.6126C56.4067 52.4424 49.3829 62.5095 48.4067 76.5171C48.3524 77.4618 48.3253 78.1095 48.7321 78.5683C49.1389 79.0002 49.7897 79.0272 50.7389 79.0272C56.5423 79.0272 62.3728 79.0272 68.1762 79.0272C73.9796 79.0272 79.8101 79.0272 85.6135 79.0272C87.6745 79.0272 87.9999 78.7033 87.9999 76.6521C87.9999 72.9815 87.9999 69.2839 87.9999 65.6133C87.9457 56.1939 87.9457 46.4777 87.9999 36.9234ZM85.2609 46.6666V76.2742H51.0914C51.1185 68.5552 54.8067 60.5932 60.9897 54.8714C67.4711 48.8798 76.0677 45.9649 85.2609 46.6666ZM78.8609 44.1836C77.2338 44.3185 75.6609 44.6424 74.0067 44.9663C73.4914 45.0742 72.9762 45.1822 72.4609 45.2631C72.4609 44.3185 72.4338 43.3469 72.4338 42.4292C72.4067 39.8382 72.3796 37.1663 72.488 34.5753C72.6507 31.2825 75.4711 28.6915 78.8067 28.6915C78.888 28.6915 78.9694 28.6915 79.0507 28.6915C82.549 28.8265 85.2338 31.5524 85.288 35.0611C85.3152 37.1663 85.3151 39.2715 85.3151 41.5116C85.3151 42.3483 85.3151 43.2119 85.3151 44.1026C84.7728 44.1026 84.2304 44.0756 83.7151 44.0756C82.1151 44.0756 80.4609 44.0486 78.8609 44.1836ZM78.8067 25.9656C76.2575 26.1815 74.1694 27.0991 72.488 28.7455C70.7796 30.4189 69.9389 32.4701 69.8033 35.196C68.0135 33.4147 66.2236 31.6334 64.4338 29.8521C59.4711 24.913 54.3185 19.7849 49.2745 14.7379C47.566 13.0105 46.888 10.6625 47.4575 8.42231C47.9999 6.29013 49.627 4.61678 51.7965 3.96902C52.4745 3.75311 53.1524 3.64515 53.8033 3.64515C55.4846 3.64515 57.0304 4.34688 58.4135 5.69636C60.8541 8.09844 63.2677 10.5275 65.7084 12.9566C67.3084 14.549 68.9355 16.1683 70.5355 17.7607C72.6236 19.8389 74.7389 21.9171 76.827 23.9953L78.8067 25.9656ZM51.9863 21.0535C51.6609 21.2424 51.3626 21.4583 51.1185 21.7012C49.4101 23.3746 47.7016 25.0749 46.0202 26.7753C43.5253 29.2583 40.9491 31.8223 38.3999 34.3323C36.5287 36.1676 34.3321 36.6804 31.8643 35.8708C29.4236 35.0611 27.9592 33.3607 27.5253 30.7697C27.1728 28.7455 27.7423 26.9372 29.0982 25.5607C33.166 21.4583 37.3151 17.3289 41.3287 13.3344C42.4406 12.2278 43.5524 11.1483 44.6372 10.0417C44.6372 12.7407 45.6948 15.0348 47.8643 17.059C48.8677 17.9766 49.844 18.9483 50.8745 19.9739C51.227 20.3247 51.6067 20.6756 51.9863 21.0535Z" fill="#5ABFC6"/>
<path d="M28.5014 43.6435C28.5014 42.9418 29.0709 42.375 29.8031 42.375C40.3522 42.375 50.9285 42.375 61.4777 42.375H67.0641C67.1455 42.375 67.2539 42.375 67.3353 42.375C67.4166 42.375 67.498 42.375 67.5794 42.375C68.0404 42.375 69.1522 42.402 69.1522 43.6705C69.1522 44.0753 69.0166 44.3722 68.7997 44.5881C68.42 44.966 67.9048 44.939 67.4709 44.939C67.4166 44.939 67.3624 44.939 67.3082 44.939C62.1285 44.939 56.9488 44.939 51.7692 44.939H44.1217C39.3488 44.939 34.576 44.939 29.8031 44.939C29.0709 44.939 28.4743 44.3722 28.5014 43.6435Z" fill="#5ABFC6"/>
<path d="M56.678 72.0635C56.678 72.1175 56.7051 72.1714 56.7322 72.1984C56.7594 72.2524 56.7865 72.2794 56.8136 72.3334C56.7594 72.3334 56.7051 72.3334 56.6509 72.3334L56.678 72.0635Z" fill="#5ABFC6"/>
<path d="M54.0474 6.07421H54.0202C51.6609 6.1012 49.7084 8.01747 49.6813 10.3656C49.6541 11.5261 50.1152 12.6057 50.9287 13.4424C51.7694 14.2791 52.8541 14.7379 54.0474 14.7379C54.0474 14.7379 54.0473 14.7379 54.0745 14.7379C56.4338 14.7379 58.3863 12.8216 58.4134 10.4465C58.4134 9.28598 57.9796 8.17941 57.1389 7.34273C56.2982 6.53304 55.2135 6.07421 54.0474 6.07421ZM55.7558 10.5005C55.7287 11.4451 54.9965 12.1199 54.0745 12.1199H54.0474C53.5863 12.1199 53.1524 11.931 52.827 11.6071C52.5016 11.2832 52.3389 10.8244 52.366 10.3656C52.3931 9.44792 53.1524 8.7192 54.0745 8.7192H54.1016C54.5626 8.7192 54.9965 8.90812 55.2948 9.232C55.5931 9.55588 55.7558 10.0147 55.7558 10.5005Z" fill="#5ABFC6"/>
<path d="M83.3085 35.6282C83.3357 34.4676 82.8746 33.388 82.0611 32.5514C81.2204 31.7147 80.1086 31.2559 78.9425 31.2559C77.7492 31.2559 76.6645 31.7147 75.8509 32.5514C75.0374 33.388 74.6035 34.4676 74.6306 35.6552C74.6577 38.0033 76.6102 39.8925 78.9696 39.8925C78.9696 39.8925 78.9696 39.8925 78.9967 39.8925C81.356 39.8925 83.2814 38.0303 83.3085 35.6282ZM80.678 35.5202C80.7052 35.979 80.5153 36.4379 80.1899 36.7617C79.8645 37.1126 79.4306 37.3015 78.9696 37.3015C78.5357 37.3015 78.1018 37.1396 77.7763 36.8157C77.4509 36.4918 77.2611 36.033 77.2611 35.5472C77.2611 34.6026 78.0204 33.8739 78.9425 33.8469C78.9425 33.8469 78.9424 33.8469 78.9696 33.8469C79.8645 33.8739 80.6509 34.6296 80.678 35.5202Z" fill="#5ABFC6"/>
<path d="M21.4235 34.7636C20.6913 34.7636 20.0947 34.1698 20.0947 33.4411V23.7248C20.0947 22.9961 20.6913 22.4023 21.4235 22.4023C22.1557 22.4023 22.7524 22.9961 22.7524 23.7248V33.4411C22.7524 34.1698 22.1557 34.7636 21.4235 34.7636Z" fill="#5ABFC6"/>
<path d="M21.4235 65.0468C20.6913 65.0468 20.0947 64.453 20.0947 63.7243V54.008C20.0947 53.2793 20.6913 52.6855 21.4235 52.6855C22.1557 52.6855 22.7524 53.2793 22.7524 54.008V63.7243C22.7524 64.453 22.1557 65.0468 21.4235 65.0468Z" fill="#5ABFC6"/>
<path d="M27.7966 50.0671C28.3119 49.5543 29.1525 49.5543 29.6678 50.0671L36.5831 56.9495C37.0983 57.4623 37.0983 58.299 36.5831 58.8118C36.0678 59.3246 35.2271 59.3246 34.7119 58.8118L27.7966 51.9294C27.2814 51.4166 27.2814 50.5799 27.7966 50.0671Z" fill="#5ABFC6"/>
<path d="M6.26437 28.6375C6.77962 28.1247 7.6203 28.1247 8.13556 28.6375L15.0508 35.5199C15.5661 36.0327 15.5661 36.8694 15.0508 37.3822C14.5356 37.895 13.6949 37.895 13.1796 37.3822L6.26437 30.4998C5.74912 29.987 5.74912 29.1503 6.26437 28.6375Z" fill="#5ABFC6"/>
<path d="M6.26437 58.7845C5.74912 58.2717 5.74912 57.435 6.26437 56.9222L13.1796 50.0399C13.6949 49.5271 14.5356 49.5271 15.0508 50.0399C15.5661 50.5527 15.5661 51.3894 15.0508 51.9022L8.13556 58.7845C7.6203 59.2973 6.77962 59.2973 6.26437 58.7845Z" fill="#5ABFC6"/>
<path d="M9.68115 77.678C9.68115 76.9492 10.2778 76.3555 11.01 76.3555H42.8201C43.5523 76.3555 44.149 76.9492 44.149 77.678C44.149 78.4067 43.5523 79.0005 42.8201 79.0005H11.01C10.2778 78.9735 9.68115 78.4067 9.68115 77.678Z" fill="#5ABFC6"/>
<path d="M57.5185 73.5209C56.8134 73.5209 56.2168 72.9541 56.2168 72.2254C56.2168 61.4025 66.4948 51.1465 77.3965 51.1465C78.1015 51.1465 78.6982 51.7133 78.6982 52.442C78.6982 53.1707 78.1287 53.7375 77.3965 53.7375C68.0134 53.7375 58.7931 62.914 58.7931 72.2524C58.8202 72.9271 58.2507 73.5209 57.5185 73.5209Z" fill="#5ABFC6"/>
<path d="M12.4203 43.7248C12.4203 44.4536 11.8237 45.0473 11.0915 45.0473H1.32881C0.59661 45.0473 0 44.4536 0 43.7248C0 42.9961 0.59661 42.4023 1.32881 42.4023H11.0915C11.8237 42.4023 12.4203 42.9961 12.4203 43.7248Z" fill="#5ABFC6"/>
</svg>
