<svg width="78" height="78" viewBox="0 0 78 78" fill="none" xmlns="http://www.w3.org/2000/svg">
<path d="M77.9664 68.4726C77.9396 67.8788 77.7247 67.1771 77.3756 66.7183C74.9584 63.4795 72.5144 60.1867 70.1241 57.0019C68.4321 54.7348 66.7401 52.4946 65.0481 50.2275C64.5647 49.5797 64.0275 49.3098 63.2218 49.3098H63.195C60.939 49.3368 58.6293 49.3368 56.4001 49.3368C55.7287 49.3368 55.0572 49.3368 54.3858 49.3368C54.1978 49.3368 54.0367 49.3368 53.7681 49.3098C53.6607 49.3098 53.5532 49.3098 53.4458 49.2828C53.6875 49.0399 53.9292 48.824 54.1441 48.6081C54.6544 48.1223 55.111 47.6904 55.5675 47.2316C58.8441 43.9389 62.3355 40.4302 66.203 36.5437C66.955 35.7879 67.0087 35.1672 66.391 34.5194C64.8064 32.9 63.1681 31.2536 61.3687 29.4453C60.7778 28.8516 60.187 28.8516 59.5424 29.4453C59.4081 29.5533 59.2738 29.6882 59.1664 29.8232C59.1127 29.8772 59.059 29.9311 59.0053 29.9851L55.299 33.7097C50.5721 38.4599 45.7109 43.3721 40.8766 48.1763C40.4469 48.6081 39.8292 48.986 39.2652 49.1479C38.4058 49.3908 37.7881 48.851 37.1972 48.2572C31.8258 42.8323 26.3201 37.3264 21.0292 32.0094L18.8538 29.8232C17.8063 28.7706 17.3766 28.7706 16.3292 29.8502C14.8789 31.3076 13.4286 32.7651 11.9783 34.2225C10.9577 35.2481 10.9577 35.707 12.0052 36.7596L16.4097 41.1859C18.9075 43.6959 21.3783 46.179 23.876 48.6891C24.0103 48.824 24.1446 48.959 24.3058 49.1479C24.3595 49.2019 24.44 49.2828 24.5206 49.3638C23.6612 49.3638 22.8018 49.3638 21.9423 49.3638C19.4715 49.3638 17.1617 49.3638 14.8252 49.3638H14.7983C14.0195 49.3638 13.4823 49.6337 13.0257 50.2275C11.1726 52.7105 9.3463 55.1666 7.49316 57.6227C5.18344 60.5916 2.82001 63.7494 0.537144 66.8532C0.241715 67.2581 0.0537144 67.8248 0.0537144 68.3107C0 70.5238 0 72.791 0 74.9502V76.3536C0 77.5682 0.429715 78 1.63829 78C14.1 78 26.5349 78 38.9966 78C51.4584 78 63.8933 78 76.355 78C77.5904 78 77.9933 77.5952 77.9933 76.3536C77.9933 75.8138 77.9933 75.274 77.9933 74.7342C77.9933 72.683 78.0201 70.5508 77.9664 68.4726ZM2.41715 69.8761C2.36343 68.8235 2.65886 67.9598 3.38401 67.0152C6.98287 62.2919 10.4743 57.5957 14.3686 52.3867C14.7177 51.9009 15.0669 51.7389 15.6309 51.7389H15.6577C18.0749 51.7659 20.5189 51.7659 22.8823 51.7659C23.7149 51.7659 24.5475 51.7659 25.4069 51.7659H26.2663C26.2663 51.8739 26.2663 51.9548 26.2932 52.0358C26.2932 52.2517 26.3201 52.4676 26.3201 52.6836C26.3201 54.087 26.3201 55.4905 26.3201 56.894C26.3201 58.6753 26.3201 60.4296 26.3201 62.211C26.3201 63.5065 26.6961 63.8843 27.9852 63.8843C35.3441 63.8843 42.7029 63.8843 50.0618 63.8843C51.351 63.8843 51.727 63.5065 51.727 62.211C51.727 59.9438 51.727 57.6497 51.727 55.3825V51.8199C51.8344 51.8199 51.915 51.8199 51.9955 51.7929C52.2104 51.7659 52.3715 51.7659 52.5327 51.7659C53.5264 51.7659 54.547 51.7659 55.5407 51.7659C57.7967 51.7659 60.1333 51.7659 62.443 51.7659C62.443 51.7659 62.443 51.7659 62.4698 51.7659C62.9801 51.7659 63.2756 51.9009 63.5441 52.3057C65.7196 55.2206 67.9218 58.1625 70.0704 61.0234C71.7893 63.2906 73.4813 65.5847 75.2001 67.8518C75.415 68.1487 75.5493 68.4456 75.5493 68.6885C75.5761 70.4159 75.5761 72.1162 75.5761 73.9245C75.5761 74.4374 75.5761 74.9771 75.5761 75.5169H2.444C2.444 74.9771 2.444 74.4374 2.444 73.8976C2.444 72.5751 2.47086 71.1986 2.41715 69.8761ZM17.7526 32.1443C17.8869 32.2523 18.0212 32.3872 18.1823 32.5492C20.8143 35.1942 23.4732 37.8662 26.1052 40.5112C29.2206 43.642 32.3361 46.7728 35.4515 49.9036C37.7344 52.1977 40.2589 52.1977 42.5418 49.9036L59.7841 32.5761C59.9184 32.4412 60.0795 32.2793 60.2138 32.1713C60.2407 32.1443 60.2944 32.0903 60.3213 32.0633L63.7321 35.4911C63.7053 35.518 63.7053 35.545 63.6784 35.545C63.5978 35.653 63.4904 35.7609 63.383 35.8689C61.7715 37.4883 60.1333 39.1347 58.5218 40.7541C54.171 45.1264 49.6858 49.6337 45.2812 54.06C43.6429 55.7064 41.6824 56.6511 39.5606 56.786C37.4389 56.9479 35.4246 56.3002 33.6521 54.9237C33.3566 54.7078 33.0612 54.4379 32.7389 54.114C26.6961 48.0413 20.6263 41.9416 14.5835 35.8689C14.476 35.7609 14.3686 35.653 14.288 35.545C14.2612 35.518 14.2612 35.4911 14.2343 35.4911L17.6452 32.0903C17.672 32.0903 17.6989 32.1173 17.7526 32.1443ZM48.5309 54.249C48.7458 54.0061 48.9875 53.7632 49.2292 53.5202V61.4283H28.7641V53.5202C29.0058 53.7632 29.2475 54.0061 29.4892 54.249C30.0263 54.7888 30.5098 55.3016 30.9932 55.7874C35.6126 60.4296 42.3538 60.4296 47.0001 55.7874C47.5104 55.3016 47.9938 54.7888 48.5309 54.249Z" fill="#5ABFC6"/>
<path d="M26.3561 20.8531C26.6003 21.0964 27.0073 21.2046 27.6042 21.1776C28.1469 21.1776 28.4453 21.3398 28.7438 21.7995C29.5035 22.9893 30.2903 24.2061 31.05 25.3688C31.8369 26.6126 32.678 27.8835 33.4648 29.1274C33.709 29.506 33.8446 30.0197 33.8718 30.4524C33.8989 31.7233 33.8989 32.9941 33.8989 34.238C33.8989 35.8063 33.8989 37.4287 33.926 39.0241C33.926 39.5379 34.1974 40.1868 34.5772 40.5654C35.554 41.62 36.6121 42.6475 37.6432 43.648C37.9145 43.9184 38.1587 44.1618 38.43 44.4322C38.8098 44.8107 39.1626 45 39.4881 45C39.8409 45 40.1936 44.8107 40.5734 44.4322C41.0075 44.0266 41.4145 43.5939 41.8215 43.1883C42.5812 42.4312 43.3409 41.647 44.1549 40.9169C44.8332 40.295 45.1045 39.619 45.1045 38.6185C45.0503 35.9686 45.0774 33.4268 45.1045 30.3712C45.1045 29.9927 45.213 29.5871 45.3758 29.3167C47.1666 26.5045 48.7945 23.9897 50.3682 21.6372C50.531 21.4209 50.9108 21.2046 51.2364 21.1776C52.6744 21.0964 53 20.772 53 19.3929C53 13.5252 53 7.63041 53 1.76268C53 1.7086 53 1.65452 53 1.60044C53 1.41116 53 1.22188 52.9729 1.00556C52.8643 0.356593 52.376 -0.0490104 51.8333 0.0321103C51.3178 0.113231 50.8023 0.654035 50.6666 0.843317C50.5038 1.0326 50.531 1.33004 50.531 1.62748C50.531 1.7086 50.531 1.76268 50.531 1.84381C50.531 6.22432 50.531 10.6048 50.531 15.0124V18.6899H28.4725V2.57389C28.4725 2.43869 28.4725 2.33053 28.4725 2.19533C28.4725 1.87085 28.4725 1.51932 28.4453 1.1678C28.4182 0.789236 28.2283 0.464754 27.9569 0.248432C27.7128 0.0591505 27.4414 -0.0219702 27.143 0.00507004C26.4375 0.0861907 26.0306 0.518834 26.0034 1.22188C26.0034 1.33004 26.0034 1.4382 26.0034 1.54636V5.54832C26.0034 10.2263 26.0034 14.9042 26.0034 19.5822C25.9763 20.2312 26.112 20.6097 26.3561 20.8531ZM42.6084 38.1318C42.6084 38.7267 42.4456 39.1593 41.9843 39.592C41.3874 40.1598 40.8176 40.7547 40.2478 41.3766C40.0037 41.62 39.7595 41.8904 39.5153 42.1337L38.8098 41.4307C38.023 40.6465 37.2633 39.8894 36.5307 39.1323C36.4222 39.0241 36.3679 38.8348 36.3679 38.6726C36.3679 36.5364 36.3679 34.4002 36.3679 32.1829V30.6687H42.6084C42.6084 30.7498 42.6084 30.8309 42.6084 30.885C42.6084 31.1013 42.6355 31.2906 42.6355 31.4799C42.6355 32.1559 42.6355 32.8589 42.6355 33.5349C42.5812 35.0222 42.5812 36.5905 42.6084 38.1318ZM36.2051 28.1539C36.0152 28.1539 35.6896 28.0187 35.5811 27.8565C34.4415 26.1259 33.3291 24.3954 32.1353 22.5837L31.2671 21.2587H47.6007L46.7325 22.5837C45.5658 24.3954 44.4533 26.0989 43.3138 27.8295C43.2053 27.9917 42.9339 28.1269 42.6898 28.1269C40.5734 28.1539 38.3757 28.1539 36.2051 28.1539Z" fill="#5ABFC6"/>
<path d="M33 15C33.6222 15 34 14.4725 34 13.584C34 12.8621 34 12.1125 34 11.3906C34 11.0852 34 10.7797 34 10.4743C34 10.1689 34 9.83574 34 9.53033C34 8.80844 34 8.08656 34 7.36467C34 6.92043 33.8889 6.55949 33.6667 6.30961C33.4889 6.08749 33.2444 5.97643 32.9556 6.00419C32.3556 6.03196 32 6.53172 32 7.36467C32 9.33597 32 11.3906 32 13.6118C32.0222 14.4725 32.3778 15 33 15Z" fill="#5ABFC6"/>
<path d="M45 15C45.6222 15 46 14.4755 46 13.592C46 12.9018 46 12.184 46 11.4939C46 11.1902 46 10.8865 46 10.5552C46 10.2515 46 9.94785 46 9.64417C46 8.92638 46 8.18098 46 7.46319C46 6.93865 45.8889 6.55215 45.6889 6.30368C45.5111 6.08282 45.2667 6 44.9778 6C44.3556 6.02761 44 6.55215 44 7.43558C44 9.61656 44 11.6043 44 13.5644C44 14.4479 44.3778 15 45 15Z" fill="#5ABFC6"/>
<path d="M38 10.4862V11.3723C38 12.0646 38 12.8123 38 13.5046C38 14.4462 38.3736 15 38.989 15C38.989 15 38.989 15 39.011 15C39.2967 15 39.5165 14.8892 39.6923 14.6954C39.8901 14.4462 40 14.0585 40 13.5323C40 11.4554 40 9.40615 40 7.46769C40 6.96923 39.8901 6.58154 39.6923 6.30462C39.5165 6.08308 39.2747 6 38.989 6C38.3956 6.02769 38.044 6.55385 38.022 7.44C38.022 8.13231 38.022 8.85231 38.022 9.54462C38 9.87692 38 10.1815 38 10.4862Z" fill="#5ABFC6"/>
<path d="M9.89017 45.4106C11.7261 45.9404 13.6178 46.4437 15.4816 46.947C15.6206 46.9735 15.7319 47 15.8432 47C16.3439 47 16.7612 46.6821 16.9281 46.1523C17.1506 45.5166 16.8446 44.9603 16.177 44.7219C15.7876 44.5894 15.3981 44.4834 15.0087 44.3775C14.8974 44.351 14.7583 44.3245 14.647 44.2715C13.6456 44.0066 12.6163 43.7152 11.5314 43.4238L10.0571 43L10.0293 43.0265C9.94581 43.106 9.86235 43.1854 9.75108 43.2649C9.50072 43.4768 9.22254 43.6887 9.08345 44.0066C8.97218 44.298 8.97218 44.5894 9.08345 44.8543C9.25036 45.0927 9.52854 45.3046 9.89017 45.4106Z" fill="#5ABFC6"/>
<path d="M61.094 45.1786C60.9829 45.4162 60.9552 45.7066 61.094 45.9705C61.2329 46.2609 61.4828 46.4985 61.7328 46.7096C61.8438 46.8152 61.9549 46.8944 62.0382 46.9736L62.066 47H62.1216C62.7603 46.8152 63.3713 46.6568 63.9545 46.4721C65.4819 46.0497 66.926 45.6274 68.3701 45.1786C69.0088 44.9675 69.0921 44.3339 68.9255 43.806C68.7033 43.1989 68.1757 42.8821 67.5925 43.0405C65.6485 43.5156 63.7045 44.07 61.7605 44.6243C61.455 44.7299 61.2051 44.9411 61.094 45.1786Z" fill="#5ABFC6"/>
<path d="M27.762 29.166C27.6755 29.1107 27.6179 29.083 27.5891 29.0277L27.5602 29H27.5314C26.9261 29 26.4361 29.2213 26.1767 29.6364C25.9461 29.996 25.9461 30.4387 26.1479 30.8538C26.8397 32.1818 27.5891 33.5929 28.5691 35.3083C28.8285 35.7787 29.2032 36 29.6355 36C29.8373 36 30.0679 35.9447 30.2985 35.8617C30.6155 35.7233 30.8173 35.4743 30.9326 35.1976C31.0479 34.8656 31.019 34.4783 30.8173 34.1186C30.0679 32.7075 29.2608 31.2134 28.3961 29.747C28.2808 29.498 27.9926 29.3043 27.762 29.166Z" fill="#5ABFC6"/>
<path d="M49.6719 29.5574C48.7049 31.2441 47.88 32.7925 47.1121 34.3133C46.9414 34.6451 46.9698 35.0322 47.1689 35.364C47.4249 35.7511 47.9085 36 48.4773 36H48.5342C48.5911 35.9723 48.648 35.9447 48.7049 35.8894C48.904 35.7788 49.1884 35.6405 49.3306 35.4193C50.2976 33.7603 51.1225 32.2395 51.862 30.7463C52.1749 30.138 51.9473 29.5021 51.2647 29.1702C50.6105 28.8384 49.9848 29.0043 49.6719 29.5574Z" fill="#5ABFC6"/>
</svg>
