<svg xmlns="http://www.w3.org/2000/svg" xmlns:xlink="http://www.w3.org/1999/xlink" width="0" height="0" style="position:absolute">
	
		<symbol id="arr" viewBox="0 0 9 5">
			<path d="M8.877.136a.418.418 0 0 0-.596 0L4.505 3.968.73.136A.422.422 0 0 0 .264.031.421.421 0 0 0 .03.268.433.433 0 0 0 .134.74l4.074 4.134a.418.418 0 0 0 .595 0L8.877.74a.431.431 0 0 0 0-.605z"></path>
		</symbol>
	
		<symbol id="cart" viewBox="0 0 22 22">
			<path d="M2 3.686A.686.686 0 0 1 2.686 3h.51c.869 0 1.39.584 1.687 1.127.198.362.342.782.454 1.162.03-.002.061-.003.092-.003h11.427c.76 0 1.308.726 1.1 1.456l-1.672 5.86a2.514 2.514 0 0 1-2.418 1.825H8.428a2.514 2.514 0 0 1-2.425-1.849l-.695-2.534L4.156 6.16v-.008c-.144-.518-.277-1.003-.476-1.365-.191-.352-.345-.416-.483-.416h-.511A.686.686 0 0 1 2 3.686zM6.638 9.71l.687 2.504c.137.496.588.84 1.103.84h5.438a1.142 1.142 0 0 0 1.1-.829l1.588-5.569H5.735l.89 3.005.013.049zm3.134 7.46a1.828 1.828 0 1 1-3.657 0 1.828 1.828 0 0 1 3.657 0zm-1.372 0a.457.457 0 1 0-.914 0 .457.457 0 0 0 .914 0zm7.772 0a1.828 1.828 0 1 1-3.656 0 1.828 1.828 0 0 1 3.656 0zm-1.371 0a.457.457 0 1 0-.914 0 .457.457 0 0 0 .914 0z"></path>
		</symbol>
	
		<symbol id="close" viewBox="0 0 17 17">
			<path fill-rule="evenodd" clip-rule="evenodd" d="M.646.646a.5.5 0 0 1 .708 0L8.5 7.793 15.646.646a.5.5 0 0 1 .708.708L9.207 8.5l7.146 7.146a.5.5 0 1 1-.707.707L8.5 9.207l-7.146 7.147a.5.5 0 0 1-.708-.708L7.793 8.5.646 1.354a.5.5 0 0 1 0-.708z"></path>
		</symbol>
	
		<symbol id="ps-logo" viewBox="0 0 83 17">
			<path fill-rule="evenodd" clip-rule="evenodd" d="M19.49 7.823h-1.606V5.22l1.58.006c.804 0 1.225.648 1.225 1.287 0 .55-.417 1.31-1.2 1.31zm-2.14-3.787c-.391 0-.625.234-.625.626v6.76c0 .374.219.597.585.597.36 0 .575-.223.575-.596V9.01l1.61-.002c1.55-.007 2.386-1.308 2.386-2.528 0-1.37-1.095-2.445-2.494-2.445H17.35zM24.458 10.838V4.622c0-.373-.218-.596-.585-.596-.36 0-.575.223-.575.596v6.598c0 .508.257.799.705.799h3.451c.367 0 .586-.223.586-.596 0-.366-.22-.585-.586-.585h-2.996zM41.484 10.351c-.37.376-1.07.639-1.702.639-1.592 0-2.426-1.499-2.426-2.978 0-1.396.756-2.897 2.416-2.897.564 0 1.336.205 1.723.599a.715.715 0 0 0 .461.185c.328 0 .575-.269.575-.626a.68.68 0 0 0-.258-.527c-.694-.659-1.731-.894-2.47-.894-2.42 0-3.687 2.128-3.687 4.23 0 1.99 1.135 4.13 3.626 4.13.914 0 1.87-.345 2.498-.903a.702.702 0 0 0 .221-.538c0-.356-.231-.595-.575-.595a.544.544 0 0 0-.402.175zM45.1 10.837V8.475h2.665c.367 0 .585-.216.585-.576 0-.38-.218-.605-.585-.605h-2.664V5.227h3.144c.367 0 .586-.22.586-.586 0-.372-.22-.595-.586-.595h-3.68c-.39 0-.624.253-.624.677v6.618c0 .44.1.677.624.677h3.76c.404 0 .645-.219.645-.586 0-.178-.063-.595-.645-.595h-3.224zM53.483 7.506l-.302-.161c-.68-.36-1.323-.7-1.323-1.143 0-.626.557-1.05 1.078-1.054h.015c.684 0 1.195.287 1.52.54l.051.033c.138.09.28.184.45.184.315 0 .571-.276.571-.616 0-.287-.193-.49-.369-.642-.156-.122-.992-.73-2.077-.73-1.474 0-2.504.956-2.504 2.326 0 1.181 1.17 1.79 2.233 2.343.165.086.338.164.51.24.72.32 1.135.549 1.163 1.182.035.808-1.507 1.473-2.922.593a.917.917 0 0 0-.474-.158c-.35 0-.56.212-.56.566 0 .174.064.426.374.632a3.38 3.38 0 0 0 1.865.543c1.916 0 2.97-.791 2.97-2.227 0-1.358-.951-1.812-1.79-2.213-.164-.078-.326-.155-.479-.238zM57.501 4.08c-.391 0-.615.216-.615.596 0 .366.23.585.615.585h1.894v6.155c0 .404.222.646.595.646.36 0 .575-.242.575-.646V5.26h1.904c.373 0 .596-.22.596-.585 0-.374-.223-.596-.596-.596h-4.968zM67.144 8.703H65.22l.974-2.71.949 2.71zm-.175-4.011c-.14-.388-.417-.602-.782-.602-.365 0-.642.214-.783.604l-2.262 6.52a.889.889 0 0 0-.051.274c0 .344.215.575.535.575.173 0 .488-.07.653-.533l.574-1.649h2.67l.723 1.795c.092.25.292.387.562.387.327 0 .555-.233.555-.566a.803.803 0 0 0-.055-.294L66.97 4.692zM73.427 7.856h-1.58V5.261h1.58c.893 0 1.226.79 1.226 1.287 0 .506-.333 1.308-1.226 1.308zm.976.922c.987-.404 1.44-1.424 1.44-2.261 0-1.182-.875-2.438-2.496-2.438h-1.875c-.544 0-.786.281-.786.91v6.393c0 .614.41.68.585.68.36 0 .575-.253.575-.677V9.036h1.336l1.543 2.712a.558.558 0 0 0 .532.324c.32 0 .535-.223.535-.555 0-.147-.038-.303-.118-.464l-1.271-2.275zM77.436 4.08c-.39 0-.615.216-.615.596 0 .366.23.585.615.585h1.894v6.155c0 .404.223.646.596.646.36 0 .575-.242.575-.646V5.26h1.904c.373 0 .595-.22.595-.585 0-.374-.222-.596-.595-.596h-4.969zM33.112 8.675H31.19l.974-2.71.948 2.71zm-.173-4.009c-.14-.388-.417-.601-.782-.601-.365 0-.642.213-.783.604l-2.262 6.52a.875.875 0 0 0-.051.272c0 .345.215.575.535.575.174 0 .489-.069.653-.532l.574-1.649h2.67l.724 1.795a.563.563 0 0 0 .561.386c.327 0 .555-.232.555-.564a.806.806 0 0 0-.055-.295l-2.339-6.51zM6.682 12.642c-.434-.005-1.334-.175-2.03-.333a.683.683 0 0 0-.632.184L1.032 15.48c-.001-3.543-.002-8.55-.001-8.68.035-3.17 2.59-5.75 5.696-5.75h.038c1.507.01 2.93.63 4.01 1.745a5.776 5.776 0 0 1 1.646 4.088c-.027 3.121-2.632 5.759-5.688 5.759h-.051zM6.772 0h-.044C3.059 0 .042 3.046 0 6.788c-.002.155 0 6.034 0 8.546v.956a.702.702 0 0 0 .7.71.687.687 0 0 0 .487-.204l3.423-3.42c.554.12 1.515.31 2.063.316h.06c3.61 0 6.687-3.114 6.719-6.8a6.832 6.832 0 0 0-1.943-4.834C10.238.743 8.555.012 6.772 0z"></path><path fill-rule="evenodd" clip-rule="evenodd" d="M7.765 4.137a.533.533 0 0 0-.101.973 2.002 2.002 0 0 1 1.025 1.755c0 1.101-.88 1.996-1.962 1.996-1.081 0-1.961-.895-1.961-1.996 0-.688.341-1.319.913-1.687a.537.537 0 0 0 .16-.731.517.517 0 0 0-.717-.164 3.055 3.055 0 0 0-1.397 2.582c0 1.685 1.347 3.055 3.002 3.055 1.655 0 3.002-1.37 3.002-3.055 0-1.12-.6-2.15-1.569-2.685a.506.506 0 0 0-.395-.043z"></path><path fill-rule="evenodd" clip-rule="evenodd" d="M6.144 3.973V6.22c0 .292.234.53.52.53.287 0 .52-.238.52-.53V3.973a.525.525 0 0 0-.52-.53.525.525 0 0 0-.52.53z"></path>
		</symbol>
	
		<symbol id="search" viewBox="0 0 22 22">
			<path d="M15.89 9.445a6.445 6.445 0 1 0-2.383 5.005l4.356 4.356.076.065a.667.667 0 0 0 .868-1.007l-4.357-4.357a6.418 6.418 0 0 0 1.44-4.062zm-11.556 0a5.112 5.112 0 1 1 10.223 0 5.112 5.112 0 0 1-10.223 0z"></path>
		</symbol>
	
		<symbol id="service1" viewBox="0 0 78 78">
			<path fill-rule="evenodd" clip-rule="evenodd" d="M35.223 1.258C35.223.563 35.786 0 36.48 0h6.038c.695 0 1.258.563 1.258 1.258v1.761h33.965c.695 0 1.258.563 1.258 1.258V9.31c0 .695-.563 1.258-1.258 1.258h-2.767v3.774c0 .695-.564 1.258-1.258 1.258H56.86v6.793c0 .695-.563 1.258-1.258 1.258h-6.793v11.825c0 .694-.563 1.258-1.258 1.258h-2.037l-1.775 7.098c-.14.56-.643.952-1.22.952h-1.761v23.23l5.2-9.014a1.258 1.258 0 0 1 2.18 1.257L42.105 70.71l17.196-4.606a1.258 1.258 0 1 1 .65 2.43l-10.894 2.918h26.168a3.774 3.774 0 0 1 0 7.548H62.143a1.258 1.258 0 0 1 0-2.516h13.083a1.258 1.258 0 1 0 0-2.516H3.774a1.258 1.258 0 1 0 0 2.516h52.331a1.258 1.258 0 1 1 0 2.516H3.774a3.774 3.774 0 1 1 0-7.548h26.168l-10.895-2.918a1.258 1.258 0 1 1 .651-2.43l17.196 4.606-6.031-10.454a1.258 1.258 0 1 1 2.179-1.257l5.2 9.013V44.783h-1.761c-.577 0-1.08-.392-1.22-.952l-1.775-7.099h-2.037a1.258 1.258 0 0 1-1.258-1.258V23.65h-6.793a1.258 1.258 0 0 1-1.258-1.258v-6.793H5.283a1.258 1.258 0 0 1-1.258-1.258v-3.774H1.258A1.258 1.258 0 0 1 0 9.309V4.277C0 3.582.563 3.02 1.258 3.02h5.535a1.258 1.258 0 1 1 0 2.516H2.516v2.516h32.707V5.535H12.83a1.258 1.258 0 0 1 0-2.516h22.392V1.258zm0 9.309H6.54v2.516h28.682v-2.516zm2.516 2.516h3.522V2.516H37.74v10.567zm6.038 0H72.46v-2.516h-6.29a1.258 1.258 0 1 1 0-2.516h10.315V5.535H43.777v2.516h16.354a1.258 1.258 0 0 1 0 2.516H43.777v2.516zm-19.12 2.516v5.535h29.687v-5.535H24.656zm8.05 8.05v10.568h13.586V23.65H32.707zm3.372 13.084l1.384 5.535h4.074l1.384-5.535h-6.842zm-1.862-7.8c0-.695.563-1.258 1.258-1.258h8.05a1.258 1.258 0 0 1 0 2.516h-8.05a1.258 1.258 0 0 1-1.258-1.258zM15.83 55.88a1.258 1.258 0 0 1 1.755-.296l12.26 8.719a1.258 1.258 0 1 1-1.457 2.05l-12.261-8.719a1.258 1.258 0 0 1-.296-1.754zm47.338 0c.402.567.27 1.352-.297 1.755l-12.26 8.718a1.258 1.258 0 0 1-1.459-2.05l12.261-8.719a1.258 1.258 0 0 1 1.755.296zm-53.062 8.958c.18-.671.869-1.07 1.54-.89l3.02.809a1.258 1.258 0 0 1-.652 2.43l-3.019-.809a1.258 1.258 0 0 1-.89-1.54zm58.787 0c.18.671-.22 1.36-.89 1.54l-3.02.81a1.258 1.258 0 1 1-.65-2.431l3.019-.809c.671-.18 1.36.219 1.54.89z"></path>
		</symbol>
	
		<symbol id="service2" viewBox="0 0 94 67">
			<g clip-path="url(#a)"><path d="M2.003 64.34c-.028 0-.028 0 0 0-.862 0-1.53.14-2.003.84v.896c.334.644.862.924 1.697.924h.056c1.92-.028 3.866-.028 5.758-.028h84.375c.973 0 1.697-.056 2.114-.924v-.896c-.473-.7-1.14-.84-1.975-.84H35.024v-5.463h56.862c.75 0 1.558-.056 2.086-.812v-1.064c-.445-.56-1.03-.785-1.92-.785H29.21c-3.172 0-4.924 1.765-4.952 4.958v3.109h-6.203c-5.258.084-10.71.084-16.052.084zm25.01-4.034c.055-.504.806-1.204 1.334-1.288.89-.113 1.809-.113 2.755-.084.361 0 .75.028 1.14.028h.056v5.35h-5.37v-.057c0-.364 0-.756-.027-1.12 0-.952-.028-1.905.111-2.83zM94 49.074c-.445-.588-1.03-.813-2.003-.813a411.83 411.83 0 0 1-8.318 0h-2.253c-1.836 0-2.393-.532-2.393-2.352V32.324c0-1.82.529-2.353 2.393-2.353H92.192c.946 0 1.502-.28 1.836-.952v-.897c-.418-.588-.974-.84-1.864-.84h-.028c-2.893.028-5.842.028-8.68.028H81.12c-1.948 0-3.366.84-4.257 2.549-.139.28-.584.504-.89.504-.862.028-1.752.028-2.615.028h-1.613c-2.031.028-3.366 1.373-3.422 3.417v1.429h-17.47l.278-.476c.14-.224.25-.42.362-.589l2.42-3.809c1.28-1.989 2.531-3.977 3.811-5.994.028-.056.056-.112.111-.168.14-.196.279-.42.362-.616.278-.673.14-1.233-.445-1.625a1.34 1.34 0 0 0-.751-.252c-.334 0-.668.168-.974.504-.139.14-.25.336-.362.504a.586.586 0 0 1-.11.168c-.557.897-1.141 1.793-1.698 2.661a950.591 950.591 0 0 1-5.758 8.992c-.223.336-.64.7-1.002.728-1.975.168-3.672.98-5.202 2.549-1.975 2.017-4.006 4.033-5.953 5.994l-2.893 2.913-.028.028c-.195.196-.417.42-.584.644-1.196 1.513-1.03 3.697.361 5.042 1.391 1.344 3.589 1.4 5.008.168.667-.588.806-1.316.334-1.933-.446-.588-1.141-.672-1.864-.196a.486.486 0 0 0-.14.112c-.11.084-.25.196-.361.168h-.167c-.362-.028-.807-.056-1.002-.28-.25-.252-.25-.812-.194-1.232.028-.224.25-.42.445-.588.056-.056.111-.112.167-.14.918-.925 1.864-1.849 2.782-2.801 1.92-1.933 3.922-3.922 5.842-5.91 1.252-1.289 2.67-1.877 4.478-1.877 4.452.028 8.958.028 13.326.028h5.703c.222 0 .445 0 .667.028.112 0 .223 0 .306.028h.056v2.213H50.018c-2.448 0-4.423.812-6.037 2.492-.472.505-.973.98-1.446 1.457-.445.448-.918.896-1.335 1.373-.668.672-.724 1.456-.195 2.016.584.589 1.307.532 2.003-.14l.083-.084c.863-.84 1.753-1.708 2.56-2.605 1.168-1.26 2.642-1.876 4.478-1.876 4.09.028 8.235.028 12.269 0H68.24v1.204c.027 2.409 1.363 3.725 3.755 3.753h4.562l.028.056c.89 2.13 2.504 3.081 5.091 3.026 3.116-.085 6.287-.057 9.375-.029h.918c.723 0 1.475-.084 2.03-.784v-1.008zm-17.637-3.866H73.942c-.75 0-1.502 0-2.253-.056-.306-.028-.779-.56-.779-.896a321.403 321.403 0 0 1 0-10.364c0-.308.5-.84.807-.84a44.73 44.73 0 0 1 3.366-.028h1.252v12.184h.028zM34.19 31.987c0 .953.5 1.569 1.307 1.569.779 0 1.28-.616 1.307-1.569v-4.649V2.045v-.168c0-.28 0-.56-.055-.813-.111-.504-.5-.868-.974-1.008a1.1 1.1 0 0 0-1.113.336c-.306.364-.445.98-.445 1.373-.027 3.92-.027 7.898-.027 11.736v18.486zM16.413 24.48c-.167-.28-.473-.475-.723-.615-.084-.056-.14-.084-.195-.14-.64.028-1.168.308-1.39.756-.223.42-.168.924.11 1.4 3.033 4.762 6.26 9.86 10.21 16.022.473.756 1.224.953 1.864.532.667-.42.779-1.176.306-1.932-3.005-4.79-6.593-10.42-10.182-16.022zM10.432 46.665c.111.336.334.588.64.728 2.142.98 4.673 2.129 7.205 3.193.39.169.807.113 1.113-.112.39-.28.64-.784.64-1.4-.028-.056-.084-.112-.14-.196-.139-.224-.334-.532-.584-.644a260.81 260.81 0 0 0-7.205-3.222 1.283 1.283 0 0 0-.529-.112c-.445 0-.806.253-1.084.757-.14.336-.167.7-.056 1.008z"></path><path d="M58.447 45.852c-.194-.14-.445-.196-.695-.196-.195 0-.39.056-.612.14-1.614.7-3.31 1.457-5.37 2.381-.75.336-1.056 1.008-.778 1.709.139.336.362.588.668.728.333.14.75.14 1.14-.028 1.725-.728 3.589-1.54 5.341-2.409.306-.14.529-.448.696-.7.055-.084.111-.168.167-.224.055-.616-.167-1.12-.557-1.4zM2.17 43.416c1.085.56 2.17 1.064 3.255 1.456.39.14.779.084 1.085-.112.39-.28.612-.756.612-1.344-.028-.056-.084-.112-.112-.196-.139-.224-.306-.533-.556-.673-1.03-.56-2.086-.98-3.171-1.428-.167-.056-.334-.112-.501-.112-.445 0-.807.252-1.057.728-.362.7-.167 1.345.445 1.68zM34.523 39.326c.25.252.557.392.918.42.696.028 1.28-.532 1.336-1.232.027-.336-.112-.672-.362-.953a1.37 1.37 0 0 0-.918-.448h-.028c-.667 0-1.252.56-1.28 1.233-.027.364.112.7.334.98zM10.988 20.728c.223.252.557.42.89.42.334 0 .668-.14.946-.392.25-.252.418-.588.418-.925 0-.7-.557-1.26-1.28-1.288h-.028c-.695 0-1.252.504-1.28 1.204-.027.393.084.729.334.98z"></path></g><defs><clipPath id="a"><path d="M0 0h94v67H0z"></path></clipPath></defs>
		</symbol>
	
		<symbol id="service3" viewBox="0 0 88 78">
			<g clip-path="url(#a)"><path d="M88 35.923c.027-3.886-1.166-6.801-3.932-9.446-5.37-5.155-10.712-10.526-15.892-15.708a1088.953 1088.953 0 0 0-7.919-7.88c-3.823-3.78-9.274-3.887-12.99-.217-5.586 5.479-11.2 11.12-16.65 16.545l-3.227 3.239c-1.492 1.51-2.36 3.346-2.576 5.478-.218 2.214.352 4.319 1.708 6.262l-2.115 2.132c-1.709 1.7-3.39 3.4-5.099 5.101l-.108.108c-.271.243-.624.594-.624 1.107 0 .324.136.62.434.89.65.621 1.383.54 2.17-.242l2.142-2.133 1.573-1.565c.922-.918 1.817-1.835 2.739-2.726l.786-.783c4.393 2.78 9.194 2.133 12.882-1.835 2.386-2.537 4.908-5.02 7.349-7.422a418.475 418.475 0 0 1 3.498-3.428c.434-.432.868-.89 1.275-1.322.081-.081.162-.19.244-.27l1.898 1.89c4.583 4.56 9.329 9.283 13.966 13.926.163.189.326.593.326.971.027 1.026.027 2.078.027 3.104 0 .999 0 2.024.027 3.05 0 .459-.055.62-.597.864-12.908 5.83-19.932 15.897-20.908 29.904-.055.945-.082 1.593.325 2.051.407.432 1.058.46 2.007.46h34.875c2.06 0 2.386-.325 2.386-2.376V64.613c-.054-9.42-.054-19.135 0-28.69zm-2.74 9.744v29.607H51.092c.027-7.719 3.716-15.68 9.899-21.403 6.481-5.991 15.078-8.906 24.27-8.204zm-6.4-2.483c-1.626.135-3.2.458-4.853.782-.516.108-1.03.216-1.546.297 0-.944-.027-1.916-.027-2.834-.027-2.59-.054-5.263.054-7.854.163-3.293 2.983-5.884 6.319-5.884h.244c3.498.136 6.183 2.861 6.237 6.37.027 2.105.027 4.21.027 6.45v2.592c-.542 0-1.085-.027-1.6-.027-1.6 0-3.254-.027-4.854.108zm-.053-18.218c-2.55.215-4.638 1.133-6.319 2.78-1.708 1.673-2.55 3.724-2.685 6.45l-5.37-5.344a8035.664 8035.664 0 0 1-15.159-15.114c-1.708-1.727-2.386-4.076-1.816-6.316C48 5.29 49.627 3.617 51.797 2.97a6.631 6.631 0 0 1 2.006-.324c1.682 0 3.227.702 4.61 2.051 2.441 2.402 4.855 4.832 7.295 7.26l4.828 4.805c2.088 2.078 4.203 4.156 6.291 6.234l1.98 1.97zm-26.82-4.913a4.268 4.268 0 0 0-.869.648 451.676 451.676 0 0 0-5.098 5.074c-2.495 2.483-5.07 5.047-7.62 7.557-1.871 1.836-4.068 2.348-6.536 1.539-2.44-.81-3.905-2.51-4.339-5.101-.352-2.024.217-3.833 1.573-5.21 4.068-4.102 8.217-8.231 12.23-12.226 1.113-1.106 2.224-2.186 3.31-3.292 0 2.699 1.057 4.993 3.226 7.017 1.004.918 1.98 1.89 3.01 2.915.353.35.733.702 1.112 1.08z"></path><path d="M28.501 42.644c0-.702.57-1.269 1.302-1.269H67.58c.461 0 1.573.027 1.573 1.295 0 .405-.135.702-.352.918-.38.378-.895.351-1.33.351H29.804c-.732 0-1.329-.567-1.302-1.295zM56.678 71.064c0 .054.027.107.054.134.027.054.054.081.082.135h-.163l.027-.27zM54.047 5.074h-.027c-2.359.027-4.312 1.943-4.339 4.292-.027 1.16.434 2.24 1.248 3.076a4.357 4.357 0 0 0 3.118 1.296h.028a4.354 4.354 0 0 0 4.338-4.291c0-1.161-.433-2.268-1.274-3.104-.84-.81-1.925-1.269-3.092-1.269zm1.709 4.427c-.027.944-.76 1.619-1.681 1.619h-.028a1.73 1.73 0 0 1-1.22-.513 1.62 1.62 0 0 1-.46-1.241 1.704 1.704 0 0 1 1.708-1.647h.027c.46 0 .895.19 1.193.513.298.324.46.783.46 1.269zM83.308 34.628c.028-1.16-.433-2.24-1.247-3.077a4.404 4.404 0 0 0-3.119-1.295 4.25 4.25 0 0 0-3.091 1.295 4.242 4.242 0 0 0-1.22 3.104c.027 2.348 1.98 4.237 4.339 4.237h.027a4.29 4.29 0 0 0 4.311-4.264zm-2.63-.108c.027.459-.163.918-.488 1.242-.325.35-.76.54-1.22.54-.434 0-.868-.162-1.194-.486a1.792 1.792 0 0 1-.515-1.269c0-.944.76-1.673 1.681-1.7h.028c.895.027 1.68.783 1.708 1.673zM21.424 33.764a1.328 1.328 0 0 1-1.33-1.323v-9.716c0-.729.597-1.323 1.33-1.323.732 0 1.328.594 1.328 1.323v9.716c0 .729-.596 1.323-1.328 1.323zM21.424 64.047a1.328 1.328 0 0 1-1.33-1.323v-9.716c0-.729.597-1.323 1.33-1.323.732 0 1.328.594 1.328 1.323v9.716c0 .729-.596 1.323-1.328 1.323zM27.797 49.067a1.33 1.33 0 0 1 1.87 0l6.916 6.883c.515.512.515 1.35 0 1.862a1.33 1.33 0 0 1-1.871 0l-6.915-6.883a1.315 1.315 0 0 1 0-1.862zM6.264 27.637a1.33 1.33 0 0 1 1.872 0l6.915 6.883c.515.513.515 1.35 0 1.862a1.33 1.33 0 0 1-1.871 0L6.264 29.5a1.315 1.315 0 0 1 0-1.863zM6.264 57.785a1.315 1.315 0 0 1 0-1.863l6.916-6.882a1.33 1.33 0 0 1 1.87 0c.516.513.516 1.35 0 1.862l-6.914 6.883a1.33 1.33 0 0 1-1.872 0zM9.681 76.678c0-.729.597-1.322 1.329-1.322h31.81c.732 0 1.329.593 1.329 1.322 0 .729-.597 1.323-1.329 1.323H11.01c-.732-.028-1.329-.594-1.329-1.323z"></path><path d="M57.519 72.52a1.299 1.299 0 0 1-1.302-1.295c0-10.822 10.278-21.078 21.18-21.078.704 0 1.301.566 1.301 1.295s-.57 1.295-1.301 1.295c-9.384 0-18.604 9.177-18.604 18.515.027.675-.542 1.269-1.274 1.269zM12.42 42.725c0 .729-.596 1.322-1.329 1.322H1.33A1.328 1.328 0 0 1 0 42.725c0-.729.597-1.323 1.329-1.323h9.762c.733 0 1.33.594 1.33 1.323z"></path></g><defs><clipPath id="a"><path d="M0 0h88v78H0z"></path></clipPath></defs>
		</symbol>
	
		<symbol id="service4" viewBox="0 0 78 78">
			<path d="M77.966 68.473c-.026-.594-.241-1.296-.59-1.755-2.418-3.239-4.862-6.531-7.252-9.716-1.692-2.267-3.384-4.507-5.076-6.775-.483-.647-1.02-.917-1.826-.917h-.027c-2.256.027-4.566.027-6.795.027h-2.014c-.188 0-.35 0-.618-.027-.107 0-.215 0-.322-.027.242-.243.483-.459.698-.675.51-.486.967-.918 1.424-1.376l10.635-10.688c.752-.756.806-1.377.188-2.025-1.585-1.619-3.223-3.265-5.022-5.074-.591-.593-1.182-.593-1.827 0a2.493 2.493 0 0 0-.376.378l-.16.162-3.707 3.725c-4.727 4.75-9.588 9.662-14.422 14.466-.43.432-1.048.81-1.612.972-.86.243-1.477-.297-2.068-.89-5.371-5.426-10.877-10.932-16.168-16.249l-2.175-2.186c-1.048-1.052-1.477-1.052-2.525.027l-4.35 4.372c-1.021 1.026-1.021 1.485.026 2.538l4.405 4.426 7.466 7.503c.134.135.269.27.43.459l.215.216H14.798c-.778 0-1.316.27-1.772.864-1.853 2.483-3.68 4.939-5.533 7.395a433.872 433.872 0 0 0-6.956 9.23 2.627 2.627 0 0 0-.483 1.458C0 70.524 0 72.79 0 74.95v1.403C0 77.568.43 78 1.638 78h74.717c1.235 0 1.638-.405 1.638-1.646v-1.62c0-2.051.027-4.183-.027-6.261zM2.417 69.876c-.054-1.053.242-1.916.967-2.86 3.599-4.724 7.09-9.42 10.985-14.63.349-.485.698-.647 1.262-.647h.027c2.417.027 4.86.027 7.224.027h3.385c0 .108 0 .189.026.27 0 .216.027.432.027.648V62.21c0 1.296.376 1.673 1.665 1.673h22.077c1.289 0 1.665-.377 1.665-1.673V51.82c.107 0 .188 0 .269-.027.214-.027.375-.027.537-.027h9.937c.51 0 .806.135 1.074.54 2.176 2.915 4.378 5.857 6.526 8.717 1.72 2.268 3.411 4.562 5.13 6.829.215.297.35.594.35.837.026 1.727.026 3.427.026 5.236v1.592H2.444v-1.62c0-1.322.027-2.698-.027-4.02zm15.336-37.732c.134.108.268.243.43.405l7.922 7.962 9.347 9.393c2.282 2.294 4.807 2.294 7.09 0l17.242-17.328c.134-.135.296-.297.43-.405l.107-.108 3.411 3.428c-.027.027-.027.054-.054.054-.08.108-.188.216-.295.324l-4.861 4.885-13.24 13.306c-1.64 1.646-3.6 2.591-5.721 2.726-2.122.162-4.136-.486-5.909-1.862a7.864 7.864 0 0 1-.913-.81L14.584 35.869a3.225 3.225 0 0 1-.296-.324c-.027-.027-.027-.054-.054-.054l3.411-3.4c.027 0 .054.026.108.053zM48.53 54.25c.215-.243.456-.486.698-.729v7.908H28.764V53.52l.725.729c.537.54 1.02 1.053 1.504 1.538 4.62 4.643 11.36 4.643 16.007 0 .51-.485.994-.998 1.53-1.538z"></path><path d="M26.356 20.853c.244.243.651.352 1.248.325.543 0 .841.162 1.14.621.76 1.19 1.546 2.407 2.306 3.57.787 1.244 1.628 2.515 2.415 3.758.244.379.38.893.407 1.325.027 1.271.027 2.542.027 3.786 0 1.568 0 3.19.027 4.786 0 .514.271 1.163.651 1.541.977 1.055 2.035 2.083 3.066 3.083l.787.784c.38.379.733.568 1.058.568.353 0 .706-.19 1.085-.568.435-.405.841-.838 1.248-1.244.76-.757 1.52-1.541 2.334-2.271.678-.622.95-1.298.95-2.299-.055-2.65-.028-5.191 0-8.247 0-.378.108-.784.27-1.054a407.356 407.356 0 0 1 4.993-7.68c.163-.216.543-.432.868-.46 1.438-.08 1.764-.405 1.764-1.784V1.763 1.6c0-.189 0-.378-.027-.594-.109-.65-.597-1.055-1.14-.974-.515.081-1.03.622-1.166.811-.163.19-.136.487-.136.784V18.69H28.473V2.574v-.379c0-.324 0-.676-.028-1.027a1.292 1.292 0 0 0-.488-.92 1.121 1.121 0 0 0-.814-.243c-.706.081-1.112.514-1.14 1.217v18.36c-.027.65.109 1.028.353 1.271zm16.252 17.279c0 .595-.162 1.027-.624 1.46a36.172 36.172 0 0 0-1.736 1.785c-.244.243-.488.513-.733.757l-.705-.703c-.787-.784-1.547-1.542-2.28-2.299-.108-.108-.162-.297-.162-.46V30.67h6.24v.216c0 .216.028.406.028.595v2.055a86.104 86.104 0 0 0-.028 4.597zm-6.403-9.978c-.19 0-.515-.135-.624-.297-1.14-1.731-2.252-3.462-3.446-5.273l-.868-1.325h16.334l-.868 1.325a608.017 608.017 0 0 1-3.42 5.245c-.108.163-.38.298-.623.298-2.117.027-4.314.027-6.485.027z"></path><path d="M33 15c.622 0 1-.527 1-1.416v-2.193-.917-.944-2.165c0-.445-.111-.806-.333-1.055a.781.781 0 0 0-.711-.306c-.6.028-.956.528-.956 1.36v6.248c.022.86.378 1.388 1 1.388zM45 15c.622 0 1-.524 1-1.408v-2.098-.939-.91-2.182c0-.524-.111-.91-.311-1.16-.178-.22-.422-.303-.711-.303-.622.028-.978.552-.978 1.436v6.128c0 .884.378 1.436 1 1.436zM38 10.486v3.019c0 .941.374 1.495.989 1.495h.022c.286 0 .505-.11.681-.305.198-.249.308-.636.308-1.163V7.468c0-.499-.11-.886-.308-1.163-.175-.222-.417-.305-.703-.305-.593.028-.945.554-.967 1.44v2.105c-.022.332-.022.636-.022.941zM9.89 45.41c1.836.53 3.728 1.034 5.592 1.537.139.026.25.053.361.053.5 0 .918-.318 1.085-.848.223-.635-.083-1.192-.751-1.43-.39-.133-.779-.239-1.168-.345-.112-.026-.25-.053-.362-.105-1.001-.265-2.03-.557-3.116-.848L10.057 43l-.028.026c-.083.08-.167.16-.278.239-.25.212-.528.424-.668.742a1.118 1.118 0 0 0 0 .847c.167.239.446.45.807.557zM61.094 45.179a.883.883 0 0 0 0 .791c.139.29.389.529.639.74.11.105.222.184.305.264l.028.026h.056c.638-.185 1.25-.343 1.833-.528 1.527-.422 2.971-.845 4.415-1.293.639-.212.722-.845.555-1.373-.222-.607-.75-.924-1.332-.765-1.945.475-3.889 1.029-5.833 1.583-.305.106-.555.317-.666.555zM27.762 29.166c-.087-.055-.144-.083-.173-.138L27.56 29h-.029c-.605 0-1.095.221-1.354.636-.23.36-.23.803-.03 1.218.693 1.328 1.442 2.739 2.422 4.454.26.47.634.692 1.067.692.201 0 .432-.055.663-.138.317-.139.518-.388.634-.664.115-.332.086-.72-.116-1.08a112.37 112.37 0 0 0-2.42-4.371c-.116-.249-.404-.443-.635-.581zM49.672 29.557a100.471 100.471 0 0 0-2.56 4.756c-.17.332-.142.72.057 1.051.256.387.74.636 1.308.636h.057c.057-.028.114-.055.17-.11.2-.111.484-.25.627-.47a77.692 77.692 0 0 0 2.531-4.674c.313-.608.085-1.244-.597-1.576-.654-.332-1.28-.166-1.593.387z"></path>
		</symbol>
	
		<symbol id="service5" viewBox="0 0 78 78">
			<g clip-path="url(#a)"><path d="M77.972 59.985c0-.944-.528-1.444-1.445-1.444-3.642 0-7.283-.027-10.897 0-1.418.028-2.585.667-3.224 1.916-.75 1.416-1.89 2.36-3.225 3.109-2.502 1.415-5.198 2.248-7.978 2.803-7.338 1.527-14.733 1.61-22.127.417-3.28-.528-6.504-1.36-9.506-2.86-1.446-.749-2.864-1.554-3.67-3.08-.834-1.61-2.14-2.332-3.947-2.332-3.391.027-6.755 0-10.146 0-1.334 0-1.78.444-1.78 1.748v15.906c0 .805.223 1.388.918 1.804h76.166c.528-.333.917-.75.917-1.416C78 71.06 78 65.51 77.972 59.985zm-2.64 15.35H2.669V61.123h.861c2.808 0 5.615.028 8.423 0 .778 0 1.306.278 1.668.971 1.112 2.11 3.03 3.304 5.087 4.33 3.252 1.61 6.699 2.471 10.257 2.999 8.367 1.249 16.706 1.082 24.935-1.027 2.807-.722 5.504-1.75 7.894-3.442a9.092 9.092 0 0 0 2.724-2.998c.223-.361.723-.778 1.112-.805 3.225-.056 6.45-.028 9.702-.028v14.212z"></path><path d="M33.135 14.434h3.28c0 1.999-.028 3.859.028 5.746.027.639.166 1.332.472 1.888 2.724 4.746 5.504 9.493 8.284 14.184.278.444.667.888 1.112 1.138.417.25.472.527.472.916v6.19c0 4.913.028 9.826 0 14.767 0 .889.278 1.5 1.056 1.971 1.112.666 2.169 1.388 3.225 2.138.64.444 1.223.444 1.835 0 1.028-.722 2.084-1.444 3.169-2.082.861-.5 1.14-1.194 1.14-2.165-.029-6.801 0-13.602-.029-20.403 0-.666.056-1.165.751-1.47.334-.167.612-.556.806-.889a1506.19 1506.19 0 0 0 8.423-14.462c.25-.444.389-1 .389-1.526.056-1.916.028-3.859.028-5.913h3.558c1.862 0 2.919-1.055 2.919-2.915v-8.41c0-1.916-1.057-2.943-2.975-2.943H32.857c-1.974 0-3.002 1.027-3.002 2.998v8.022c.055 2.277 1 3.22 3.28 3.22zm16.261 38.64c0-.167.14-.39.278-.5a274.192 274.192 0 0 1 4.698-3.11c.028-.027.083 0 .222 0v2.888c0 .139-.083.333-.166.388-1.64 1.11-3.28 2.193-5.032 3.359 0-1.11-.028-2.082 0-3.026zm0-6.607c0-.111.14-.278.25-.36 1.585-1.083 3.197-2.138 4.948-3.332 0 1.138.028 2.082-.028 3.026 0 .194-.166.444-.305.555a489.577 489.577 0 0 1-4.865 3.248v-3.137zm5.17 12.297c-.25 1.138-1.556 1.277-2.335 1.915-.139.111-.639-.083-.917-.25-.611-.36-1.223-.777-1.918-1.221 1.724-1.138 3.392-2.22 5.198-3.414 0 1.11.167 2.082-.028 2.97zm-1.084-18.32c-1.306.888-2.64 1.748-4.058 2.692v-5.274h5.087c.306 1.527.25 1.721-1.029 2.581zm11.453-20.847H51.314c-1.25 0-1.918.444-1.918 1.305 0 .86.64 1.304 1.89 1.304h12.676c-.139.278-.222.5-.334.694L56.79 34.642c-.222.389-.472.583-.973.555-2.585-.028-5.17 0-7.727-.028-.25 0-.64-.138-.75-.333-2.42-4.08-4.782-8.16-7.173-12.269-.055-.083-.055-.166-.11-.36h3.835c1.001 0 1.585-.472 1.612-1.277 0-.778-.583-1.305-1.584-1.333-1.612-.027-3.224 0-4.892 0V14.49h25.907v5.107zM32.551 2.804h2.557V5.08c0 1 .473 1.554 1.307 1.554.778 0 1.25-.555 1.278-1.526.028-.75 0-1.5 0-2.304h2.586c0 .888-.056 1.748 0 2.609.055.777.611 1.221 1.334 1.193.695-.027 1.167-.5 1.223-1.249.028-.25 0-.527 0-.777V2.776h2.613v2.276c0 .972.445 1.499 1.25 1.527.835.027 1.335-.528 1.363-1.527V2.748h2.613c0 .833-.028 1.693 0 2.526.028.805.528 1.277 1.25 1.305.751.027 1.28-.472 1.307-1.305.028-.805 0-1.638 0-2.498h2.613V5.08c0 .971.473 1.499 1.279 1.526.834.028 1.334-.527 1.334-1.526V2.998c0-.056.028-.111.056-.222h2.53V5.08c0 .971.444 1.526 1.25 1.526.834.028 1.307-.527 1.335-1.526.027-.75 0-1.5 0-2.276h2.585v2.22c0 1.027.472 1.582 1.278 1.61.862.028 1.307-.555 1.335-1.61V3.026c0-.056.028-.084.055-.195h2.474v8.966H32.468c.083-2.998.083-5.968.083-8.993zM6.866 19.57c2.974 1.637 4.03 4.885 2.64 7.8-1.222 2.58-1.417 5.357-.75 8.16.918 3.914 3.197 6.801 6.7 8.716 1.667.916 2.696 2.276 3.03 4.136.194 1.166-.084 2.22-.501 3.303-1 2.61.834 5.302 3.892 5.33 1.39-.056 2.613-.86 3.308-2.415 2.835-6.245.389-13.601-5.671-17.016-3.169-1.776-4.058-4.385-2.669-7.744 2.641-6.357.223-13.407-5.782-16.766-3.057-1.72-3.975-4.358-2.696-7.578.834-2.11-.028-4.33-2.03-5.163-1.973-.86-4.169.056-5.114 2.11-2.89 6.44-.556 13.74 5.643 17.126zM3.419 3.913c.417-1 1.056-1.36 1.835-1.055.778.333.973 1.027.584 2.026-1.446 3.692-.25 7.662 2.974 9.827.333.222.695.416 1.056.638 4.81 2.748 6.783 8.439 4.614 13.546-.889 2.11-1.14 4.22-.36 6.385.694 1.97 2 3.441 3.863 4.44 2.808 1.5 4.642 3.776 5.448 6.857.612 2.304.445 4.58-.472 6.8-.39.917-1.056 1.278-1.807.972-.723-.277-.945-1.027-.612-1.943 1.585-4.163.14-8.188-3.725-10.354-5.142-2.914-7.06-8.466-4.808-13.906.444-1.083.639-2.249.806-2.887-.14-3.775-1.585-6.19-4.42-7.772-3.28-1.832-5.17-4.553-5.699-8.217-.25-1.832.028-3.636.723-5.357z"></path><path d="M9.757 46.744c-1.056-.36-1.834-.999-2.085-2.248-.305-1.61-1.862-2.748-3.447-2.831-2.89-.14-4.808 2.387-4.002 5.33 1.445 5.245 6.31 7.605 10.896 7.994 2.085.027 3.836-1.472 4.03-3.498.196-2.082-1.222-3.914-3.307-4.275-.695-.11-1.418-.25-2.085-.472zm2.78 4.58c-.111.639-.64 1.055-1.612 1.028-2.947-.417-5.782-1.416-7.478-4.358-.389-.667-.611-1.472-.778-2.249-.14-.694.333-1.304.973-1.443.722-.14 1.39.222 1.529.944.472 2.276 2.084 3.386 4.114 4.052.695.222 1.445.305 2.196.5.778.194 1.195.777 1.056 1.526zM31.439 36.585c2.196-2.026 3.252-4.58 3.252-7.995-.055-.416-.055-1.249-.25-2.026a22.272 22.272 0 0 0-.89-3.025c-.806-2.11-2.974-3.137-5.003-2.388-2.03.75-3.002 2.887-2.307 5.052.25.75.472 1.527.584 2.304.139.972-.056 1.832-.89 2.554-1.14 1-1.473 2.332-1.084 3.803.778 2.97 4.253 3.858 6.588 1.72zm-3.697-3.581c1.834-1.61 2.001-3.608 1.556-5.774-.138-.61-.36-1.221-.555-1.832-.25-.832.027-1.526.722-1.776.723-.25 1.446.055 1.696.916.445 1.443.778 2.914 1.14 4.358-.056.028-.14.028-.195.055 0 2.304-.723 4.275-2.502 5.83-.806.694-1.918.527-2.14-.361-.111-.444-.028-1.166.278-1.416zM60.043 59.264c.5.749 1.417.749 2.168-.028 3.335-3.303 6.643-6.634 9.951-9.938.167-.166.334-.333.445-.527.5-.888-.139-1.915-1.334-1.888-.167.084-.528.195-.75.445a1791.213 1791.213 0 0 0-10.286 10.27c-.528.5-.611 1.083-.194 1.666zM33.107 47.022c-.556-.277-1.112-.222-1.557.25-.445.472-.445 1.027-.139 1.555.111.194.306.36.445.527l9.785 9.77c.166.167.333.417.528.445.417.083.945.194 1.306.028.362-.167.556-.666.862-1.055-.278-.444-.445-.833-.695-1.11-3.336-3.359-6.7-6.718-10.063-10.049a2.326 2.326 0 0 0-.472-.36zM42.169 50.464c.445.083.973.222 1.362.056.334-.14.528-.667.806-1.028-.25-.444-.389-.804-.64-1.082l-4.92-6.162c-.583-.722-1.334-.86-1.945-.389-.612.472-.667 1.25-.084 1.97a536.01 536.01 0 0 0 4.976 6.19c.14.195.278.417.445.445zM62.294 50.02a924.928 924.928 0 0 0 4.865-6.079c.222-.278.334-.61.584-1.11-.334-.361-.612-.805-1-1.027-.612-.333-1.14-.028-1.557.472-1.64 2.054-3.28 4.108-4.92 6.134-.612.777-.612 1.555.027 2.026.64.528 1.362.389 2.002-.416zM27.325 44.219a1.27 1.27 0 0 0 1.279 1.332c.723 0 1.279-.555 1.279-1.25 0-.72-.529-1.276-1.251-1.304a1.268 1.268 0 0 0-1.307 1.222zM75.387 45.551c.723 0 1.25-.555 1.25-1.277 0-.721-.555-1.276-1.25-1.304-.695 0-1.279.555-1.306 1.249 0 .777.555 1.332 1.306 1.332zM21.904 70.228H13.26c-.973 0-1.5.472-1.5 1.276 0 .805.527 1.277 1.473 1.277h8.672c.973 0 1.502-.472 1.502-1.277 0-.777-.529-1.276-1.502-1.276zM7.477 70.228h-.305c-.223 0-.473-.027-.695 0-.723.056-1.223.528-1.223 1.222-.028.721.444 1.249 1.195 1.332.333.028.667.028 1 .028 1.085 0 1.668-.444 1.668-1.277.028-.805-.583-1.277-1.64-1.305z"></path></g><defs><clipPath id="a"><path d="M0 0h78v78H0z"></path></clipPath></defs>
		</symbol>
	
		<symbol id="service6" viewBox="0 0 78 78">
			<g clip-path="url(#a)"><path d="M78 53.24c-.027-5.147-3.53-9.727-8.514-11.128-.404-.108-.808-.188-1.24-.296-.188-.054-.403-.081-.619-.135h-.054v-.054-.781-1.697c-.027-.917-.458-1.375-1.32-1.375a156.7 156.7 0 0 0-5.038 0c-.809 0-1.267.458-1.294 1.32v1.213h-2.748v-.727-1.401c0-1.375-.377-1.752-1.697-1.752h-9.43c-.162 0-.324 0-.566-.027-.135 0-.27-.027-.458-.027h-.162l.108-.107c.243-.243.485-.459.7-.674.513-.485.944-.916 1.429-1.293.538-.431 1.023-.7 1.454-.809 1.698-.404 3.45-.808 5.12-1.212 1.697-.377 3.448-.781 5.173-1.212a3.144 3.144 0 0 0 1.4-.782 405.326 405.326 0 0 0 5.901-5.873l1.536-1.536.054-.054c.242-.243.485-.485.997-.243.593.324 1.131-.026 1.455-.35.43-.458.889-.889 1.32-1.32.673-.674 1.374-1.374 2.048-2.075.727-.727.727-1.347-.027-2.101L57.362.566c-.782-.781-1.401-.781-2.21.027-.35.35-.727.727-1.05 1.078-.62.62-1.24 1.266-1.886 1.859-.647.593-1.159 1.32-.485 2.37l.027.055-.027.027c-.162.134-.324.296-.458.43-.35.324-.674.62-.97.944-.297.323-.458.673-.458 1.024 0 .296.135.592.404.835.512.485 1.212.43 1.805-.108.35-.323.647-.674.97-.997.135-.135.242-.27.377-.404l.054-.054.054.054L66.28 20.558l-.054.054-7.274 7.301-.054-.054-12.933-12.744.054-.054c.242-.242.485-.458.7-.673.458-.458.916-.89 1.347-1.32.324-.35.512-.728.512-1.105 0-.296-.134-.593-.377-.808-.539-.512-1.212-.458-1.859.161l-.377.377c-.728.728-1.509 1.456-2.182 2.237-.378.404-.647.889-.755 1.347-.108.458-.242.916-.35 1.347-.485 1.886-.97 3.826-1.266 5.766-.485 3.125-1.698 5.308-3.8 6.924-.619.458-.915.862-.97 1.294-.053.35.081.7.378 1.077l.027.054-.054.054c-.296.296-.593.593-.89.862-.619.62-1.212 1.186-1.777 1.805-1.51 1.698-3.368 2.371-5.685 2.048h-.027l-.054-.135c-.404-1.05-.62-1.212-1.725-1.212h-4.31c-1.32 0-1.698.377-1.698 1.67v13.903H18.08v-3.799-7.625c0-.539-.135-.97-.404-1.24-.216-.215-.485-.323-.835-.323-.782 0-1.213.566-1.213 1.563v2.344H11.963c-1.078 0-1.509.431-1.509 1.509v4.553c0 1.186.404 1.59 1.59 1.59h3.61v2.263c0 1.24.404 1.644 1.644 1.644H20.88v.808c0 1.455.35 1.778 1.832 1.778h1.267c.916 0 1.886-.027 2.828.027 1.105.027 1.671-.35 1.833-1.266v-.054h4.418c1.752 0 2.021-.27 2.021-1.994v-1.994-5.011c0-.431.162-.781.431-1.05.243-.243.593-.378.97-.378.754.027 1.293.566 1.347 1.374V61.323c.027 3.314.027 3.314-1.59 6.52-.242.458-.484.997-.808 1.59l-.404.835c-.62 1.266-1.266 2.56-1.913 3.826-.35.7-.943.97-1.616.754-.7-.189-1.051-.727-.997-1.401.027-.323.188-.647.323-.943.512-.997.997-2.02 1.509-3.018.781-1.59 1.616-3.206 2.398-4.823.161-.323.35-.78.35-1.266.027-1.4.027-2.829.027-4.23v-.485c0-.485-.135-.889-.404-1.132a1.097 1.097 0 0 0-.809-.323h-.026c-.755 0-1.213.566-1.213 1.482v1.455c0 .835 0 1.67-.027 2.533 0 .43-.108.889-.296 1.266-.7 1.455-1.428 2.91-2.156 4.31-.538 1.052-1.05 2.13-1.59 3.18-.188.404-.43.862-.511 1.347-.35 1.913.673 3.772 2.479 4.392 1.832.647 3.772-.135 4.688-1.86A117.08 117.08 0 0 0 37.1 71.67c.296-.62.62-1.24.916-1.86.134-.242.242-.484.377-.727 1.05-2.047 2.129-4.176 1.86-6.655v-.08h2.774V64.77c.027.916.485 1.374 1.401 1.401 1.213.027 2.317.027 3.422 0h.08c.513 0 .755.189.917.7a275.57 275.57 0 0 0 1.859 5.632c.215.646.431 1.293.647 1.913l.242.727c.189.566.377 1.159.593 1.725.27.781.916 1.185 1.59.943.7-.243.97-.89.754-1.698a6.505 6.505 0 0 0-.216-.673l-.916-2.775h3.718c.863 0 1.401-.485 1.428-1.213 0-.323-.107-.62-.323-.835-.27-.27-.647-.404-1.132-.404h-1.508c-.782 0-1.59 0-2.398-.027-.27 0-.647-.189-.728-.404a13.75 13.75 0 0 1-.539-1.59c-.08-.215-.134-.431-.215-.674l-.027-.08h4.068c.54 0 .97-.162 1.213-.431.215-.216.323-.485.296-.836-.027-.754-.566-1.212-1.509-1.212H54.13c-.89 0-1.805 0-2.695-.027-.215 0-.592-.135-.7-.35-.297-.7-.782-.997-1.698-.97-.78.027-1.59.027-2.37 0h-1.078v-4.23l.08.027c.19.054.378.107.566.134.378.081.755.162.97.405 1.401 1.454 3.126 2.236 4.877 2.236h.054c1.751 0 3.422-.782 4.796-2.236.323-.35.835-.512 1.347-.405.512.108.89.431 1.05.863l1.698 4.768c1.374 3.853 2.748 7.68 4.122 11.532.324.89.916 1.266 1.617 1.024a1.19 1.19 0 0 0 .7-.593c.162-.35.162-.781 0-1.266-.377-1.051-.754-2.102-1.104-3.126-.162-.458-.324-.943-.512-1.4l-1.159-3.26c-1.158-3.234-2.37-6.602-3.53-9.889-.295-.808-.78-1.158-1.562-1.105-.242.028-.485 0-.754 0h-.458v-.08c.27-1.644 0-3.126-.809-4.635-.188-.35-.269-.78-.35-1.212a4.7 4.7 0 0 0-.135-.593l-.026-.08h2.882v.889c0 1.266.405 1.67 1.617 1.67h4.472c1.132 0 1.563-.431 1.59-1.536v-2.101l.081.027c.08.027.162.054.216.08.134.054.215.081.323.135 1.428.809 2.128 2.075 2.101 3.826V76.276c0 .539.135.943.431 1.212.216.216.512.324.836.297.754-.027 1.212-.593 1.212-1.51v-4.552-18.645c0-2.829-1.778-5.227-4.526-6.116l-.647-.216v-2.72l.08.026c.109.027.19.027.297.054.189.027.377.054.54.108 4.175 1.05 6.977 4.66 6.977 8.999v23.036c0 .539.135.97.405 1.24.215.215.484.296.835.323.781 0 1.212-.566 1.24-1.563v-5.981C78 64.798 78 58.978 78 53.24zM54.48 4.85l1.67-1.697 14.711 14.71-1.724 1.644L54.479 4.85zM15.573 46.854h-2.64v-2.64h2.64v2.64zM26 53.321h-2.64V37.666H26V53.32zm17.028-27.132c.54-2.371 1.105-4.796 1.644-7.14l.27-1.159c0-.053.053-.107.107-.107h.054l.027.054 11.316 11.316-1.778.404c-2.21.512-4.527 1.05-6.79 1.536h-.108c-.215 0-.512-.135-.647-.27a259.628 259.628 0 0 1-3.852-3.853c-.189-.188-.297-.566-.243-.781zm-1.536 2.775l3.584 3.61-1.697 1.67-3.61-3.636 1.723-1.644zm4.123 28.156h-.054c-.216.053-.458.08-.7.107-.54.054-1.078.135-1.402.431-.323.297-.43.809-.539 1.374-.053.27-.107.512-.188.782l-.027.054H40.28v-5.254h5.335v2.506zm1.428-5.254a.856.856 0 0 1-.54.215H40.28v-.054c0-.108 0-.188-.027-.27 0-.188-.027-.376-.027-.538v-1.967-3.718c-.027-2.155-1.724-3.826-3.826-3.826h-.054c-2.101.027-3.772 1.724-3.799 3.853-.027 1.4-.027 2.856-.027 4.23v2.102c0 .026-.027.053-.053.107-.027.027-.027.054-.054.081l-.027.027H28.56V39.041h.054c.27-.027.538-.027.808-.054.593-.027 1.212-.054 1.805-.135 1.563-.215 2.964-.916 4.176-2.101l2.264-2.264c.377-.377.754-.754 1.158-1.185l.054-.054.054.054c.161.188.323.35.458.539.431.485.835.97 1.24 1.455.107.161.134.43.107.62-.135.862.08 1.616.566 2.182.458.539 1.185.862 2.02.862h11.317v2.694h-.054c-.054 0-.135 0-.189.027-.162.027-.323.027-.485.027h-5.2c-1.482 0-1.832.323-1.832 1.778v1.267c0 .916.027 1.886-.027 2.829-.054 1.023.323 1.616 1.186 1.966.242.081.485.216.7.35.108.055.189.108.296.162l.081.054-.08.054a9.735 9.735 0 0 0-.54.485c-.484.377-.97.782-1.454 1.213zm7.598-7.68v5.794l-.108-.054-1.132-.566c-1.266-.647-2.479-1.24-3.664-1.86-.189-.107-.35-.376-.377-.619-.027-.62-.027-1.266-.027-1.913v-.781h5.308zm-2.614 15.709a3.975 3.975 0 0 1-2.829-1.186 3.933 3.933 0 0 1-1.158-2.802c0-2.155 1.778-3.934 3.96-3.934h.027c1.05 0 2.048.404 2.802 1.159a3.975 3.975 0 0 1 1.186 2.829c-.027 2.128-1.832 3.934-3.988 3.934zm7.84-11.775h-2.64v-5.253h2.64v5.254zm5.174 2.64H62.4V40.308h2.64v10.454zM6.305 44.267a151.71 151.71 0 0 0-4.958 0c-.43 0-.781.135-1.05.404a1.392 1.392 0 0 0-.297.863c.027.7.539 1.185 1.347 1.185.566.027 1.132 0 1.698 0h3.26c.43 0 .808-.162 1.05-.404.216-.216.324-.512.324-.862-.027-.7-.566-1.159-1.374-1.186zM2.02 40.118c.755.404 1.536.781 2.29 1.158l.243.108c.135.054.27.108.404.135.054 0 .108.027.135.027.674-.081 1.078-.404 1.213-.97.134-.593-.081-1.078-.62-1.347a33.21 33.21 0 0 0-2.614-1.294 1.291 1.291 0 0 0-.62-.134c-.457 0-.861.242-1.077.727-.243.593 0 1.24.647 1.59zM5.119 49.333c-.054 0-.08.027-.135.027-.134.027-.27.08-.404.135l-.242.107c-.755.378-1.536.755-2.29 1.159-.674.35-.89.997-.62 1.617.215.458.62.727 1.078.727.188 0 .404-.054.62-.135.807-.377 1.67-.808 2.613-1.293.539-.296.754-.781.62-1.347-.162-.593-.566-.916-1.24-.997z"></path><path d="M51.973 54.694a1.23 1.23 0 0 0-1.185 1.267c0 .323.161.62.377.862.242.215.566.35.862.323a1.23 1.23 0 0 0 1.185-1.266c0-.647-.565-1.213-1.239-1.186z"></path></g><defs><clipPath id="a"><path d="M0 0h78v78H0z"></path></clipPath></defs>
		</symbol>
	
</svg>
