<svg xmlns="http://www.w3.org/2000/svg" xmlns:xlink="http://www.w3.org/1999/xlink" width="0" height="0" style="position:absolute">
	
		<symbol id="arr" viewBox="0 0 9 5">
			<path d="M8.877.136a.418.418 0 0 0-.596 0L4.505 3.968.73.136A.422.422 0 0 0 .264.031.421.421 0 0 0 .03.268.433.433 0 0 0 .134.74l4.074 4.134a.418.418 0 0 0 .595 0L8.877.74a.431.431 0 0 0 0-.605z"></path>
		</symbol>
	
		<symbol id="cart" viewBox="0 0 22 22">
			<path d="M2 3.686A.686.686 0 0 1 2.686 3h.51c.869 0 1.39.584 1.687 1.127.198.362.342.782.454 1.162.03-.002.061-.003.092-.003h11.427c.76 0 1.308.726 1.1 1.456l-1.672 5.86a2.514 2.514 0 0 1-2.418 1.825H8.428a2.514 2.514 0 0 1-2.425-1.849l-.695-2.534L4.156 6.16v-.008c-.144-.518-.277-1.003-.476-1.365-.191-.352-.345-.416-.483-.416h-.511A.686.686 0 0 1 2 3.686zM6.638 9.71l.687 2.504c.137.496.588.84 1.103.84h5.438a1.142 1.142 0 0 0 1.1-.829l1.588-5.569H5.735l.89 3.005.013.049zm3.134 7.46a1.828 1.828 0 1 1-3.657 0 1.828 1.828 0 0 1 3.657 0zm-1.372 0a.457.457 0 1 0-.914 0 .457.457 0 0 0 .914 0zm7.772 0a1.828 1.828 0 1 1-3.656 0 1.828 1.828 0 0 1 3.656 0zm-1.371 0a.457.457 0 1 0-.914 0 .457.457 0 0 0 .914 0z"></path>
		</symbol>
	
		<symbol id="close" viewBox="0 0 17 17">
			<path fill-rule="evenodd" clip-rule="evenodd" d="M.646.646a.5.5 0 0 1 .708 0L8.5 7.793 15.646.646a.5.5 0 0 1 .708.708L9.207 8.5l7.146 7.146a.5.5 0 1 1-.707.707L8.5 9.207l-7.146 7.147a.5.5 0 0 1-.708-.708L7.793 8.5.646 1.354a.5.5 0 0 1 0-.708z"></path>
		</symbol>
	
		<symbol id="file" viewBox="0 0 32 42">
			<path fill-rule="evenodd" clip-rule="evenodd" d="M5.161 2.049c-1.71 0-3.096 1.376-3.096 3.073v31.756c0 1.697 1.386 3.073 3.096 3.073H26.84c1.711 0 3.097-1.373 3.097-3.069V12.805h-5.678c-2.85 0-5.161-2.293-5.161-5.122V2.049H5.16zM0 5.122C0 2.293 2.31 0 5.161 0h15.396L32 11.356v25.526C32 39.712 29.688 42 26.839 42H5.16C2.311 42 0 39.707 0 36.878V5.122zm17.032 5.122H6.71V8.195h10.322v2.049zm8.258 9.732H6.71v-2.05h18.58v2.05zm0 6.146H6.71v-2.049h18.58v2.049zm0 6.146H6.71V30.22h18.58v2.05z"></path>
		</symbol>
	
		<symbol id="line" viewBox="0 0 163 2">
			<path d="M.507 1h162"></path>
		</symbol>
	
		<symbol id="long-arrow" viewBox="0 0 49 6">
			<path fill-rule="evenodd" clip-rule="evenodd" d="M43.5.113L48.5 3l-5 2.887V3.5H0v-1h43.5V.113z"></path>
		</symbol>
	
		<symbol id="long-arrow2" viewBox="0 0 156 6">
			<path fill-rule="evenodd" clip-rule="evenodd" d="M151 .114L156 3l-5 2.886V3.501H.5v-1H151V.114z"></path>
		</symbol>
	
		<symbol id="long-line" viewBox="0 0 554 2">
			<path d="M0 1.054h553.992"></path>
		</symbol>
	
		<symbol id="ok" viewBox="0 0 34 24">
			<path fill-rule="evenodd" clip-rule="evenodd" d="M33.403 3.425L12.714 23.808.596 11.869l2.807-2.85 9.311 9.173L30.596.575l2.807 2.85z"></path>
		</symbol>
	
		<symbol id="ps-logo" viewBox="0 0 83 17">
			<path fill-rule="evenodd" clip-rule="evenodd" d="M19.49 7.823h-1.606V5.22l1.58.006c.804 0 1.225.648 1.225 1.287 0 .55-.417 1.31-1.2 1.31zm-2.14-3.787c-.391 0-.625.234-.625.626v6.76c0 .374.219.597.585.597.36 0 .575-.223.575-.596V9.01l1.61-.002c1.55-.007 2.386-1.308 2.386-2.528 0-1.37-1.095-2.445-2.494-2.445H17.35zM24.458 10.838V4.622c0-.373-.218-.596-.585-.596-.36 0-.575.223-.575.596v6.598c0 .508.257.799.705.799h3.451c.367 0 .586-.223.586-.596 0-.366-.22-.585-.586-.585h-2.996zM41.484 10.351c-.37.376-1.07.639-1.702.639-1.592 0-2.426-1.499-2.426-2.978 0-1.396.756-2.897 2.416-2.897.564 0 1.336.205 1.723.599a.715.715 0 0 0 .461.185c.328 0 .575-.269.575-.626a.68.68 0 0 0-.258-.527c-.694-.659-1.731-.894-2.47-.894-2.42 0-3.687 2.128-3.687 4.23 0 1.99 1.135 4.13 3.626 4.13.914 0 1.87-.345 2.498-.903a.702.702 0 0 0 .221-.538c0-.356-.231-.595-.575-.595a.544.544 0 0 0-.402.175zM45.1 10.837V8.475h2.665c.367 0 .585-.216.585-.576 0-.38-.218-.605-.585-.605h-2.664V5.227h3.144c.367 0 .586-.22.586-.586 0-.372-.22-.595-.586-.595h-3.68c-.39 0-.624.253-.624.677v6.618c0 .44.1.677.624.677h3.76c.404 0 .645-.219.645-.586 0-.178-.063-.595-.645-.595h-3.224zM53.483 7.506l-.302-.161c-.68-.36-1.323-.7-1.323-1.143 0-.626.557-1.05 1.078-1.054h.015c.684 0 1.195.287 1.52.54l.051.033c.138.09.28.184.45.184.315 0 .571-.276.571-.616 0-.287-.193-.49-.369-.642-.156-.122-.992-.73-2.077-.73-1.474 0-2.504.956-2.504 2.326 0 1.181 1.17 1.79 2.233 2.343.165.086.338.164.51.24.72.32 1.135.549 1.163 1.182.035.808-1.507 1.473-2.922.593a.917.917 0 0 0-.474-.158c-.35 0-.56.212-.56.566 0 .174.064.426.374.632a3.38 3.38 0 0 0 1.865.543c1.916 0 2.97-.791 2.97-2.227 0-1.358-.951-1.812-1.79-2.213-.164-.078-.326-.155-.479-.238zM57.501 4.08c-.391 0-.615.216-.615.596 0 .366.23.585.615.585h1.894v6.155c0 .404.222.646.595.646.36 0 .575-.242.575-.646V5.26h1.904c.373 0 .596-.22.596-.585 0-.374-.223-.596-.596-.596h-4.968zM67.144 8.703H65.22l.974-2.71.949 2.71zm-.175-4.011c-.14-.388-.417-.602-.782-.602-.365 0-.642.214-.783.604l-2.262 6.52a.889.889 0 0 0-.051.274c0 .344.215.575.535.575.173 0 .488-.07.653-.533l.574-1.649h2.67l.723 1.795c.092.25.292.387.562.387.327 0 .555-.233.555-.566a.803.803 0 0 0-.055-.294L66.97 4.692zM73.427 7.856h-1.58V5.261h1.58c.893 0 1.226.79 1.226 1.287 0 .506-.333 1.308-1.226 1.308zm.976.922c.987-.404 1.44-1.424 1.44-2.261 0-1.182-.875-2.438-2.496-2.438h-1.875c-.544 0-.786.281-.786.91v6.393c0 .614.41.68.585.68.36 0 .575-.253.575-.677V9.036h1.336l1.543 2.712a.558.558 0 0 0 .532.324c.32 0 .535-.223.535-.555 0-.147-.038-.303-.118-.464l-1.271-2.275zM77.436 4.08c-.39 0-.615.216-.615.596 0 .366.23.585.615.585h1.894v6.155c0 .404.223.646.596.646.36 0 .575-.242.575-.646V5.26h1.904c.373 0 .595-.22.595-.585 0-.374-.222-.596-.595-.596h-4.969zM33.112 8.675H31.19l.974-2.71.948 2.71zm-.173-4.009c-.14-.388-.417-.601-.782-.601-.365 0-.642.213-.783.604l-2.262 6.52a.875.875 0 0 0-.051.272c0 .345.215.575.535.575.174 0 .489-.069.653-.532l.574-1.649h2.67l.724 1.795a.563.563 0 0 0 .561.386c.327 0 .555-.232.555-.564a.806.806 0 0 0-.055-.295l-2.339-6.51zM6.682 12.642c-.434-.005-1.334-.175-2.03-.333a.683.683 0 0 0-.632.184L1.032 15.48c-.001-3.543-.002-8.55-.001-8.68.035-3.17 2.59-5.75 5.696-5.75h.038c1.507.01 2.93.63 4.01 1.745a5.776 5.776 0 0 1 1.646 4.088c-.027 3.121-2.632 5.759-5.688 5.759h-.051zM6.772 0h-.044C3.059 0 .042 3.046 0 6.788c-.002.155 0 6.034 0 8.546v.956a.702.702 0 0 0 .7.71.687.687 0 0 0 .487-.204l3.423-3.42c.554.12 1.515.31 2.063.316h.06c3.61 0 6.687-3.114 6.719-6.8a6.832 6.832 0 0 0-1.943-4.834C10.238.743 8.555.012 6.772 0z"></path><path fill-rule="evenodd" clip-rule="evenodd" d="M7.765 4.137a.533.533 0 0 0-.101.973 2.002 2.002 0 0 1 1.025 1.755c0 1.101-.88 1.996-1.962 1.996-1.081 0-1.961-.895-1.961-1.996 0-.688.341-1.319.913-1.687a.537.537 0 0 0 .16-.731.517.517 0 0 0-.717-.164 3.055 3.055 0 0 0-1.397 2.582c0 1.685 1.347 3.055 3.002 3.055 1.655 0 3.002-1.37 3.002-3.055 0-1.12-.6-2.15-1.569-2.685a.506.506 0 0 0-.395-.043z"></path><path fill-rule="evenodd" clip-rule="evenodd" d="M6.144 3.973V6.22c0 .292.234.53.52.53.287 0 .52-.238.52-.53V3.973a.525.525 0 0 0-.52-.53.525.525 0 0 0-.52.53z"></path>
		</symbol>
	
		<symbol id="search" viewBox="0 0 22 22">
			<path d="M15.89 9.445a6.445 6.445 0 1 0-2.383 5.005l4.356 4.356.076.065a.667.667 0 0 0 .868-1.007l-4.357-4.357a6.418 6.418 0 0 0 1.44-4.062zm-11.556 0a5.112 5.112 0 1 1 10.223 0 5.112 5.112 0 0 1-10.223 0z"></path>
		</symbol>
	
		<symbol id="sort" viewBox="0 0 12 7">
			<path fill-rule="evenodd" clip-rule="evenodd" d="M5.536.502C5.536.225 5.744 0 6 0h5.536c.256 0 .464.225.464.502s-.208.502-.464.502H6c-.256 0-.464-.225-.464-.502zM2.768 3.5c0-.277.208-.502.464-.502h8.304c.256 0 .464.225.464.502s-.208.502-.464.502H3.232c-.256 0-.464-.225-.464-.502zM0 6.498c0-.277.208-.502.464-.502h11.072c.256 0 .464.225.464.502S11.792 7 11.536 7H.464C.208 7 0 6.775 0 6.498z"></path>
		</symbol>
	
		<symbol id="stain" viewBox="0 0 866 885">
			<path fill-rule="evenodd" clip-rule="evenodd" d="M401.657 37.419c62.634 21.025 92.576 95.634 155.315 116.346 97.384 32.15 251.115-56.33 299.595 33.834 46.863 87.156-93.406 167.751-146.189 251.473-30.665 48.638-76.694 84.084-98.813 137.135-37.759 90.563 3.18 218.395-74.498 278.542-71.743 55.55-184.749 24.879-266.564-14.459-77.139-37.09-113.598-121.611-162.4-191.794C64.647 586.003 8.029 527.997.709 452.297c-7.2-74.45 42.214-138.893 68.208-209.052 28.447-76.78 21.947-179.388 91.692-222.531 69.862-43.215 163.134-9.45 241.048 16.705z"></path>
		</symbol>
	
		<symbol id="vk-icon" viewBox="0 0 24 24">
			<path d="M9.489.004l.729-.003h3.564l.73.003.914.01.433.007.418.011.403.014.388.016.374.021.36.025.345.03.333.033c1.74.196 2.933.616 3.833 1.516.9.9 1.32 2.092 1.516 3.833l.034.333.029.346.025.36.02.373.025.588.012.41.013.644.009.915.004.98-.001 3.313-.003.73-.01.914-.007.433-.011.418-.014.403-.016.388-.021.374-.025.36-.03.345-.033.333c-.196 1.74-.616 2.933-1.516 3.833-.9.9-2.092 1.32-3.833 1.516l-.333.034-.346.029-.36.025-.373.02-.588.025-.41.012-.644.013-.915.009-.98.004-3.313-.001-.73-.003-.914-.01-.433-.007-.418-.011-.403-.014-.388-.016-.374-.021-.36-.025-.345-.03-.333-.033c-1.74-.196-2.933-.616-3.833-1.516-.9-.9-1.32-2.092-1.516-3.833l-.034-.333-.029-.346-.025-.36-.02-.373-.025-.588-.012-.41-.013-.644-.009-.915-.004-.98.001-3.313.003-.73.01-.914.007-.433.011-.418.014-.403.016-.388.021-.374.025-.36.03-.345.033-.333c.196-1.74.616-2.933 1.516-3.833.9-.9 2.092-1.32 3.833-1.516l.333-.034.346-.029.36-.025.373-.02.588-.025.41-.012.644-.013.915-.009zM6.79 7.3H4.05c.13 6.24 3.25 9.99 8.72 9.99h.31v-3.57c2.01.2 3.53 1.67 4.14 3.57h2.84c-.78-2.84-2.83-4.41-4.11-5.01 1.28-.74 3.08-2.54 3.51-4.98h-2.58c-.56 1.98-2.22 3.78-3.8 3.95V7.3H10.5v6.92c-1.6-.4-3.62-2.34-3.71-6.92z"></path>
		</symbol>
	
		<symbol id="zoom" viewBox="0 0 38 38">
			<path fill-rule="evenodd" clip-rule="evenodd" d="M29.425 6.457C23.083.114 12.8.114 6.457 6.457c-6.343 6.342-6.343 16.626 0 22.968 6.342 6.343 16.626 6.343 22.968 0 6.343-6.342 6.343-16.626 0-22.968zm-23.958-.99c6.89-6.89 18.059-6.89 24.948 0 6.724 6.723 6.886 17.524.486 24.444l6.594 6.594-.99.99L29.91 30.9c-6.92 6.4-17.72 6.238-24.444-.486-6.89-6.89-6.89-18.059 0-24.948zM17.24 17.24V8.109h1.4v9.132h9.132v1.4H18.64v9.132h-1.4V18.64H8.11v-1.4h9.131z"></path>
		</symbol>
	
</svg>
