<svg width="9" height="5" viewBox="0 0 9 5" fill="none" xmlns="http://www.w3.org/2000/svg">
<path d="M8.87676 0.136124C8.79775 0.0560317 8.69064 0.0110445 8.57897 0.0110445C8.4673 0.0110445 8.36019 0.0560317 8.28118 0.136124L4.50544 3.96822L0.7297 0.136124C0.691121 0.0941038 0.644599 0.0604005 0.592908 0.0370245C0.541216 0.013649 0.485415 0.00107956 0.428833 6.62804e-05C0.372252 -0.000946999 0.31605 0.00961685 0.263577 0.0311275C0.211106 0.0526376 0.163441 0.0846548 0.123425 0.125268C0.0834093 0.16588 0.0518637 0.214256 0.0306692 0.267511C0.00947571 0.320766 -0.000932693 0.377808 6.58035e-05 0.435234C0.0010643 0.49266 0.0134478 0.549294 0.0364799 0.601757C0.0595121 0.654219 0.0927191 0.701437 0.134121 0.740591L4.20765 4.87492C4.28666 4.95501 4.39377 5 4.50544 5C4.61711 5 4.72422 4.95501 4.80323 4.87492L8.87676 0.740591C8.95567 0.660399 9 0.551695 9 0.438357C9 0.325019 8.95567 0.216316 8.87676 0.136124Z" fill="#E4E8E9"/>
</svg>
