<svg width="22" height="22" viewBox="0 0 22 22" fill="none" xmlns="http://www.w3.org/2000/svg">
<path d="M2 3.68571C2 3.50385 2.07225 3.32944 2.20086 3.20084C2.32946 3.07224 2.50389 3 2.68576 3H3.19597C4.0646 3 4.58578 3.58423 4.88294 4.12731C5.08136 4.48937 5.22491 4.90903 5.33738 5.28937C5.3678 5.28697 5.3983 5.28575 5.42881 5.28571H16.8564C17.6153 5.28571 18.1639 6.01166 17.9554 6.74217L16.284 12.6018C16.1341 13.1274 15.8171 13.5899 15.3809 13.9191C14.9446 14.2484 14.413 14.4266 13.8664 14.4267H8.42788C7.87698 14.4268 7.34131 14.2459 6.90322 13.9119C6.46513 13.5779 6.14886 13.1093 6.00302 12.5781L5.30812 10.0437L4.15604 6.15977L4.15512 6.15246C4.01248 5.63406 3.87899 5.14857 3.67966 4.78651C3.48856 4.43451 3.33495 4.37143 3.19688 4.37143H2.68576C2.50389 4.37143 2.32946 4.29918 2.20086 4.17059C2.07225 4.04199 2 3.86758 2 3.68571ZM6.6385 9.71086L7.32517 12.2151C7.46233 12.7106 7.9131 13.0553 8.42788 13.0553H13.8664C14.1149 13.0553 14.3565 12.9744 14.5548 12.8247C14.7532 12.6751 14.8973 12.4649 14.9655 12.2261L16.5537 6.65714H5.73512L6.62569 9.6624L6.6385 9.71086ZM9.77197 17.1714C9.77197 17.6564 9.57931 18.1215 9.23636 18.4644C8.89341 18.8073 8.42827 19 7.94327 19C7.45827 19 6.99313 18.8073 6.65019 18.4644C6.30724 18.1215 6.11457 17.6564 6.11457 17.1714C6.11457 16.6865 6.30724 16.2214 6.65019 15.8784C6.99313 15.5355 7.45827 15.3429 7.94327 15.3429C8.42827 15.3429 8.89341 15.5355 9.23636 15.8784C9.57931 16.2214 9.77197 16.6865 9.77197 17.1714ZM8.40045 17.1714C8.40045 17.0502 8.35228 16.9339 8.26654 16.8482C8.18081 16.7624 8.06452 16.7143 7.94327 16.7143C7.82202 16.7143 7.70574 16.7624 7.62 16.8482C7.53426 16.9339 7.4861 17.0502 7.4861 17.1714C7.4861 17.2927 7.53426 17.4089 7.62 17.4947C7.70574 17.5804 7.82202 17.6286 7.94327 17.6286C8.06452 17.6286 8.18081 17.5804 8.26654 17.4947C8.35228 17.4089 8.40045 17.2927 8.40045 17.1714ZM16.1724 17.1714C16.1724 17.6564 15.9798 18.1215 15.6368 18.4644C15.2939 18.8073 14.8287 19 14.3437 19C13.8587 19 13.3936 18.8073 13.0506 18.4644C12.7077 18.1215 12.515 17.6564 12.515 17.1714C12.515 16.6865 12.7077 16.2214 13.0506 15.8784C13.3936 15.5355 13.8587 15.3429 14.3437 15.3429C14.8287 15.3429 15.2939 15.5355 15.6368 15.8784C15.9798 16.2214 16.1724 16.6865 16.1724 17.1714ZM14.8009 17.1714C14.8009 17.0502 14.7527 16.9339 14.667 16.8482C14.5813 16.7624 14.465 16.7143 14.3437 16.7143C14.2225 16.7143 14.1062 16.7624 14.0204 16.8482C13.9347 16.9339 13.8865 17.0502 13.8865 17.1714C13.8865 17.2927 13.9347 17.4089 14.0204 17.4947C14.1062 17.5804 14.2225 17.6286 14.3437 17.6286C14.465 17.6286 14.5813 17.5804 14.667 17.4947C14.7527 17.4089 14.8009 17.2927 14.8009 17.1714Z" fill="#E4E8E9"/>
</svg>
