<svg width="17" height="17" viewBox="0 0 17 17" fill="none" xmlns="http://www.w3.org/2000/svg">
<path fill-rule="evenodd" clip-rule="evenodd" d="M0.646447 0.646447C0.841709 0.451184 1.15829 0.451184 1.35355 0.646447L8.5 7.7929L15.6464 0.646455C15.8417 0.451192 16.1583 0.451193 16.3536 0.646455C16.5488 0.841717 16.5488 1.1583 16.3536 1.35356L9.20711 8.5L16.3535 15.6464C16.5488 15.8417 16.5488 16.1583 16.3535 16.3535C16.1583 16.5488 15.8417 16.5488 15.6464 16.3535L8.5 9.20711L1.35356 16.3536C1.1583 16.5488 0.841717 16.5488 0.646455 16.3536C0.451193 16.1583 0.451192 15.8417 0.646455 15.6464L7.7929 8.5L0.646447 1.35355C0.451184 1.15829 0.451184 0.841709 0.646447 0.646447Z" fill="white"/>
</svg>
