<svg width="32" height="42" viewBox="0 0 32 42" fill="none" xmlns="http://www.w3.org/2000/svg">
<path fill-rule="evenodd" clip-rule="evenodd" d="M5.16129 2.04878C3.45099 2.04878 2.06452 3.42469 2.06452 5.12195V36.878C2.06452 38.5753 3.45099 39.9512 5.16129 39.9512H26.8387C28.5504 39.9512 29.9355 38.5781 29.9355 36.8822V12.8049H24.2581C21.4076 12.8049 19.0968 10.5117 19.0968 7.68293V2.04878H5.16129ZM0 5.12195C0 2.29318 2.31079 0 5.16129 0H20.5566L32 11.3562V36.8822C32 39.7123 29.6879 42 26.8387 42H5.16129C2.31079 42 0 39.7068 0 36.878V5.12195ZM17.0323 10.2439H6.70968V8.19512H17.0323V10.2439ZM25.2903 19.9756H6.70968V17.9268H25.2903V19.9756ZM25.2903 26.122H6.70968V24.0732H25.2903V26.122ZM25.2903 32.2683H6.70968V30.2195H25.2903V32.2683Z" fill="#F8CC15"/>
</svg>
