<svg width="83" height="17" viewBox="0 0 83 17" fill="none" xmlns="http://www.w3.org/2000/svg">
<path fill-rule="evenodd" clip-rule="evenodd" d="M19.4893 7.82338H17.8835V5.2201L19.4639 5.22629C20.2682 5.22629 20.6893 5.87352 20.6893 6.51344C20.6893 7.06274 20.2721 7.82338 19.4893 7.82338ZM17.3503 4.03605C16.9588 4.03605 16.7252 4.27046 16.7252 4.66246V11.4227C16.7252 11.7958 16.9439 12.0187 17.3102 12.0187C17.6702 12.0187 17.8853 11.7958 17.8853 11.4227V9.0113L19.4953 9.00905C21.0448 9.00173 21.8812 7.70108 21.8812 6.48118C21.8812 5.11017 20.786 4.03605 19.3875 4.03605H17.3503Z" fill="#5ABFC6"/>
<path fill-rule="evenodd" clip-rule="evenodd" d="M24.4582 10.8379V4.62163C24.4582 4.24905 24.2395 4.02617 23.8732 4.02617C23.5129 4.02617 23.2981 4.24905 23.2981 4.62163V11.2197C23.2981 11.728 23.5549 12.0189 24.0031 12.0189H27.4543C27.8207 12.0189 28.0397 11.7963 28.0397 11.4229C28.0397 11.0568 27.8207 10.8379 27.4543 10.8379H24.4582Z" fill="#5ABFC6"/>
<path fill-rule="evenodd" clip-rule="evenodd" d="M41.4837 10.3512C41.1143 10.7271 40.4148 10.9897 39.7825 10.9897C38.1896 10.9897 37.3562 9.49117 37.3562 8.01154C37.3562 6.61605 38.1122 5.11475 39.7722 5.11475C40.3363 5.11475 41.1082 5.3199 41.4945 5.71358C41.6156 5.83487 41.8183 5.89875 41.956 5.89875C42.2839 5.89875 42.5311 5.63001 42.5311 5.27262C42.5311 5.07029 42.4415 4.89075 42.2728 4.74611C41.5788 4.08706 40.5417 3.85237 39.8024 3.85237C37.3822 3.85237 36.1162 5.98036 36.1162 8.08274C36.1162 10.0712 37.2509 12.2112 39.7424 12.2112C40.6559 12.2112 41.6117 11.8671 42.2405 11.3093C42.387 11.1737 42.4611 10.9925 42.4611 10.771C42.4611 10.4147 42.23 10.1756 41.886 10.1756C41.732 10.1756 41.6004 10.233 41.4837 10.3512Z" fill="#5ABFC6"/>
<path fill-rule="evenodd" clip-rule="evenodd" d="M45.1007 10.8371V8.47469H47.7653C48.1316 8.47469 48.3503 8.25941 48.3503 7.89949C48.3503 7.51988 48.1316 7.29363 47.7653 7.29363H45.1007V5.2267H48.245C48.6116 5.2267 48.8306 5.00777 48.8306 4.64138C48.8306 4.2688 48.6116 4.04592 48.245 4.04592H44.5654C44.1742 4.04592 43.9405 4.29891 43.9405 4.72298V11.3408C43.9405 11.7801 44.0401 12.0181 44.5654 12.0181H48.3252C48.7291 12.0181 48.9702 11.7995 48.9702 11.4325C48.9702 11.2536 48.9075 10.8371 48.3252 10.8371H45.1007Z" fill="#5ABFC6"/>
<path fill-rule="evenodd" clip-rule="evenodd" d="M53.4833 7.50617L53.1805 7.34492C52.5001 6.98529 51.8575 6.64563 51.8575 6.20241C51.8575 5.57629 52.4152 5.15165 52.9361 5.14827H52.9508C53.6351 5.14827 54.146 5.43502 54.4706 5.688L54.5224 5.72149C54.66 5.81154 54.8024 5.90497 54.9722 5.90497C55.2871 5.90497 55.5434 5.62863 55.5434 5.28897C55.5434 5.00194 55.3504 4.79904 55.1743 4.64708C55.0178 4.52495 54.182 3.91656 53.0973 3.91656C51.623 3.91656 50.5931 4.87305 50.5931 6.24294C50.5931 7.424 51.7621 8.0324 52.8258 8.58564C52.9906 8.67231 53.1639 8.74998 53.3354 8.82568C54.0565 9.14592 54.4706 9.37498 54.4986 10.0079C54.5342 10.8161 52.9922 11.4807 51.5766 10.6005C51.4184 10.5023 51.2575 10.4432 51.1032 10.4432C50.7521 10.4432 50.5422 10.6545 50.5422 11.0085C50.5422 11.1833 50.6067 11.4346 50.9166 11.6409C51.4746 12.0016 52.1022 12.1845 52.7821 12.1845C54.6979 12.1845 55.7527 11.3929 55.7527 9.95665C55.7527 8.59887 54.8008 8.14468 53.9611 7.74424C53.7979 7.66629 53.6362 7.58918 53.4833 7.50617Z" fill="#5ABFC6"/>
<path fill-rule="evenodd" clip-rule="evenodd" d="M57.5011 4.0795C57.1099 4.0795 56.8859 4.29646 56.8859 4.67552C56.8859 5.04191 57.116 5.26056 57.5011 5.26056H59.3948V11.4157C59.3948 11.8204 59.6174 12.0619 59.9904 12.0619C60.3504 12.0619 60.5655 11.8204 60.5655 11.4157V5.26056H62.4694C62.8424 5.26056 63.0647 5.04191 63.0647 4.67552C63.0647 4.30237 62.8424 4.0795 62.4694 4.0795H57.5011Z" fill="#5ABFC6"/>
<path fill-rule="evenodd" clip-rule="evenodd" d="M67.1439 8.70285H65.2214L66.1955 5.99235L67.1439 8.70285ZM66.969 4.69201C66.8291 4.30395 66.5515 4.09036 66.1868 4.09036C65.8224 4.09036 65.5448 4.30395 65.404 4.69426L63.1415 11.2147C63.1177 11.2876 63.0906 11.3844 63.0906 11.4877C63.0906 11.8318 63.3057 12.0626 63.6259 12.0626C63.799 12.0626 64.1142 11.9936 64.279 11.5299L64.853 9.88141H67.5236L68.2464 11.6762C68.3384 11.9253 68.5378 12.0626 68.8077 12.0626C69.1348 12.0626 69.3629 11.8301 69.3629 11.4972C69.3629 11.437 69.3557 11.3197 69.3081 11.2032L66.969 4.69201Z" fill="#5ABFC6"/>
<path fill-rule="evenodd" clip-rule="evenodd" d="M73.4269 7.85599H71.847V5.26059H73.4275C74.32 5.26059 74.6529 6.05021 74.6529 6.54774C74.6529 7.05371 74.32 7.85599 73.4269 7.85599ZM74.4029 8.77785C75.3897 8.37375 75.8423 7.35394 75.8423 6.51704C75.8423 5.33513 74.9678 4.0795 73.3467 4.0795H71.4715C70.9282 4.0795 70.6863 4.36034 70.6863 4.98928V11.3823C70.6863 11.9957 71.0955 12.0619 71.2713 12.0619C71.6313 12.0619 71.8464 11.8089 71.8464 11.3851V9.03646H73.1824L74.725 11.7481C74.7977 11.8955 74.9492 12.0723 75.2572 12.0723C75.5777 12.0723 75.7925 11.8494 75.7925 11.5173C75.7925 11.3702 75.7536 11.2137 75.6745 11.053L74.4029 8.77785Z" fill="#5ABFC6"/>
<path fill-rule="evenodd" clip-rule="evenodd" d="M77.4364 4.0795C77.0452 4.0795 76.8212 4.29646 76.8212 4.67552C76.8212 5.04191 77.0513 5.26056 77.4364 5.26056H79.3304V11.4157C79.3304 11.8204 79.553 12.0619 79.9257 12.0619C80.2857 12.0619 80.5008 11.8204 80.5008 11.4157V5.26056H82.405C82.7777 5.26056 83 5.04191 83 4.67552C83 4.30237 82.7777 4.0795 82.405 4.0795H77.4364Z" fill="#5ABFC6"/>
<path fill-rule="evenodd" clip-rule="evenodd" d="M33.1124 8.6752H31.1903L32.1643 5.9647L33.1124 8.6752ZM32.9393 4.66633C32.7999 4.27827 32.5218 4.06469 32.1571 4.06469C31.7921 4.06469 31.5145 4.27827 31.374 4.66858L29.112 11.1885C29.088 11.2608 29.0609 11.3576 29.0609 11.4614C29.0609 11.8056 29.276 12.0363 29.5962 12.0363C29.7695 12.0363 30.0847 11.9674 30.249 11.5036L30.8233 9.85517H33.4939L34.2167 11.65C34.3087 11.899 34.5081 12.0363 34.7782 12.0363C35.105 12.0363 35.3331 11.8039 35.3331 11.4716C35.3331 11.4113 35.326 11.2934 35.2784 11.1769L32.9393 4.66633Z" fill="#5ABFC6"/>
<path fill-rule="evenodd" clip-rule="evenodd" d="M6.68174 12.6417C6.24848 12.6375 5.34849 12.4675 4.65118 12.3091C4.42694 12.2567 4.18446 12.3285 4.01967 12.4931L1.03216 15.4802C1.03077 11.9371 1.02995 6.92916 1.03105 6.80027C1.06561 3.62911 3.62124 1.04975 6.72709 1.04975H6.76497C8.27185 1.0596 9.69579 1.67982 10.7744 2.79503C11.8497 3.90545 12.4345 5.35722 12.4212 6.88301C12.3938 10.0044 9.78897 12.6417 6.73317 12.6417H6.68174ZM6.77204 0H6.7278C3.05929 0 0.0416393 3.04594 0.00071835 6.78835C-0.000940609 6.94256 0.00071835 12.8223 0.00127134 15.3335L0.00154783 16.2903C0.00154783 16.4898 0.0797954 16.6733 0.222189 16.8075C0.352694 16.9313 0.522461 17 0.700246 17C0.883561 17 1.05665 16.9274 1.18826 16.796L4.61069 13.3755C5.16533 13.4957 6.12559 13.6867 6.67388 13.6921H6.73388C10.344 13.6921 13.4209 10.5778 13.4529 6.89219C13.4687 5.08669 12.7786 3.36955 11.51 2.05848C10.2376 0.743474 8.55514 0.0123819 6.77204 0Z" fill="#5ABFC6"/>
<path fill-rule="evenodd" clip-rule="evenodd" d="M7.76467 4.13715C7.63141 4.17767 7.52136 4.268 7.45501 4.39154C7.38837 4.51592 7.37344 4.65915 7.41298 4.79479C7.45224 4.93015 7.54099 5.04215 7.6632 5.10969C8.29581 5.45975 8.6887 6.1326 8.6887 6.86481C8.6887 7.96596 7.80864 8.86111 6.72701 8.86111C5.64565 8.86111 4.76559 7.96596 4.76559 6.86481C4.76559 6.17734 5.10705 5.54615 5.67883 5.17779C5.92021 5.02104 5.99237 4.6932 5.8392 4.44669C5.76482 4.3271 5.64897 4.24436 5.51322 4.21341C5.37801 4.18414 5.23866 4.20806 5.12171 4.2832C4.24717 4.84742 3.72516 5.81236 3.72516 6.86481C3.72516 8.54959 5.07194 9.92032 6.72701 9.92032C8.38235 9.92032 9.72914 8.54959 9.72914 6.86481C9.72914 5.74454 9.12805 4.71544 8.16033 4.17992C8.03868 4.11238 7.89794 4.09662 7.76467 4.13715Z" fill="#5ABFC6"/>
<path fill-rule="evenodd" clip-rule="evenodd" d="M6.14421 3.97313V6.21875C6.14421 6.51085 6.37757 6.74836 6.6643 6.74836C6.95102 6.74836 7.18438 6.51085 7.18438 6.21875V3.97313C7.18438 3.68103 6.95102 3.44353 6.6643 3.44353C6.37757 3.44353 6.14421 3.68103 6.14421 3.97313Z" fill="#5ABFC6"/>
</svg>
