<svg width="22" height="22" viewBox="0 0 22 22" fill="none" xmlns="http://www.w3.org/2000/svg">
<path d="M15.8906 9.44459C15.8904 7.98209 15.3929 6.56313 14.4797 5.42079C13.5665 4.27844 12.2919 3.48063 10.8654 3.1584C9.43884 2.83617 7.94513 3.00868 6.62958 3.64759C5.31404 4.28651 4.2549 5.35384 3.62612 6.67427C2.99734 7.9947 2.83631 9.48972 3.16949 10.9138C3.50267 12.3378 4.31024 13.6062 5.45955 14.5106C6.60887 15.415 8.03159 15.9017 9.49403 15.8906C10.9565 15.8795 12.3717 15.3715 13.5072 14.4498L17.8633 18.806L17.9389 18.8709C18.0742 18.9701 18.242 19.0147 18.4087 18.9957C18.5754 18.9767 18.7289 18.8956 18.8384 18.7684C18.9479 18.6413 19.0055 18.4775 18.9996 18.3098C18.9937 18.1421 18.9248 17.9827 18.8066 17.8636L14.4504 13.5065C15.3843 12.359 15.893 10.9241 15.8906 9.44459ZM4.33352 9.44459C4.33352 8.77329 4.46574 8.10857 4.72263 7.48837C4.97952 6.86817 5.35605 6.30464 5.83072 5.82996C6.3054 5.35528 6.86892 4.97875 7.48911 4.72185C8.1093 4.46496 8.77402 4.33273 9.44531 4.33273C10.1166 4.33273 10.7813 4.46496 11.4015 4.72185C12.0217 4.97875 12.5852 5.35528 13.0599 5.82996C13.5346 6.30464 13.9111 6.86817 14.168 7.48837C14.4249 8.10857 14.5571 8.77329 14.5571 9.44459C14.5571 10.8003 14.0185 12.1006 13.0599 13.0592C12.1012 14.0179 10.801 14.5565 9.44531 14.5565C8.08958 14.5565 6.78937 14.0179 5.83072 13.0592C4.87208 12.1006 4.33352 10.8003 4.33352 9.44459Z" fill="#E4E8E9"/>
</svg>
