<svg width="94" height="67" viewBox="0 0 94 67" fill="none" xmlns="http://www.w3.org/2000/svg">
<g clip-path="url(#clip0_268_2699)">
<path d="M2.00296 64.3394C1.97514 64.3394 1.97514 64.3394 2.00296 64.3394C1.14057 64.3394 0.472921 64.4794 0 65.1797V66.076C0.333827 66.7202 0.862385 67.0003 1.69695 67.0003C1.72477 67.0003 1.72477 67.0003 1.75259 67.0003C3.67209 66.9723 5.61941 66.9723 7.5111 66.9723C8.26221 66.9723 9.01332 66.9723 9.73661 66.9723H20.586C43.9538 66.9723 68.1284 66.9723 91.8858 66.9723C92.8594 66.9723 93.5827 66.9163 94 66.048V65.1517C93.5271 64.4514 92.8594 64.3114 92.0249 64.3114C76.4463 64.3114 60.5895 64.3114 45.2613 64.3114H35.024V58.8494H45.5117C60.7008 58.8494 76.4185 58.8494 91.8858 58.8494C92.6369 58.8494 93.4436 58.7934 93.9722 58.0371V56.9728C93.5271 56.4126 92.9429 56.1885 92.0527 56.1885C77.5312 56.1885 62.7872 56.1885 48.5161 56.1885C42.09 56.1885 35.636 56.1885 29.2098 56.1885C26.0385 56.1885 24.2859 57.9531 24.2581 61.1463C24.2581 61.8185 24.2581 62.4907 24.2581 63.191V64.2554H18.0545C12.7967 64.3394 7.34419 64.3394 2.00296 64.3394ZM27.0121 60.3059C27.0678 59.8018 27.8189 59.1015 28.3474 59.0175C29.2376 58.9054 30.1557 58.9054 31.1015 58.9335C31.4632 58.9335 31.8526 58.9615 32.2421 58.9615H32.2977V64.3114H26.9287V64.2554C26.9287 63.8912 26.9287 63.4991 26.9009 63.135C26.9009 62.1826 26.873 61.2303 27.0121 60.3059Z" fill="#5ABFC6"/>
<path d="M93.9999 49.0738C93.5547 48.4856 92.9706 48.2615 91.9969 48.2615C89.215 48.2895 86.4053 48.2895 83.679 48.2615H81.4257C79.5897 48.2615 79.0333 47.7293 79.0333 45.9087C79.0333 41.3991 79.0333 36.8334 79.0333 32.3238C79.0333 30.5032 79.5619 29.971 81.4257 29.971H83.7903C86.5444 29.971 89.3819 29.971 92.1916 29.971C93.1375 29.971 93.6938 29.6909 94.0277 29.0186V28.1223C93.6104 27.5341 93.054 27.282 92.1638 27.282H92.136C89.2428 27.31 86.294 27.31 83.4565 27.31H81.1197C79.1724 27.31 77.7536 28.1503 76.8634 29.8589C76.7243 30.139 76.2792 30.3631 75.9732 30.3631C75.1108 30.3911 74.2206 30.3911 73.3582 30.3911C72.8297 30.3911 72.3011 30.3911 71.7447 30.3911C69.714 30.4191 68.3787 31.7636 68.323 33.8083C68.323 34.1165 68.323 34.4246 68.323 34.7327C68.323 34.8727 68.323 35.0408 68.323 35.1808V35.2369H50.8528L51.131 34.7607C51.2701 34.5366 51.3813 34.3405 51.4926 34.1725L53.9128 30.3631C55.1925 28.3744 56.4444 26.3857 57.724 24.369C57.7519 24.3129 57.7797 24.2569 57.8353 24.2009C57.9744 24.0048 58.1135 23.7807 58.197 23.5847C58.4751 22.9124 58.3361 22.3522 57.7519 21.9601C57.5015 21.792 57.2511 21.708 57.0007 21.708C56.6669 21.708 56.3331 21.8761 56.0271 22.2122C55.888 22.3522 55.7767 22.5483 55.6654 22.7164C55.6376 22.7724 55.6098 22.8284 55.5542 22.8844C54.9978 23.7807 54.4136 24.6771 53.8572 25.5454C51.9933 28.4864 50.046 31.5395 48.0987 34.5366C47.8762 34.8727 47.4589 35.2369 47.0972 35.2649C45.1221 35.4329 43.4251 36.2452 41.8951 37.8138C39.92 39.8305 37.8892 41.8472 35.9419 43.8079C34.9682 44.7883 34.0224 45.7406 33.0487 46.721L33.0209 46.749C32.8261 46.945 32.6036 47.1691 32.4367 47.3932C31.2405 48.9058 31.4074 51.0905 32.7983 52.435C34.1893 53.7795 36.387 53.8355 37.8057 52.6031C38.4734 52.0149 38.6125 51.2866 38.1395 50.6704C37.6944 50.0822 36.999 49.9981 36.2757 50.4743C36.22 50.5023 36.1922 50.5303 36.1366 50.5864C36.0253 50.6704 35.8862 50.7824 35.7749 50.7544C35.7193 50.7544 35.6637 50.7544 35.608 50.7544C35.2464 50.7264 34.8013 50.6984 34.6065 50.4743C34.3562 50.2222 34.3562 49.662 34.4118 49.2419C34.4396 49.0178 34.6622 48.8217 34.8569 48.6537C34.9126 48.5976 34.9682 48.5416 35.0238 48.5136C35.9419 47.5893 36.8877 46.665 37.8057 45.7126C39.7252 43.7799 41.7282 41.7912 43.6477 39.8025C44.8995 38.514 46.3183 37.9258 48.1265 37.9258C52.5775 37.9538 57.0842 37.9538 61.4518 37.9538C63.3434 37.9538 65.263 37.9538 67.1546 37.9538C67.3772 37.9538 67.5997 37.9538 67.8223 37.9818C67.9336 37.9818 68.0448 37.9818 68.1283 38.0098H68.1839V40.2226H67.0434C65.4299 40.2226 63.8164 40.2226 62.2029 40.2226C58.2248 40.2226 54.1076 40.2226 50.046 40.2226H50.0182C47.5701 40.2226 45.595 41.0349 43.9815 42.7155C43.5086 43.2197 43.0078 43.6959 42.5349 44.1721C42.0898 44.6202 41.6169 45.0684 41.1996 45.5446C40.532 46.2168 40.4763 47.0011 41.0049 47.5613C41.5891 48.1495 42.3124 48.0935 43.0078 47.4212L43.0913 47.3372C43.9537 46.4969 44.8439 45.6286 45.6506 44.7323C46.819 43.4718 48.2934 42.8556 50.1295 42.8556C54.2189 42.8836 58.3639 42.8836 62.3976 42.8556C63.9833 42.8556 65.5411 42.8556 67.1268 42.8556H68.2396V43.3598C68.2396 43.6119 68.2396 43.8359 68.2396 44.06C68.2674 46.4689 69.6027 47.7854 71.9951 47.8134C73.0244 47.8134 74.0815 47.8134 75.1108 47.8134H76.5574L76.5852 47.8694C77.4754 49.9981 79.0889 50.9505 81.6761 50.8945C84.7918 50.8104 87.9632 50.8384 91.051 50.8665H91.9691C92.6924 50.8665 93.4435 50.7824 93.9999 50.0822V49.0738ZM76.3627 45.2084H76.307C75.9176 45.2084 75.5003 45.2084 75.1108 45.2084C74.7214 45.2084 74.3319 45.2084 73.9424 45.2084C73.1913 45.2084 72.4402 45.2084 71.6891 45.1524C71.3831 45.1244 70.9102 44.5922 70.9102 44.2561C70.8545 40.8109 70.8545 37.3096 70.9102 33.8924C70.9102 33.5843 71.4109 33.0521 71.7169 33.0521C72.8297 32.9961 73.9146 32.9961 75.083 33.0241C75.4725 33.0241 75.8898 33.0241 76.2792 33.0241H76.3349V45.2084H76.3627Z" fill="#5ABFC6"/>
<path d="M34.1895 31.9873C34.1895 32.9397 34.6902 33.5559 35.4969 33.5559C36.2759 33.5559 36.7766 32.9397 36.8044 31.9873C36.8044 31.8753 36.8044 31.7633 36.8044 31.6792V31.5392V27.3377C36.8044 18.9067 36.8044 10.4756 36.8044 2.04461C36.8044 1.98859 36.8044 1.93257 36.8044 1.87655C36.8044 1.59645 36.8044 1.31635 36.7488 1.06426C36.6375 0.560083 36.2481 0.195953 35.7751 0.0559024C35.3578 -0.0561378 34.9406 0.0839124 34.6624 0.392023C34.3564 0.756153 34.2173 1.37237 34.2173 1.76451C34.1895 5.68592 34.1895 9.66334 34.1895 13.5007V16.7499V20.9234C34.1895 24.6207 34.1895 28.29 34.1895 31.9873Z" fill="#5ABFC6"/>
<path d="M16.4131 24.4809C16.2462 24.2008 15.9402 24.0047 15.6898 23.8647C15.6063 23.8086 15.5507 23.7806 15.4951 23.7246C14.8552 23.7526 14.3267 24.0327 14.1041 24.4809C13.8816 24.901 13.9372 25.4052 14.2154 25.8814C17.2477 30.6431 20.4746 35.7409 24.4249 41.9031C24.8978 42.6594 25.649 42.8555 26.2888 42.4353C26.9564 42.0152 27.0677 41.2589 26.5948 40.5026C23.5904 35.7129 20.0017 30.0829 16.4131 24.4809Z" fill="#5ABFC6"/>
<path d="M10.4319 46.665C10.5432 47.0011 10.7658 47.2532 11.0718 47.3933C13.2138 48.3736 15.7453 49.522 18.2769 50.5864C18.6663 50.7545 19.0836 50.6985 19.3896 50.4744C19.7791 50.1943 20.0295 49.6901 20.0295 49.0739C20.0016 49.0179 19.946 48.9618 19.8904 48.8778C19.7513 48.6537 19.5565 48.3456 19.3062 48.2336C17.1919 47.2532 14.9108 46.2169 12.1011 45.0124C11.9063 44.9284 11.7394 44.9004 11.5725 44.9004C11.1274 44.9004 10.7658 45.1525 10.4876 45.6567C10.3485 45.9928 10.3207 46.3569 10.4319 46.665Z" fill="#5ABFC6"/>
<path d="M58.4474 45.8523C58.2527 45.7123 58.0023 45.6562 57.7519 45.6562C57.5572 45.6562 57.3625 45.7123 57.1399 45.7963C55.5264 46.4966 53.8295 47.2528 51.7709 48.1772C51.0198 48.5133 50.7138 49.1855 50.9919 49.8858C51.131 50.2219 51.3536 50.474 51.6596 50.614C51.9934 50.7541 52.4107 50.7541 52.8002 50.586C54.5249 49.8578 56.3888 49.0455 58.1414 48.1772C58.4474 48.0371 58.6699 47.729 58.8369 47.4769C58.8925 47.3929 58.9481 47.3088 59.0038 47.2528C59.0594 46.6366 58.8369 46.1324 58.4474 45.8523Z" fill="#5ABFC6"/>
<path d="M2.16995 43.4157C3.25489 43.9759 4.33983 44.4801 5.42476 44.8722C5.81423 45.0123 6.20369 44.9562 6.5097 44.7602C6.89916 44.4801 7.12172 44.0039 7.12172 43.4157C7.0939 43.3597 7.03826 43.3037 7.01044 43.2196C6.87135 42.9955 6.70443 42.6874 6.45406 42.5474C5.42476 41.9872 4.36765 41.567 3.28271 41.1189C3.1158 41.0629 2.94888 41.0068 2.78197 41.0068C2.33687 41.0068 1.97522 41.2589 1.72485 41.7351C1.36321 42.4353 1.55794 43.0796 2.16995 43.4157Z" fill="#5ABFC6"/>
<path d="M34.5234 39.3261C34.7738 39.5782 35.0798 39.7182 35.4414 39.7462C36.1369 39.7742 36.7211 39.214 36.7767 38.5138C36.8045 38.1777 36.6654 37.8415 36.4151 37.5614C36.1647 37.2813 35.8309 37.1413 35.497 37.1133H35.4692C34.8016 37.1133 34.2174 37.6735 34.1896 38.3457C34.1617 38.7099 34.3008 39.046 34.5234 39.3261Z" fill="#5ABFC6"/>
<path d="M10.9884 20.7278C11.2109 20.9798 11.5448 21.1479 11.8786 21.1479C12.2124 21.1479 12.5462 21.0079 12.8244 20.7558C13.0748 20.5037 13.2417 20.1676 13.2417 19.8314C13.2417 19.1312 12.6853 18.571 11.9621 18.543H11.9342C11.2388 18.543 10.6824 19.0472 10.6546 19.7474C10.6267 20.1395 10.738 20.4757 10.9884 20.7278Z" fill="#5ABFC6"/>
</g>
<defs>
<clipPath id="clip0_268_2699">
<rect width="94" height="67" fill="white"/>
</clipPath>
</defs>
</svg>
