<svg width="78" height="78" viewBox="0 0 78 78" fill="none" xmlns="http://www.w3.org/2000/svg">
<path fill-rule="evenodd" clip-rule="evenodd" d="M35.2229 1.25796C35.2229 0.563209 35.7861 0 36.4809 0H42.5191C43.2139 0 43.7771 0.563209 43.7771 1.25796V3.01911H77.742C78.4368 3.01911 79 3.58232 79 4.27707V9.30892C79 10.0037 78.4368 10.5669 77.742 10.5669H74.9745V14.3408C74.9745 15.0355 74.4113 15.5987 73.7166 15.5987H56.8599V22.3917C56.8599 23.0865 56.2967 23.6497 55.6019 23.6497H48.8089V35.4745C48.8089 36.1693 48.2457 36.7325 47.551 36.7325H45.514L43.7395 43.8306C43.5995 44.3906 43.0963 44.7834 42.5191 44.7834H40.758V68.0124L45.9581 58.9988C46.3053 58.397 47.0746 58.1906 47.6764 58.5378C48.2782 58.8849 48.4846 59.6542 48.1374 60.256L42.1064 70.7097L59.3019 66.1038C59.973 65.924 60.6628 66.3224 60.8425 66.9935C61.0223 67.6646 60.624 68.3543 59.9529 68.5341L49.0583 71.4522H75.2261C77.3104 71.4522 79 73.1419 79 75.2261C79 77.3104 77.3104 79 75.2261 79H62.1433C61.4486 79 60.8854 78.4368 60.8854 77.742C60.8854 77.0473 61.4486 76.4841 62.1433 76.4841H75.2261C75.9209 76.4841 76.4841 75.9209 76.4841 75.2261C76.4841 74.5314 75.9209 73.9682 75.2261 73.9682H39.5022C39.5007 73.9682 39.4993 73.9682 39.4978 73.9682H3.77389C3.07913 73.9682 2.51592 74.5314 2.51592 75.2261C2.51592 75.9209 3.07913 76.4841 3.77389 76.4841H56.1051C56.7999 76.4841 57.3631 77.0473 57.3631 77.742C57.3631 78.4368 56.7999 79 56.1051 79H3.77389C1.68963 79 0 77.3104 0 75.2261C0 73.1419 1.68963 71.4522 3.77389 71.4522H29.9417L19.0471 68.5341C18.376 68.3543 17.9777 67.6646 18.1575 66.9935C18.3372 66.3224 19.027 65.924 19.6981 66.1038L36.8936 70.7097L30.8626 60.256C30.5154 59.6542 30.7218 58.8849 31.3236 58.5378C31.9254 58.1906 32.6947 58.397 33.0419 58.9988L38.242 68.0124V44.7834H36.4809C35.9037 44.7834 35.4005 44.3906 35.2605 43.8306L33.486 36.7325H31.449C30.7543 36.7325 30.1911 36.1693 30.1911 35.4745V23.6497H23.3981C22.7033 23.6497 22.1401 23.0865 22.1401 22.3917V15.5987H5.28344C4.58869 15.5987 4.02548 15.0355 4.02548 14.3408V10.5669H1.25796C0.563209 10.5669 0 10.0037 0 9.30892V4.27707C0 3.58232 0.563209 3.01911 1.25796 3.01911H6.79299C7.48775 3.01911 8.05096 3.58232 8.05096 4.27707C8.05096 4.97182 7.48775 5.53503 6.79299 5.53503H2.51592V8.05096H35.2229V5.53503H12.8312C12.1365 5.53503 11.5732 4.97182 11.5732 4.27707C11.5732 3.58232 12.1365 3.01911 12.8312 3.01911H35.2229V1.25796ZM35.2229 10.5669H6.5414V13.0828H35.2229V10.5669ZM37.7389 13.0828H41.2611V2.51592H37.7389V13.0828ZM43.7771 13.0828H72.4586V10.5669H66.1688C65.474 10.5669 64.9108 10.0037 64.9108 9.30892C64.9108 8.61416 65.474 8.05096 66.1688 8.05096H76.4841V5.53503H43.7771V8.05096H60.1306C60.8253 8.05096 61.3885 8.61416 61.3885 9.30892C61.3885 10.0037 60.8253 10.5669 60.1306 10.5669H43.7771V13.0828ZM24.6561 15.5987V21.1338H54.344V15.5987H24.6561ZM32.707 23.6497V34.2166H46.293V23.6497H32.707ZM36.0793 36.7325L37.4631 42.2675H41.5369L42.9207 36.7325H36.0793ZM34.2166 28.9331C34.2166 28.2384 34.7798 27.6752 35.4745 27.6752H43.5255C44.2202 27.6752 44.7834 28.2384 44.7834 28.9331C44.7834 29.6279 44.2202 30.1911 43.5255 30.1911H35.4745C34.7798 30.1911 34.2166 29.6279 34.2166 28.9331ZM15.8315 55.8793C16.2341 55.3131 17.0195 55.1805 17.5857 55.5831L29.8466 64.302C30.4128 64.7046 30.5454 65.49 30.1428 66.0562C29.7401 66.6223 28.9548 66.7549 28.3886 66.3523L16.1277 57.6335C15.5615 57.2308 15.4289 56.4455 15.8315 55.8793ZM63.1685 55.8793C63.5711 56.4455 63.4385 57.2308 62.8723 57.6335L50.6114 66.3523C50.0452 66.7549 49.2599 66.6223 48.8572 66.0562C48.4546 65.49 48.5872 64.7046 49.1534 64.302L61.4143 55.5831C61.9805 55.1805 62.7659 55.3131 63.1685 55.8793ZM10.1065 64.8369C10.2863 64.1658 10.976 63.7675 11.6471 63.9473L14.6662 64.756C15.3373 64.9357 15.7356 65.6255 15.5559 66.2966C15.3761 66.9677 14.6864 67.366 14.0153 67.1862L10.9962 66.3775C10.3251 66.1978 9.92677 65.508 10.1065 64.8369ZM68.8935 64.8369C69.0732 65.508 68.6749 66.1978 68.0038 66.3775L64.9847 67.1862C64.3136 67.366 63.6239 66.9677 63.4441 66.2966C63.2644 65.6255 63.6627 64.9357 64.3338 64.756L67.3529 63.9473C68.024 63.7675 68.7137 64.1658 68.8935 64.8369Z" fill="#5ABFC6"/>
</svg>
