<svg width="88" height="78" viewBox="0 0 88 78" fill="none" xmlns="http://www.w3.org/2000/svg">
<g clip-path="url(#clip0_268_2728)">
<path d="M87.9999 35.9234C88.027 32.0368 86.8338 29.122 84.0677 26.477C78.6982 21.322 73.3558 15.951 68.1762 10.769C65.5999 8.17802 62.9151 5.50605 60.2575 2.88806C56.4338 -0.890491 50.9829 -0.99845 47.2677 2.67214C41.6813 8.15103 36.0677 13.7919 30.6168 19.2168L27.3897 22.4555C25.8982 23.9669 25.0304 25.8022 24.8135 27.9344C24.5965 30.1476 25.166 32.2528 26.5219 34.196L24.4067 36.3282C22.6982 38.0285 21.0168 39.7289 19.3084 41.4292C19.2813 41.4562 19.227 41.5102 19.1999 41.5372C18.9287 41.7801 18.5762 42.131 18.5762 42.6438C18.5762 42.9676 18.7118 43.2645 19.0101 43.5344C19.6609 44.1552 20.3931 44.0742 21.1796 43.2915C21.8846 42.5898 22.5897 41.8881 23.3219 41.1593C23.8372 40.6465 24.3796 40.1067 24.8948 39.5939C25.8168 38.6763 26.7118 37.7586 27.6338 36.868L28.4202 36.0853C32.8135 38.8652 37.6135 38.2175 41.3016 34.25C43.688 31.713 46.2101 29.2299 48.6507 26.8279C49.7897 25.6943 50.9829 24.5337 52.1491 23.4002C52.583 22.9683 53.0168 22.5095 53.4236 22.0777C53.505 21.9967 53.5863 21.8888 53.6677 21.8078L55.566 23.6971C60.149 28.2583 64.8948 32.9815 69.5321 37.6237C69.6948 37.8126 69.8575 38.2175 69.8575 38.5953C69.8846 39.6209 69.8846 40.6735 69.8846 41.6991C69.8846 42.6977 69.8846 43.7234 69.9118 44.749C69.9118 45.2078 69.8575 45.3697 69.3152 45.6126C56.4067 51.4424 49.3829 61.5095 48.4067 75.5171C48.3524 76.4618 48.3253 77.1095 48.7321 77.5683C49.1389 78.0002 49.7897 78.0272 50.7389 78.0272C56.5423 78.0272 62.3728 78.0272 68.1762 78.0272C73.9796 78.0272 79.8101 78.0272 85.6135 78.0272C87.6745 78.0272 87.9999 77.7033 87.9999 75.6521C87.9999 71.9815 87.9999 68.2839 87.9999 64.6133C87.9457 55.1939 87.9457 45.4777 87.9999 35.9234ZM85.2609 45.6666V75.2742H51.0914C51.1185 67.5552 54.8067 59.5933 60.9897 53.8714C67.4711 47.8798 76.0677 44.9649 85.2609 45.6666ZM78.8609 43.1836C77.2338 43.3185 75.6609 43.6424 74.0067 43.9663C73.4914 44.0742 72.9762 44.1822 72.4609 44.2631C72.4609 43.3185 72.4338 42.3469 72.4338 41.4292C72.4067 38.8382 72.3796 36.1663 72.488 33.5753C72.6507 30.2825 75.4711 27.6915 78.8067 27.6915C78.888 27.6915 78.9694 27.6915 79.0507 27.6915C82.549 27.8265 85.2338 30.5524 85.288 34.0611C85.3151 36.1663 85.3151 38.2715 85.3151 40.5116C85.3151 41.3483 85.3151 42.2119 85.3151 43.1026C84.7728 43.1026 84.2304 43.0756 83.7151 43.0756C82.1152 43.0756 80.4609 43.0486 78.8609 43.1836ZM78.8067 24.9656C76.2575 25.1815 74.1694 26.0991 72.488 27.7455C70.7796 29.4189 69.9389 31.4701 69.8033 34.196C68.0135 32.4147 66.2236 30.6334 64.4338 28.8521C59.4711 23.913 54.3185 18.7849 49.2745 13.7379C47.566 12.0105 46.888 9.66245 47.4575 7.42231C47.9999 5.29013 49.627 3.61678 51.7965 2.96902C52.4745 2.75311 53.1524 2.64515 53.8033 2.64515C55.4846 2.64515 57.0304 3.34688 58.4135 4.69636C60.8541 7.09844 63.2677 9.5275 65.7084 11.9566C67.3084 13.549 68.9355 15.1683 70.5355 16.7607C72.6236 18.8389 74.7389 20.9171 76.827 22.9953L78.8067 24.9656ZM51.9863 20.0535C51.6609 20.2424 51.3626 20.4583 51.1185 20.7012C49.4101 22.3746 47.7016 24.0749 46.0202 25.7753C43.5253 28.2583 40.9491 30.8223 38.3999 33.3323C36.5287 35.1676 34.3321 35.6804 31.8643 34.8708C29.4236 34.0611 27.9592 32.3607 27.5253 29.7697C27.1728 27.7455 27.7423 25.9372 29.0982 24.5607C33.166 20.4583 37.3152 16.3289 41.3287 12.3344C42.4406 11.2278 43.5524 10.1483 44.6372 9.04169C44.6372 11.7407 45.6948 14.0348 47.8643 16.059C48.8677 16.9766 49.844 17.9483 50.8745 18.9739C51.227 19.3247 51.6067 19.6756 51.9863 20.0535Z" fill="#5ABFC6"/>
<path d="M28.5014 42.6435C28.5014 41.9418 29.0709 41.375 29.8031 41.375C40.3522 41.375 50.9285 41.375 61.4777 41.375H67.0641C67.1455 41.375 67.2539 41.375 67.3353 41.375C67.4166 41.375 67.498 41.375 67.5793 41.375C68.0404 41.375 69.1522 41.402 69.1522 42.6705C69.1522 43.0753 69.0166 43.3722 68.7997 43.5881C68.42 43.966 67.9048 43.939 67.4709 43.939C67.4166 43.939 67.3624 43.939 67.3082 43.939C62.1285 43.939 56.9488 43.939 51.7692 43.939H44.1217C39.3488 43.939 34.576 43.939 29.8031 43.939C29.0709 43.939 28.4743 43.3722 28.5014 42.6435Z" fill="#5ABFC6"/>
<path d="M56.678 71.0635C56.678 71.1175 56.7051 71.1714 56.7322 71.1984C56.7594 71.2524 56.7865 71.2794 56.8136 71.3334C56.7594 71.3334 56.7051 71.3334 56.6509 71.3334L56.678 71.0635Z" fill="#5ABFC6"/>
<path d="M54.0474 5.07422H54.0203C51.661 5.10121 49.7084 7.01747 49.6813 9.36557C49.6542 10.5261 50.1152 11.6057 50.9288 12.4424C51.7694 13.2791 52.8542 13.7379 54.0474 13.7379C54.0474 13.7379 54.0474 13.7379 54.0745 13.7379C56.4338 13.7379 58.3864 11.8216 58.4135 9.44654C58.4135 8.28598 57.9796 7.17941 57.1389 6.34273C56.2983 5.53304 55.2135 5.07422 54.0474 5.07422ZM55.7559 9.50052C55.7288 10.4452 54.9966 11.1199 54.0745 11.1199H54.0474C53.5864 11.1199 53.1525 10.931 52.8271 10.6071C52.5016 10.2832 52.3389 9.82439 52.3661 9.36557C52.3932 8.44792 53.1525 7.7192 54.0745 7.7192H54.1016C54.5627 7.7192 54.9966 7.90813 55.2949 8.232C55.5932 8.55588 55.7559 9.0147 55.7559 9.50052Z" fill="#5ABFC6"/>
<path d="M83.3085 34.6282C83.3357 33.4676 82.8746 32.388 82.0611 31.5514C81.2204 30.7147 80.1085 30.2559 78.9424 30.2559C77.7492 30.2559 76.6645 30.7147 75.8509 31.5514C75.0374 32.388 74.6035 33.4676 74.6306 34.6552C74.6577 37.0033 76.6103 38.8925 78.9696 38.8925C78.9696 38.8925 78.9696 38.8925 78.9967 38.8925C81.356 38.8925 83.2814 37.0303 83.3085 34.6282ZM80.678 34.5202C80.7052 34.979 80.5153 35.4379 80.1899 35.7617C79.8645 36.1126 79.4306 36.3015 78.9696 36.3015C78.5357 36.3015 78.1018 36.1396 77.7763 35.8157C77.4509 35.4918 77.2611 35.033 77.2611 34.5472C77.2611 33.6026 78.0204 32.8739 78.9424 32.8469C78.9424 32.8469 78.9425 32.8469 78.9696 32.8469C79.8645 32.8739 80.6509 33.6296 80.678 34.5202Z" fill="#5ABFC6"/>
<path d="M21.4235 33.7636C20.6913 33.7636 20.0947 33.1698 20.0947 32.4411V22.7248C20.0947 21.9961 20.6913 21.4023 21.4235 21.4023C22.1557 21.4023 22.7524 21.9961 22.7524 22.7248V32.4411C22.7524 33.1698 22.1557 33.7636 21.4235 33.7636Z" fill="#5ABFC6"/>
<path d="M21.4235 64.0468C20.6913 64.0468 20.0947 63.453 20.0947 62.7243V53.008C20.0947 52.2793 20.6913 51.6855 21.4235 51.6855C22.1557 51.6855 22.7524 52.2793 22.7524 53.008V62.7243C22.7524 63.453 22.1557 64.0468 21.4235 64.0468Z" fill="#5ABFC6"/>
<path d="M27.7966 49.0672C28.3119 48.5544 29.1525 48.5544 29.6678 49.0672L36.583 55.9496C37.0983 56.4624 37.0983 57.2991 36.583 57.8119C36.0678 58.3247 35.2271 58.3247 34.7119 57.8119L27.7966 50.9295C27.2813 50.4167 27.2813 49.58 27.7966 49.0672Z" fill="#5ABFC6"/>
<path d="M6.26437 27.6375C6.77962 27.1247 7.6203 27.1247 8.13556 27.6375L15.0508 34.5199C15.5661 35.0327 15.5661 35.8694 15.0508 36.3822C14.5356 36.895 13.6949 36.895 13.1796 36.3822L6.26437 29.4998C5.74912 28.987 5.74912 28.1503 6.26437 27.6375Z" fill="#5ABFC6"/>
<path d="M6.26437 57.7845C5.74912 57.2717 5.74912 56.435 6.26437 55.9222L13.1796 49.0399C13.6949 48.5271 14.5356 48.5271 15.0508 49.0399C15.5661 49.5527 15.5661 50.3894 15.0508 50.9022L8.13556 57.7845C7.6203 58.2973 6.77962 58.2973 6.26437 57.7845Z" fill="#5ABFC6"/>
<path d="M9.68115 76.678C9.68115 75.9492 10.2778 75.3555 11.01 75.3555H42.8201C43.5523 75.3555 44.149 75.9492 44.149 76.678C44.149 77.4067 43.5523 78.0005 42.8201 78.0005H11.01C10.2778 77.9735 9.68115 77.4067 9.68115 76.678Z" fill="#5ABFC6"/>
<path d="M57.5185 72.5209C56.8134 72.5209 56.2168 71.9541 56.2168 71.2254C56.2168 60.4025 66.4948 50.1465 77.3965 50.1465C78.1015 50.1465 78.6982 50.7133 78.6982 51.442C78.6982 52.1707 78.1287 52.7375 77.3965 52.7375C68.0134 52.7375 58.7931 61.914 58.7931 71.2524C58.8202 71.9271 58.2507 72.5209 57.5185 72.5209Z" fill="#5ABFC6"/>
<path d="M12.4203 42.7248C12.4203 43.4536 11.8237 44.0473 11.0915 44.0473H1.32881C0.59661 44.0473 0 43.4536 0 42.7248C0 41.9961 0.59661 41.4023 1.32881 41.4023H11.0915C11.8237 41.4023 12.4203 41.9961 12.4203 42.7248Z" fill="#5ABFC6"/>
</g>
<defs>
<clipPath id="clip0_268_2728">
<rect width="88" height="78" fill="white"/>
</clipPath>
</defs>
</svg>
