<svg width="12" height="7" viewBox="0 0 12 7" fill="none" xmlns="http://www.w3.org/2000/svg">
<path fill-rule="evenodd" clip-rule="evenodd" d="M5.53633 0.502141C5.53633 0.224816 5.74392 0 6 0H11.5363C11.7924 0 12 0.224816 12 0.502141C12 0.779466 11.7924 1.00428 11.5363 1.00428H6C5.74392 1.00428 5.53633 0.779466 5.53633 0.502141ZM2.76817 3.5C2.76817 3.22268 2.97576 2.99786 3.23183 2.99786H11.5363C11.7924 2.99786 12 3.22268 12 3.5C12 3.77732 11.7924 4.00214 11.5363 4.00214H3.23183C2.97576 4.00214 2.76817 3.77732 2.76817 3.5ZM0 6.49786C0 6.22053 0.207591 5.99572 0.463668 5.99572H11.5363C11.7924 5.99572 12 6.22053 12 6.49786C12 6.77518 11.7924 7 11.5363 7H0.463668C0.207591 7 0 6.77518 0 6.49786Z" fill="white"/>
</svg>
