<svg width="866" height="885" viewBox="0 0 866 885" fill="none" xmlns="http://www.w3.org/2000/svg">
<path fill-rule="evenodd" clip-rule="evenodd" d="M401.657 37.4185C464.291 58.4435 494.233 133.053 556.972 153.765C654.356 185.915 808.087 97.4353 856.567 187.599C903.43 274.755 763.161 355.35 710.378 439.072C679.713 487.71 633.684 523.156 611.565 576.207C573.806 666.77 614.745 794.602 537.067 854.749C465.324 910.299 352.318 879.628 270.503 840.29C193.364 803.2 156.905 718.679 108.103 648.496C64.6475 586.003 8.02853 527.997 0.708681 452.297C-6.49031 377.847 42.923 313.404 68.9166 243.245C97.3635 166.465 90.8635 63.8571 160.609 20.7139C230.471 -22.5014 323.743 11.2646 401.657 37.4185Z" fill="#2CE8F4"/>
</svg>
