<svg width="38" height="38" viewBox="0 0 38 38" fill="none" xmlns="http://www.w3.org/2000/svg">
<path fill-rule="evenodd" clip-rule="evenodd" d="M29.4252 6.45674C23.0827 0.114161 12.7993 0.114161 6.45674 6.45674C0.114161 12.7993 0.114161 23.0827 6.45674 29.4252C12.7993 35.7678 23.0827 35.7678 29.4252 29.4252C35.7678 23.0827 35.7678 12.7993 29.4252 6.45674ZM5.46679 5.46679C12.3561 -1.42252 23.5259 -1.42252 30.4152 5.46679C37.1387 12.1903 37.3005 22.9908 30.9005 29.9106L37.4948 36.5048L36.5048 37.4948L29.9106 30.9005C22.9908 37.3005 12.1903 37.1387 5.46679 30.4152C-1.42252 23.5259 -1.42252 12.3561 5.46679 5.46679ZM17.2414 17.241V8.10945H18.6414V17.241H27.7729V18.641H18.6414V27.7725H17.2414V18.641H8.10982V17.241H17.2414Z" fill="#F8F4ED"/>
</svg>
